{"glyphs":{"0":{"ha":794,"x_min":63,"x_max":732,"o":"m 732 497 q 698 222 732 336 q 590 47 664 108 q 396 -14 517 -14 q 144 122 225 -14 q 63 497 63 257 q 95 772 63 657 q 201 947 128 886 q 396 1007 275 1007 q 649 873 565 1007 q 732 497 732 739 m 210 497 q 251 206 210 303 q 396 110 293 110 q 540 206 497 110 q 583 497 583 301 q 540 787 583 690 q 396 883 497 883 q 251 787 293 883 q 210 497 210 690 z "},"1":{"ha":794,"x_min":111,"x_max":517,"o":"m 517 0 l 371 0 l 371 658 q 372 753 371 710 q 376 836 374 796 q 339 801 358 818 q 294 763 319 783 l 186 675 l 111 769 l 394 992 l 517 992 l 517 0 z "},"2":{"ha":794,"x_min":64,"x_max":731,"o":"m 731 0 l 64 0 l 64 114 l 319 374 q 444 506 394 450 q 519 615 494 563 q 544 728 544 667 q 500 842 544 803 q 385 881 456 881 q 263 856 317 881 q 150 783 208 831 l 71 882 q 207 969 131 932 q 389 1006 283 1006 q 612 933 531 1006 q 693 740 693 861 q 661 594 693 661 q 571 460 629 526 q 433 317 513 393 l 249 138 l 249 131 l 731 131 l 731 0 z "},"3":{"ha":794,"x_min":60,"x_max":722,"o":"m 692 763 q 634 601 692 661 q 485 522 576 542 l 485 517 q 663 442 603 503 q 722 283 722 382 q 681 130 722 197 q 555 24 640 63 q 336 -14 469 -14 q 189 -1 257 -14 q 60 40 121 11 l 60 174 q 194 125 122 142 q 331 108 265 108 q 513 156 457 108 q 568 290 568 204 q 501 413 568 374 q 301 451 435 451 l 211 451 l 211 572 l 303 572 q 486 619 429 572 q 543 743 543 667 q 499 847 543 810 q 374 883 456 883 q 241 860 297 883 q 136 803 185 836 l 64 904 q 197 976 118 946 q 378 1006 275 1006 q 612 938 532 1006 q 692 763 692 871 z "},"4":{"ha":794,"x_min":28,"x_max":768,"o":"m 768 219 l 631 219 l 631 0 l 488 0 l 488 219 l 28 219 l 28 336 l 485 996 l 631 996 l 631 344 l 768 344 l 768 219 m 488 614 q 490 737 488 679 q 494 833 493 794 l 489 833 q 462 776 478 806 q 429 725 446 747 l 167 344 l 488 344 l 488 614 z "},"5":{"ha":794,"x_min":82,"x_max":719,"o":"m 392 615 q 629 539 539 615 q 719 321 719 463 q 621 76 719 165 q 342 -14 522 -14 q 197 0 264 -14 q 82 40 129 14 l 82 175 q 203 128 132 146 q 340 110 275 110 q 507 158 444 110 q 569 307 569 206 q 513 445 569 397 q 336 493 457 493 q 249 486 296 493 q 172 472 201 479 l 104 513 l 142 992 l 651 992 l 651 861 l 269 861 l 247 601 q 307 610 271 606 q 392 615 343 615 z "},"6":{"ha":794,"x_min":68,"x_max":735,"o":"m 68 422 q 80 592 68 508 q 122 751 92 676 q 204 882 151 825 q 338 972 257 939 q 535 1004 419 1004 q 600 1001 564 1004 q 661 993 636 999 l 661 869 q 542 886 608 886 q 383 857 446 886 q 285 776 321 828 q 232 657 249 725 q 211 511 215 589 l 219 511 q 306 594 250 561 q 449 628 361 628 q 656 548 578 628 q 735 322 735 468 q 648 76 735 165 q 413 -14 561 -14 q 238 33 317 -14 q 114 177 160 81 q 68 422 68 274 m 411 108 q 540 160 490 108 q 590 322 590 213 q 547 461 590 410 q 415 513 503 513 q 311 488 356 513 q 242 424 267 463 q 217 344 217 385 q 239 233 217 288 q 304 144 261 179 q 411 108 347 108 z "},"7":{"ha":794,"x_min":54,"x_max":733,"o":"m 179 0 l 575 861 l 54 861 l 54 992 l 733 992 l 733 886 l 339 0 l 179 0 z "},"8":{"ha":794,"x_min":63,"x_max":731,"o":"m 396 1006 q 551 978 483 1006 q 659 899 619 951 q 699 767 699 846 q 644 621 699 678 q 514 525 590 564 q 622 459 572 496 q 701 373 671 422 q 731 257 731 324 q 690 113 731 174 q 574 19 649 53 q 399 -14 499 -14 q 150 56 238 -14 q 63 253 63 126 q 90 370 63 319 q 164 457 118 421 q 264 518 210 493 q 143 619 192 560 q 94 768 94 678 q 135 898 94 846 q 243 978 175 950 q 396 1006 311 1006 m 394 890 q 281 856 325 890 q 236 760 236 822 q 284 652 236 690 q 400 583 332 614 q 510 651 465 611 q 556 760 556 690 q 511 856 556 822 q 394 890 467 890 m 204 256 q 251 144 204 189 q 396 100 299 100 q 540 144 490 100 q 589 257 589 188 q 535 369 589 325 q 400 449 482 414 l 379 457 q 249 373 294 421 q 204 256 204 325 z "},"9":{"ha":794,"x_min":63,"x_max":729,"o":"m 729 568 q 717 399 729 483 q 676 241 706 315 q 593 109 646 167 q 458 19 540 51 q 261 -14 376 -14 q 194 -11 232 -14 q 133 -1 157 -8 l 133 122 q 256 106 189 106 q 413 134 350 106 q 513 214 476 163 q 565 333 549 265 q 585 478 582 401 l 576 478 q 492 397 546 431 q 346 363 438 363 q 140 442 217 363 q 63 667 63 522 q 150 914 63 824 q 385 1004 238 1004 q 560 957 482 1004 q 683 813 638 910 q 729 568 729 717 m 386 883 q 257 831 307 883 q 207 669 207 778 q 250 529 207 581 q 381 478 293 478 q 486 503 442 478 q 556 567 531 528 q 581 647 581 606 q 559 757 581 703 q 494 847 538 811 q 386 883 450 883 z "},"\u0000":{"ha":0,"x_min":0,"x_max":0,"o":""},"\r":{"ha":361,"x_min":0,"x_max":0,"o":""}," ":{"ha":361,"x_min":0,"x_max":0,"o":""},"!":{"ha":381,"x_min":94,"x_max":285,"o":"m 243 294 l 139 294 l 104 992 l 278 992 l 243 294 m 94 82 q 122 158 94 136 q 190 181 150 181 q 256 158 228 181 q 285 82 285 136 q 256 4 285 28 q 190 -19 228 -19 q 122 4 150 -19 q 94 82 94 28 z "},"\"":{"ha":593,"x_min":90,"x_max":503,"o":"m 239 992 l 211 633 l 118 633 l 90 992 l 239 992 m 503 992 l 475 633 l 382 633 l 354 992 l 503 992 z "},"#":{"ha":897,"x_min":33,"x_max":863,"o":"m 669 596 l 631 393 l 815 393 l 815 286 l 610 286 l 554 0 l 440 0 l 496 286 l 317 286 l 264 0 l 153 0 l 204 286 l 33 286 l 33 393 l 225 393 l 265 596 l 85 596 l 85 703 l 285 703 l 339 992 l 454 992 l 399 703 l 581 703 l 635 992 l 746 992 l 690 703 l 863 703 l 863 596 l 669 596 m 338 393 l 517 393 l 557 596 l 378 596 l 338 393 z "},"$":{"ha":794,"x_min":78,"x_max":724,"o":"m 351 64 q 199 78 271 65 q 79 114 128 92 l 79 250 q 205 208 129 226 q 351 188 281 189 l 351 447 q 142 549 207 492 q 78 707 78 607 q 153 869 78 810 q 351 938 228 929 l 351 1054 l 442 1054 l 442 939 q 579 922 517 936 q 697 885 642 908 l 651 765 q 549 798 603 785 q 442 815 494 811 l 442 560 q 591 501 528 532 q 689 425 654 471 q 724 307 724 379 q 651 146 724 208 q 442 69 579 83 l 442 -81 l 351 -81 l 351 64 m 351 813 q 254 781 286 807 q 222 714 222 756 q 251 640 222 667 q 351 592 279 613 l 351 813 m 442 193 q 546 228 513 201 q 579 299 579 256 q 549 368 579 343 q 442 415 519 393 l 442 193 z "},"%":{"ha":1183,"x_min":61,"x_max":1122,"o":"m 272 1006 q 434 924 379 1006 q 489 696 489 843 q 437 466 489 549 q 272 383 385 383 q 115 466 169 383 q 61 696 61 549 q 112 924 61 843 q 272 1006 163 1006 m 928 992 l 378 0 l 254 0 l 804 992 l 928 992 m 272 903 q 182 696 182 903 q 272 486 182 486 q 368 696 368 486 q 272 903 368 903 m 906 608 q 1067 527 1011 608 q 1122 299 1122 446 q 1070 69 1122 153 q 906 -14 1018 -14 q 747 69 801 -14 q 693 299 693 153 q 744 527 693 446 q 906 608 794 608 m 906 506 q 815 299 815 506 q 906 90 815 90 q 1000 299 1000 90 q 906 506 1000 506 z "},"&":{"ha":1024,"x_min":68,"x_max":1022,"o":"m 425 1007 q 608 951 539 1007 q 676 792 676 894 q 619 640 676 703 q 478 528 563 578 l 724 290 q 779 390 757 335 q 817 507 801 444 l 967 507 q 910 341 946 421 q 819 197 874 261 l 1022 0 l 831 0 l 722 104 q 580 19 658 51 q 394 -14 501 -14 q 156 59 243 -14 q 68 261 68 132 q 123 431 68 367 q 272 550 178 496 q 192 659 225 603 q 158 786 158 715 q 231 948 158 889 q 425 1007 303 1007 m 421 889 q 335 862 369 889 q 300 783 300 835 q 324 698 300 738 q 390 613 347 658 q 501 694 467 656 q 535 786 535 733 q 503 861 535 833 q 421 889 471 889 m 360 460 q 259 377 296 419 q 222 269 222 335 q 272 156 222 199 q 401 114 321 114 q 534 138 478 114 q 631 196 590 161 l 360 460 z "},"'":{"ha":329,"x_min":90,"x_max":239,"o":"m 239 992 l 211 633 l 118 633 l 90 992 l 239 992 z "},"(":{"ha":433,"x_min":56,"x_max":392,"o":"m 56 381 q 105 708 56 550 q 260 992 154 865 l 392 992 q 245 704 294 861 q 196 382 196 547 q 245 65 196 221 q 390 -219 294 -90 l 260 -219 q 105 58 154 -97 q 56 381 56 213 z "},")":{"ha":433,"x_min":42,"x_max":378,"o":"m 378 381 q 328 58 378 213 q 174 -219 278 -97 l 43 -219 q 188 65 139 -90 q 236 382 236 221 q 187 704 236 547 q 42 992 138 861 l 174 992 q 328 708 278 865 q 378 381 378 550 z "},"*":{"ha":763,"x_min":53,"x_max":708,"o":"m 453 1056 l 425 794 l 688 868 l 708 728 l 460 707 l 621 493 l 492 424 l 376 657 l 274 424 l 140 493 l 299 707 l 53 728 l 75 868 l 333 794 l 304 1056 l 453 1056 z "},"+":{"ha":794,"x_min":67,"x_max":725,"o":"m 453 546 l 725 546 l 725 433 l 453 433 l 453 154 l 339 154 l 339 433 l 67 433 l 67 546 l 339 546 l 339 826 l 453 826 l 453 546 z "},",":{"ha":379,"x_min":53,"x_max":279,"o":"m 279 146 q 228 -16 261 72 q 160 -179 194 -104 l 53 -179 q 92 -5 72 -99 q 122 161 111 89 l 269 161 l 279 146 z "},"-":{"ha":447,"x_min":51,"x_max":396,"o":"m 51 310 l 51 435 l 396 435 l 396 310 l 51 310 z "},".":{"ha":379,"x_min":94,"x_max":285,"o":"m 94 82 q 122 158 94 136 q 189 181 149 181 q 256 158 228 181 q 285 82 285 136 q 256 4 285 28 q 189 -19 228 -19 q 122 4 149 -19 q 94 82 94 28 z "},"/":{"ha":533,"x_min":13,"x_max":522,"o":"m 522 992 l 153 0 l 13 0 l 382 992 l 522 992 z "},"∕":{"ha":533,"x_min":13,"x_max":522,"o":"m 522 992 l 153 0 l 13 0 l 382 992 l 522 992 z "},":":{"ha":379,"x_min":94,"x_max":285,"o":"m 94 665 q 122 744 94 721 q 189 767 149 767 q 256 744 228 767 q 285 665 285 721 q 256 589 285 613 q 189 565 228 565 q 122 589 149 565 q 94 665 94 613 m 94 82 q 122 158 94 136 q 189 181 149 181 q 256 158 228 181 q 285 82 285 136 q 256 4 285 28 q 189 -19 228 -19 q 122 4 149 -19 q 94 82 94 28 z "},";":{"ha":379,"x_min":43,"x_max":283,"o":"m 92 665 q 119 744 92 721 q 188 767 147 767 q 255 744 226 767 q 283 665 283 721 q 255 589 283 613 q 188 565 226 565 q 119 589 147 565 q 92 665 92 613 m 271 146 q 219 -16 253 72 q 151 -179 185 -104 l 43 -179 q 70 -66 57 -126 q 94 53 83 -6 q 113 161 106 113 l 261 161 l 271 146 z "},"<":{"ha":794,"x_min":67,"x_max":726,"o":"m 726 154 l 67 444 l 67 522 l 726 851 l 726 728 l 221 489 l 726 278 l 726 154 z "},"=":{"ha":794,"x_min":72,"x_max":719,"o":"m 72 569 l 72 682 l 719 682 l 719 569 l 72 569 m 72 296 l 72 410 l 719 410 l 719 296 l 72 296 z "},">":{"ha":794,"x_min":67,"x_max":726,"o":"m 67 278 l 572 489 l 67 728 l 67 851 l 726 522 l 726 444 l 67 154 l 67 278 z "},"?":{"ha":621,"x_min":13,"x_max":585,"o":"m 193 335 q 219 460 193 411 q 313 565 244 510 q 392 634 363 606 q 433 690 421 663 q 444 757 444 718 q 405 849 444 817 q 290 881 365 881 q 171 863 225 881 q 65 821 117 846 l 13 932 q 143 985 72 964 q 300 1006 214 1006 q 510 939 436 1006 q 585 761 585 872 q 565 658 585 701 q 509 578 546 614 q 422 500 472 542 q 353 438 376 464 q 322 385 331 411 q 314 322 314 358 l 314 294 l 193 294 l 193 335 m 164 82 q 191 158 164 136 q 260 181 218 181 q 326 158 297 181 q 354 82 354 136 q 326 4 354 28 q 260 -19 297 -19 q 191 4 218 -19 q 164 82 164 28 z "},"@":{"ha":1247,"x_min":78,"x_max":1171,"o":"m 1171 496 q 1156 371 1171 432 q 1110 260 1140 310 q 1035 180 1081 210 q 926 150 989 150 q 829 183 867 150 q 782 261 792 215 l 774 261 q 699 183 747 215 q 581 150 651 150 q 409 222 469 150 q 349 411 349 293 q 385 574 349 503 q 491 685 422 644 q 653 725 560 725 q 777 715 715 725 q 875 690 839 704 l 861 408 q 860 374 860 386 q 860 358 860 363 q 883 269 860 290 q 935 247 906 247 q 1002 281 975 247 q 1044 372 1029 315 q 1058 497 1058 429 q 1008 710 1058 622 q 869 843 957 797 q 668 889 781 889 q 408 825 514 889 q 247 650 301 761 q 192 394 192 539 q 298 88 192 194 q 604 -19 404 -19 q 767 -1 688 -19 q 911 42 847 18 l 911 -64 q 773 -106 850 -89 q 606 -122 696 -122 q 321 -61 439 -122 q 140 115 203 0 q 78 390 78 229 q 118 629 78 519 q 235 820 158 739 q 422 947 313 901 q 668 992 531 992 q 927 932 814 992 q 1106 761 1040 872 q 1171 496 1171 650 m 471 408 q 505 285 471 324 q 597 247 539 247 q 705 303 672 247 q 743 449 738 360 l 751 615 q 708 624 733 619 q 656 628 683 628 q 548 596 589 628 q 489 514 507 564 q 471 408 471 464 z "},"A":{"ha":908,"x_min":0,"x_max":907,"o":"m 750 0 l 644 286 l 261 286 l 156 0 l 0 0 l 376 996 l 532 996 l 907 0 l 750 0 m 503 696 q 488 742 499 711 q 468 806 478 772 q 453 860 458 839 q 428 768 442 817 q 406 696 414 719 l 306 417 l 603 417 l 503 696 z "},"B":{"ha":911,"x_min":132,"x_max":838,"o":"m 422 992 q 709 936 611 992 q 807 744 807 881 q 760 599 807 657 q 628 526 714 542 l 628 519 q 734 483 686 510 q 810 409 782 457 q 838 283 838 361 q 743 74 838 149 q 488 0 649 0 l 132 0 l 132 992 l 422 992 m 447 578 q 608 615 564 578 q 651 726 651 653 q 599 833 651 800 q 431 865 546 865 l 282 865 l 282 578 l 447 578 m 282 456 l 282 125 l 464 125 q 631 172 583 125 q 679 297 679 219 q 630 412 679 368 q 454 456 581 456 l 282 456 z "},"C":{"ha":879,"x_min":83,"x_max":835,"o":"m 556 876 q 324 774 407 876 q 240 494 240 672 q 318 217 240 318 q 554 115 396 115 q 677 127 618 115 q 797 158 736 139 l 797 29 q 678 -3 739 7 q 536 -14 618 -14 q 283 49 383 -14 q 133 227 183 113 q 83 496 83 342 q 138 761 83 646 q 299 941 193 876 q 557 1006 404 1006 q 703 990 632 1006 q 835 944 775 974 l 779 819 q 674 859 731 842 q 556 876 618 876 z "},"D":{"ha":1018,"x_min":132,"x_max":935,"o":"m 935 506 q 797 127 935 254 q 410 0 658 0 l 132 0 l 132 992 l 439 992 q 701 936 590 992 q 874 773 813 881 q 935 506 935 665 m 778 501 q 687 777 778 689 q 429 865 596 865 l 282 865 l 282 126 l 403 126 q 778 501 778 126 z "},"E":{"ha":774,"x_min":132,"x_max":690,"o":"m 690 0 l 132 0 l 132 992 l 690 992 l 690 864 l 282 864 l 282 581 l 665 581 l 665 454 l 282 454 l 282 129 l 690 129 l 690 0 z "},"F":{"ha":733,"x_min":132,"x_max":690,"o":"m 281 0 l 132 0 l 132 992 l 690 992 l 690 864 l 281 864 l 281 540 l 664 540 l 664 413 l 281 413 l 281 0 z "},"G":{"ha":1010,"x_min":83,"x_max":904,"o":"m 546 533 l 904 533 l 904 39 q 742 -1 825 13 q 554 -14 660 -14 q 205 122 326 -14 q 83 496 83 257 q 144 766 83 651 q 319 943 204 881 q 599 1006 435 1006 q 756 990 681 1006 q 894 946 831 974 l 840 821 q 726 860 789 843 q 593 876 663 876 q 333 774 428 876 q 239 494 239 671 q 274 297 239 382 q 383 163 308 211 q 579 114 458 114 q 680 120 639 114 q 756 135 721 126 l 756 404 l 546 404 l 546 533 z "},"H":{"ha":1039,"x_min":132,"x_max":906,"o":"m 906 0 l 756 0 l 756 453 l 282 453 l 282 0 l 132 0 l 132 992 l 282 992 l 282 581 l 756 581 l 756 992 l 906 992 l 906 0 z "},"I":{"ha":492,"x_min":53,"x_max":438,"o":"m 438 0 l 53 0 l 53 86 l 171 121 l 171 869 l 53 906 l 53 992 l 438 992 l 438 906 l 321 869 l 321 121 l 438 86 l 438 0 z "},"J":{"ha":403,"x_min":-107,"x_max":276,"o":"m 3 -272 q -60 -267 -33 -272 q -107 -254 -87 -262 l -107 -129 q -60 -139 -85 -135 q -7 -143 -35 -143 q 58 -129 28 -143 q 108 -79 89 -115 q 126 22 126 -43 l 126 992 l 276 992 l 276 29 q 201 -200 276 -128 q 3 -272 125 -272 z "},"K":{"ha":878,"x_min":132,"x_max":878,"o":"m 878 0 l 704 0 l 379 457 l 282 376 l 282 0 l 132 0 l 132 992 l 282 992 l 282 513 q 354 597 318 554 q 426 681 390 639 l 694 992 l 867 992 l 488 558 l 878 0 z "},"L":{"ha":744,"x_min":132,"x_max":706,"o":"m 132 0 l 132 992 l 282 992 l 282 129 l 706 129 l 706 0 l 132 0 z "},"M":{"ha":1275,"x_min":132,"x_max":1143,"o":"m 564 0 l 264 843 l 258 843 q 263 767 260 814 q 267 667 265 721 q 268 560 268 613 l 268 0 l 132 0 l 132 992 l 346 992 l 631 196 l 636 196 l 929 992 l 1143 992 l 1143 0 l 997 0 l 997 568 q 999 667 997 615 q 1003 765 1001 719 q 1007 842 1006 811 l 1001 842 l 693 0 l 564 0 z "},"N":{"ha":1078,"x_min":132,"x_max":946,"o":"m 946 0 l 764 0 l 263 801 l 257 801 q 264 674 260 746 q 268 528 268 603 l 268 0 l 132 0 l 132 992 l 313 992 l 813 194 l 817 194 q 813 268 815 224 q 810 363 811 313 q 807 458 808 414 l 807 992 l 946 992 l 946 0 z "},"O":{"ha":1090,"x_min":83,"x_max":1007,"o":"m 1007 497 q 956 228 1007 343 q 801 50 904 114 q 546 -14 699 -14 q 286 50 389 -14 q 133 229 183 114 q 83 499 83 344 q 134 765 83 651 q 288 943 185 879 q 547 1007 390 1007 q 802 944 700 1007 q 956 766 904 881 q 1007 497 1007 651 m 242 497 q 315 217 242 319 q 546 114 389 114 q 776 217 704 114 q 849 497 849 319 q 777 776 849 675 q 547 878 706 878 q 315 776 389 878 q 242 497 242 675 z "},"P":{"ha":850,"x_min":132,"x_max":782,"o":"m 410 992 q 693 913 604 992 q 782 694 782 835 q 745 539 782 611 q 622 422 708 467 q 389 376 536 376 l 282 376 l 282 0 l 132 0 l 132 992 l 410 992 m 399 865 l 282 865 l 282 503 l 372 503 q 563 546 499 503 q 628 689 628 589 q 572 822 628 778 q 399 865 517 865 z "},"Q":{"ha":1090,"x_min":83,"x_max":1007,"o":"m 1007 497 q 938 193 1007 319 q 732 17 869 67 l 969 -236 l 764 -236 l 575 -12 q 560 -13 568 -12 q 546 -14 553 -14 q 286 50 389 -14 q 133 229 183 114 q 83 499 83 344 q 134 765 83 651 q 288 943 185 879 q 547 1007 390 1007 q 802 944 700 1007 q 956 766 904 881 q 1007 497 1007 651 m 242 497 q 315 217 242 319 q 546 114 389 114 q 776 217 704 114 q 849 497 849 319 q 777 776 849 675 q 547 878 706 878 q 315 776 389 878 q 242 497 242 675 z "},"R":{"ha":879,"x_min":132,"x_max":865,"o":"m 410 992 q 691 921 600 992 q 782 706 782 850 q 753 577 782 629 q 681 492 725 525 q 588 440 636 460 l 865 0 l 693 0 l 454 401 l 282 401 l 282 0 l 132 0 l 132 992 l 410 992 m 400 864 l 282 864 l 282 526 l 407 526 q 575 570 522 526 q 628 700 628 614 q 572 826 628 789 q 400 864 517 864 z "},"S":{"ha":764,"x_min":69,"x_max":701,"o":"m 701 268 q 606 61 701 136 q 343 -14 510 -14 q 191 -1 263 -14 q 69 38 119 13 l 69 179 q 200 134 125 154 q 353 114 275 114 q 503 153 453 114 q 553 257 553 192 q 530 334 553 303 q 458 392 507 365 q 331 450 410 418 q 201 515 257 478 q 113 608 144 553 q 81 744 81 664 q 169 936 81 867 q 403 1006 258 1006 q 552 990 483 1006 q 683 946 621 974 l 636 822 q 520 861 579 846 q 399 876 461 876 q 274 840 317 876 q 231 746 231 804 q 251 669 231 700 q 318 613 272 638 q 439 557 364 588 q 581 487 522 524 q 671 398 640 450 q 701 268 701 346 z "},"T":{"ha":782,"x_min":18,"x_max":763,"o":"m 465 0 l 315 0 l 315 863 l 18 863 l 18 992 l 763 992 l 763 863 l 465 863 l 465 0 z "},"U":{"ha":1025,"x_min":124,"x_max":901,"o":"m 901 350 q 858 165 901 247 q 728 34 815 82 q 508 -14 642 -14 q 222 87 319 -14 q 124 353 124 188 l 124 992 l 274 992 l 274 360 q 515 114 274 114 q 697 181 640 114 q 753 361 753 247 l 753 992 l 901 992 l 901 350 z "},"V":{"ha":854,"x_min":0,"x_max":854,"o":"m 854 992 l 504 0 l 349 0 l 0 992 l 154 992 l 367 369 q 401 260 385 319 q 426 151 418 200 q 451 260 435 200 q 486 371 468 319 l 699 992 l 854 992 z "},"W":{"ha":1307,"x_min":11,"x_max":1294,"o":"m 1294 992 l 1033 0 l 874 0 l 699 613 q 678 688 689 646 q 660 766 668 729 q 649 818 651 803 q 640 767 647 803 q 623 688 633 731 q 603 608 613 644 l 431 0 l 271 0 l 11 992 l 165 992 l 311 406 q 339 280 326 346 q 358 163 351 214 q 379 283 365 215 q 410 406 393 351 l 575 992 l 725 992 l 896 403 q 926 278 913 347 q 947 163 940 210 q 967 279 954 213 q 996 406 981 346 l 1142 992 l 1294 992 z "},"X":{"ha":847,"x_min":4,"x_max":843,"o":"m 843 0 l 672 0 l 419 414 l 164 0 l 4 0 l 333 515 l 25 992 l 192 992 l 425 613 l 660 992 l 819 992 l 511 514 l 843 0 z "},"Y":{"ha":810,"x_min":0,"x_max":810,"o":"m 406 528 l 649 992 l 810 992 l 479 385 l 479 0 l 331 0 l 331 379 l 0 992 l 163 992 l 406 528 z "},"Z":{"ha":797,"x_min":47,"x_max":749,"o":"m 749 0 l 47 0 l 47 107 l 556 863 l 63 863 l 63 992 l 736 992 l 736 885 l 228 129 l 749 129 l 749 0 z "},"[":{"ha":458,"x_min":107,"x_max":424,"o":"m 424 -219 l 107 -219 l 107 992 l 424 992 l 424 879 l 243 879 l 243 -107 l 424 -107 l 424 -219 z "},"\\":{"ha":533,"x_min":13,"x_max":522,"o":"m 151 992 l 522 0 l 382 0 l 13 992 l 151 992 z "},"]":{"ha":458,"x_min":35,"x_max":351,"o":"m 35 -107 l 214 -107 l 214 879 l 35 879 l 35 992 l 351 992 l 351 -219 l 35 -219 l 35 -107 z "},"^":{"ha":794,"x_min":47,"x_max":747,"o":"m 47 365 l 342 999 l 419 999 l 747 365 l 624 365 l 383 846 l 169 365 l 47 365 z "},"_":{"ha":603,"x_min":-3,"x_max":606,"o":"m 606 -215 l -3 -215 l -3 -125 l 606 -125 l 606 -215 z "},"`":{"ha":424,"x_min":56,"x_max":368,"o":"m 226 1064 q 268 995 243 1033 q 319 921 293 957 q 368 858 346 885 l 368 842 l 269 842 q 194 906 236 867 q 113 985 151 944 q 56 1050 75 1025 l 56 1064 l 226 1064 z "},"a":{"ha":797,"x_min":63,"x_max":686,"o":"m 406 763 q 616 701 546 763 q 686 507 686 639 l 686 0 l 582 0 l 553 104 l 547 104 q 445 15 499 43 q 297 -14 392 -14 q 129 41 196 -14 q 63 213 63 96 q 149 386 63 326 q 414 451 235 446 l 542 456 l 542 497 q 504 613 542 579 q 399 647 467 647 q 289 631 342 647 q 188 590 236 614 l 140 697 q 262 744 193 725 q 406 763 331 763 m 440 357 q 263 315 313 351 q 214 211 214 278 q 249 126 214 153 q 339 100 283 100 q 483 149 425 100 q 540 294 540 197 l 540 360 l 440 357 z "},"b":{"ha":861,"x_min":115,"x_max":789,"o":"m 263 801 q 260 714 263 756 q 256 650 257 672 l 263 650 q 348 729 293 697 q 489 761 403 761 q 706 664 624 761 q 789 375 789 567 q 706 84 789 182 q 488 -14 622 -14 q 347 17 400 -14 q 263 92 293 49 l 251 92 l 224 0 l 115 0 l 115 1056 l 263 1056 l 263 801 m 454 642 q 304 578 346 642 q 263 385 263 515 l 263 374 q 303 176 263 244 q 457 107 344 107 q 592 176 546 107 q 638 376 638 246 q 454 642 638 642 z "},"c":{"ha":681,"x_min":72,"x_max":636,"o":"m 417 -14 q 167 78 261 -14 q 72 369 72 171 q 118 594 72 508 q 244 722 164 681 q 428 763 325 763 q 545 749 490 763 q 636 719 600 736 l 592 600 q 509 626 553 615 q 426 638 465 638 q 224 371 224 638 q 274 176 224 243 q 421 110 324 110 q 531 124 483 110 q 619 160 579 138 l 619 32 q 532 -3 579 8 q 417 -14 485 -14 z "},"d":{"ha":861,"x_min":72,"x_max":746,"o":"m 372 -14 q 155 83 238 -14 q 72 372 72 181 q 156 664 72 565 q 375 763 239 763 q 514 731 460 763 q 601 653 568 699 l 610 653 q 603 708 607 671 q 599 775 599 746 l 599 1056 l 746 1056 l 746 0 l 631 0 l 606 100 l 599 100 q 513 19 567 51 q 372 -14 458 -14 m 407 107 q 560 167 515 107 q 604 349 604 228 l 604 371 q 562 572 604 501 q 406 642 519 642 q 269 569 315 642 q 224 369 224 496 q 269 175 224 243 q 407 107 315 107 z "},"e":{"ha":794,"x_min":72,"x_max":726,"o":"m 410 763 q 642 672 557 763 q 726 424 726 581 l 726 343 l 224 343 q 284 167 226 228 q 446 106 342 106 q 574 119 518 106 q 690 158 631 132 l 690 36 q 576 -1 633 11 q 440 -14 519 -14 q 248 29 331 -14 q 119 158 165 72 q 72 368 72 243 q 115 582 72 494 q 233 716 157 669 q 410 763 308 763 m 410 649 q 283 597 331 649 q 226 451 235 546 l 579 451 q 537 594 578 539 q 410 649 496 649 z "},"f":{"ha":496,"x_min":22,"x_max":556,"o":"m 481 636 l 296 636 l 296 0 l 149 0 l 149 636 l 22 636 l 22 706 l 149 751 l 149 799 q 215 1002 149 942 q 399 1063 281 1063 q 488 1054 447 1063 q 556 1036 528 1046 l 518 924 q 466 937 494 931 q 406 943 438 943 q 296 797 296 943 l 296 749 l 481 749 l 481 636 z "},"g":{"ha":861,"x_min":72,"x_max":746,"o":"m 374 763 q 603 650 522 763 l 610 650 l 626 749 l 746 749 l 746 -10 q 660 -251 746 -169 q 400 -333 575 -333 q 251 -322 318 -333 q 126 -287 183 -311 l 126 -158 q 408 -217 246 -217 q 550 -165 500 -217 q 600 -18 600 -112 l 600 7 q 601 54 600 25 q 604 99 603 83 l 599 99 q 504 13 561 40 q 374 -14 447 -14 q 152 88 232 -14 q 72 372 72 190 q 152 658 72 553 q 374 763 232 763 m 404 640 q 270 571 317 640 q 224 371 224 501 q 270 172 224 240 q 407 104 317 104 q 558 160 510 104 q 606 344 606 217 l 606 372 q 557 578 606 515 q 404 640 508 640 z "},"h":{"ha":875,"x_min":115,"x_max":764,"o":"m 263 774 q 260 703 263 738 q 254 647 257 669 l 264 647 q 360 733 300 706 q 492 761 421 761 q 694 696 624 761 q 764 488 764 631 l 764 0 l 618 0 l 618 467 q 464 642 618 642 q 306 573 349 642 q 263 376 263 504 l 263 0 l 115 0 l 115 1056 l 263 1056 l 263 774 z "},"i":{"ha":378,"x_min":106,"x_max":274,"o":"m 190 1033 q 249 1014 224 1033 q 274 949 274 994 q 249 884 274 904 q 190 864 224 864 q 130 884 154 864 q 106 949 106 904 q 130 1014 106 994 q 190 1033 154 1033 m 263 749 l 263 0 l 115 0 l 115 749 l 263 749 z "},"j":{"ha":378,"x_min":-81,"x_max":274,"o":"m 106 949 q 130 1014 106 994 q 190 1033 154 1033 q 249 1014 224 1033 q 274 949 274 994 q 249 884 274 904 q 190 864 224 864 q 130 884 154 864 q 106 949 106 904 m 36 -333 q -30 -328 0 -333 q -81 -317 -60 -324 l -81 -199 q -36 -209 -58 -206 q 14 -212 -14 -212 q 86 -188 57 -212 q 115 -96 115 -164 l 115 749 l 263 749 l 263 -103 q 209 -270 263 -207 q 36 -333 156 -333 z "},"k":{"ha":776,"x_min":115,"x_max":768,"o":"m 261 528 q 258 461 261 500 q 254 392 256 422 l 258 392 q 301 447 274 413 q 349 503 328 481 l 578 749 l 749 749 l 447 428 l 768 0 l 594 0 l 347 335 l 261 263 l 261 0 l 115 0 l 115 1056 l 261 1056 l 261 528 z "},"l":{"ha":378,"x_min":115,"x_max":263,"o":"m 263 0 l 115 0 l 115 1056 l 263 1056 l 263 0 z "},"m":{"ha":1318,"x_min":115,"x_max":1208,"o":"m 954 763 q 1144 697 1081 763 q 1208 488 1208 632 l 1208 0 l 1061 0 l 1061 468 q 921 642 1061 642 q 778 580 821 642 q 735 403 735 518 l 735 0 l 589 0 l 589 468 q 447 642 589 642 q 302 574 342 642 q 263 378 263 506 l 263 0 l 115 0 l 115 749 l 232 749 l 253 649 l 261 649 q 354 735 294 707 q 481 763 414 763 q 708 642 654 763 l 719 642 q 819 733 756 704 q 954 763 883 763 z "},"n":{"ha":875,"x_min":115,"x_max":764,"o":"m 494 763 q 694 697 625 763 q 764 488 764 632 l 764 0 l 618 0 l 618 467 q 464 642 618 642 q 306 574 349 642 q 263 378 263 506 l 263 0 l 115 0 l 115 749 l 232 749 l 253 649 l 261 649 q 360 735 297 707 q 494 763 424 763 z "},"o":{"ha":846,"x_min":72,"x_max":775,"o":"m 775 375 q 679 88 775 189 q 421 -14 583 -14 q 241 32 319 -14 q 117 165 163 78 q 72 375 72 251 q 167 662 72 561 q 425 763 261 763 q 606 717 528 763 q 730 586 685 672 q 775 375 775 500 m 224 375 q 272 178 224 249 q 424 107 319 107 q 576 178 528 107 q 624 375 624 249 q 575 572 624 503 q 422 640 526 640 q 271 572 318 640 q 224 375 224 503 z "},"p":{"ha":861,"x_min":115,"x_max":789,"o":"m 489 763 q 706 665 624 763 q 789 375 789 568 q 706 85 789 185 q 488 -14 622 -14 q 348 17 401 -14 q 263 92 294 49 l 253 92 q 260 33 257 67 q 263 -28 263 -1 l 263 -333 l 115 -333 l 115 749 l 235 749 l 256 649 l 263 649 q 348 729 294 696 q 489 763 401 763 m 454 642 q 307 581 350 642 q 263 399 264 521 l 263 376 q 304 177 263 247 q 457 107 346 107 q 593 182 549 107 q 638 378 638 257 q 593 571 638 500 q 454 642 549 642 z "},"q":{"ha":861,"x_min":72,"x_max":746,"o":"m 599 -15 q 601 43 599 11 q 607 100 603 75 l 599 100 q 512 19 567 51 q 371 -14 457 -14 q 155 83 238 -14 q 72 372 72 181 q 156 664 72 565 q 375 763 240 763 q 515 729 461 763 q 603 649 569 696 l 608 649 l 626 749 l 746 749 l 746 -333 l 599 -333 l 599 -15 m 408 106 q 558 165 514 106 q 604 346 603 225 l 604 371 q 561 573 604 504 q 406 642 518 642 q 269 569 314 642 q 224 369 224 496 q 269 174 224 243 q 408 106 314 106 z "},"r":{"ha":590,"x_min":115,"x_max":567,"o":"m 485 763 q 527 760 504 763 q 567 756 550 758 l 551 618 q 476 628 515 628 q 372 600 421 628 q 292 520 322 572 q 263 394 263 468 l 263 0 l 115 0 l 115 749 l 232 749 l 251 615 l 257 615 q 350 719 293 675 q 485 763 407 763 z "},"s":{"ha":672,"x_min":68,"x_max":613,"o":"m 613 211 q 532 44 613 101 q 308 -14 451 -14 q 173 -2 229 -14 q 69 32 117 10 l 69 161 q 184 119 118 138 q 313 100 250 100 q 433 126 396 100 q 469 197 469 153 q 456 242 469 222 q 403 284 442 263 q 292 333 365 306 q 170 391 219 363 q 94 459 121 419 q 68 561 68 499 q 147 710 68 658 q 354 763 225 763 q 483 749 422 763 q 600 710 543 735 l 551 597 q 451 633 503 618 q 347 647 400 647 q 246 626 281 647 q 211 568 211 606 q 228 522 211 542 q 284 483 244 503 q 393 436 324 464 q 512 382 463 410 q 587 314 561 354 q 613 211 613 274 z "},"t":{"ha":532,"x_min":25,"x_max":497,"o":"m 385 106 q 444 110 414 106 q 497 124 475 115 l 497 13 q 433 -6 472 1 q 353 -14 393 -14 q 240 7 292 -14 q 159 79 189 28 q 129 222 129 131 l 129 636 l 25 636 l 25 703 l 135 758 l 186 917 l 276 917 l 276 749 l 490 749 l 490 636 l 276 636 l 276 225 q 306 135 276 164 q 385 106 336 106 z "},"u":{"ha":875,"x_min":108,"x_max":760,"o":"m 760 749 l 760 0 l 642 0 l 621 99 l 614 99 q 514 13 578 40 q 379 -14 450 -14 q 178 51 247 -14 q 108 258 108 117 l 108 749 l 257 749 l 257 281 q 408 107 257 107 q 568 175 524 107 q 613 369 613 243 l 613 749 l 760 749 z "},"v":{"ha":731,"x_min":0,"x_max":731,"o":"m 283 0 l 0 749 l 156 749 l 311 311 q 342 215 326 268 q 361 126 357 161 l 367 126 q 389 215 372 161 q 419 311 406 269 l 575 749 l 731 749 l 446 0 l 283 0 z "},"w":{"ha":1121,"x_min":15,"x_max":1106,"o":"m 621 375 q 598 458 610 411 q 576 548 586 506 q 561 613 567 590 l 556 613 q 542 547 551 590 q 520 457 532 504 q 497 374 508 410 l 386 1 l 222 1 l 15 750 l 165 750 l 263 371 q 291 247 278 313 q 310 140 304 181 l 315 140 q 327 203 319 164 q 344 281 335 242 q 361 346 353 321 l 481 750 l 642 750 l 758 346 q 776 280 767 318 q 794 205 786 242 q 804 142 801 168 l 810 142 q 819 203 813 164 q 837 286 826 242 q 857 371 847 331 l 957 750 l 1106 750 l 896 1 l 728 1 l 621 375 z "},"x":{"ha":754,"x_min":19,"x_max":735,"o":"m 286 382 l 32 749 l 200 749 l 378 479 l 556 749 l 722 749 l 468 382 l 735 0 l 568 0 l 378 286 l 186 0 l 19 0 l 286 382 z "},"y":{"ha":732,"x_min":1,"x_max":732,"o":"m 1 749 l 160 749 l 315 324 q 347 230 333 275 q 367 142 360 185 l 372 142 q 394 226 379 178 q 426 325 408 275 l 574 749 l 732 749 l 411 -101 q 303 -272 371 -210 q 128 -333 236 -333 q 68 -330 93 -333 q 25 -322 43 -326 l 25 -206 q 61 -211 39 -208 q 107 -214 83 -214 q 210 -177 171 -214 q 271 -81 249 -140 l 301 0 l 1 749 z "},"z":{"ha":660,"x_min":49,"x_max":610,"o":"m 610 0 l 49 0 l 49 93 l 435 635 l 72 635 l 72 749 l 599 749 l 599 644 l 221 114 l 610 114 l 610 0 z "},"{":{"ha":533,"x_min":33,"x_max":486,"o":"m 486 -219 q 274 -167 343 -218 q 204 -8 204 -117 l 204 199 q 160 297 204 268 q 33 326 117 326 l 33 446 q 160 476 117 447 q 204 572 204 504 l 204 781 q 276 940 204 889 q 486 992 347 992 l 486 876 q 381 848 419 875 q 342 756 342 821 l 342 556 q 189 392 342 417 l 189 383 q 342 219 342 357 l 342 15 q 380 -76 342 -50 q 486 -104 418 -103 l 486 -219 z "},"|":{"ha":765,"x_min":325,"x_max":440,"o":"m 325 1054 l 440 1054 l 440 -329 l 325 -329 l 325 1054 z "},"}":{"ha":533,"x_min":47,"x_max":500,"o":"m 47 -104 q 153 -76 114 -103 q 192 17 192 -49 l 192 218 q 344 382 192 356 l 344 390 q 192 554 192 417 l 192 757 q 153 849 192 822 q 47 876 115 875 l 47 992 q 260 940 190 990 q 329 781 329 889 l 329 574 q 373 475 329 504 q 500 446 417 446 l 500 326 q 373 297 417 326 q 329 200 329 268 l 329 -8 q 258 -168 329 -117 q 47 -219 186 -219 l 47 -104 z "},"~":{"ha":794,"x_min":67,"x_max":726,"o":"m 374 436 q 289 465 322 457 q 225 474 256 474 q 143 449 186 474 q 67 392 100 425 l 67 514 q 235 588 135 588 q 315 579 275 588 q 419 543 356 571 q 504 514 471 522 q 567 506 538 506 q 650 530 607 506 q 726 588 693 554 l 726 467 q 558 392 658 392 q 477 400 518 392 q 374 436 436 408 z "}," ":{"ha":361,"x_min":0,"x_max":0,"o":""},"¡":{"ha":381,"x_min":94,"x_max":285,"o":"m 285 658 q 257 581 285 603 q 189 558 229 558 q 122 581 150 558 q 94 658 94 603 q 122 735 94 711 q 189 758 150 758 q 257 735 229 758 q 285 658 285 711 m 136 444 l 242 444 l 276 -251 l 101 -251 l 136 444 z "},"¢":{"ha":794,"x_min":118,"x_max":683,"o":"m 494 896 q 599 881 550 893 q 683 853 647 869 l 639 733 q 555 761 600 750 q 471 772 510 772 q 318 706 368 772 q 268 504 268 639 q 319 306 268 368 q 468 244 369 244 q 575 256 529 244 q 667 289 621 268 l 667 163 q 587 132 628 143 q 493 119 546 121 l 493 -14 l 392 -14 l 392 124 q 192 230 265 142 q 118 503 118 318 q 152 711 118 631 q 248 835 186 792 q 392 890 310 878 l 392 1006 l 494 1006 l 494 896 z "},"£":{"ha":794,"x_min":47,"x_max":750,"o":"m 467 1004 q 606 988 543 1004 q 718 949 668 972 l 669 833 q 576 868 626 853 q 474 883 526 883 q 367 847 406 883 q 328 726 328 810 l 328 553 l 601 553 l 601 443 l 328 443 l 328 313 q 297 192 328 232 q 231 131 267 151 l 750 131 l 750 0 l 47 0 l 47 122 q 144 182 107 140 q 181 311 181 224 l 181 443 l 51 443 l 51 553 l 181 553 l 181 736 q 260 936 181 868 q 467 1004 340 1004 z "},"¤":{"ha":794,"x_min":81,"x_max":711,"o":"m 126 490 q 138 568 126 531 q 171 638 150 606 l 81 729 l 158 804 l 247 717 q 317 749 279 738 q 397 761 356 761 q 474 749 438 761 q 544 717 511 738 l 635 804 l 711 731 l 624 639 q 656 569 643 608 q 668 490 668 531 q 624 340 668 407 l 710 251 l 635 176 l 544 264 q 475 233 513 244 q 397 221 438 221 q 247 265 311 221 l 158 178 l 82 253 l 171 342 q 138 412 150 374 q 126 490 126 450 m 233 490 q 255 408 233 444 q 314 349 276 371 q 397 326 351 326 q 481 349 443 326 q 540 408 518 371 q 563 490 563 444 q 540 574 563 536 q 481 635 518 613 q 397 657 443 657 q 314 635 351 657 q 255 574 276 613 q 233 490 233 536 z "},"¥":{"ha":794,"x_min":15,"x_max":776,"o":"m 396 529 l 624 992 l 776 992 l 503 475 l 664 475 l 664 376 l 467 376 l 467 269 l 664 269 l 664 171 l 467 171 l 467 0 l 325 0 l 325 171 l 128 171 l 128 269 l 325 269 l 325 376 l 128 376 l 128 475 l 285 475 l 15 992 l 169 992 l 396 529 z "},"¦":{"ha":765,"x_min":325,"x_max":440,"o":"m 325 1054 l 440 1054 l 440 518 l 325 518 l 325 1054 m 325 207 l 440 207 l 440 -329 l 325 -329 l 325 207 z "},"§":{"ha":701,"x_min":79,"x_max":617,"o":"m 90 547 q 122 655 90 613 q 194 719 153 697 q 119 785 146 747 q 93 879 93 824 q 165 1013 93 964 q 367 1063 238 1063 q 497 1049 442 1063 q 607 1013 553 1035 l 564 908 q 469 943 517 928 q 360 958 422 958 q 253 938 285 958 q 222 882 222 918 q 259 818 222 844 q 393 756 296 792 q 557 665 497 717 q 617 531 617 614 q 588 417 617 461 q 518 349 558 374 q 590 287 565 324 q 615 197 615 250 q 535 46 615 100 q 314 -8 456 -8 q 181 4 238 -8 q 79 39 124 17 l 79 154 q 192 113 126 132 q 318 94 257 94 q 449 122 414 94 q 485 188 485 150 q 472 231 485 213 q 424 270 460 250 q 317 318 388 290 q 194 374 244 344 q 117 445 143 404 q 90 547 90 486 m 208 561 q 250 478 208 513 q 394 404 292 443 l 418 396 q 472 441 447 413 q 497 513 497 469 q 480 572 497 546 q 419 623 463 599 q 296 674 375 647 q 235 633 263 663 q 208 561 208 604 z "},"¨":{"ha":817,"x_min":201,"x_max":614,"o":"m 201 947 q 223 1005 201 988 q 275 1022 244 1022 q 328 1005 306 1022 q 350 947 350 988 q 328 891 350 910 q 275 872 306 872 q 223 891 244 872 q 201 947 201 910 m 467 947 q 488 1005 467 988 q 540 1022 510 1022 q 592 1005 569 1022 q 614 947 614 988 q 592 891 614 910 q 540 872 569 872 q 488 891 510 872 q 467 947 467 910 z "},"©":{"ha":1156,"x_min":68,"x_max":1088,"o":"m 578 -14 q 374 24 467 -14 q 212 130 281 61 q 106 292 143 199 q 68 496 68 385 q 106 699 68 606 q 213 860 144 792 q 375 967 282 929 q 578 1006 468 1006 q 776 968 683 1006 q 938 862 868 931 q 1048 700 1008 793 q 1088 496 1088 607 q 1050 292 1088 385 q 944 130 1013 199 q 782 24 875 61 q 578 -14 689 -14 m 578 64 q 742 96 665 64 q 878 185 819 128 q 970 322 938 243 q 1003 496 1003 401 q 972 663 1003 585 q 883 801 940 742 q 748 894 825 861 q 578 928 671 928 q 358 872 454 928 q 206 719 261 817 q 151 496 151 622 q 206 277 151 375 q 357 122 261 179 q 578 64 453 64 m 599 183 q 391 269 460 183 q 322 496 322 354 q 355 657 322 586 q 450 768 388 728 q 604 808 513 808 q 775 767 694 808 l 735 679 q 606 715 665 715 q 478 657 524 715 q 433 496 433 599 q 473 333 433 390 q 604 275 513 275 q 676 284 636 275 q 750 307 715 293 l 750 217 q 682 192 717 201 q 599 183 647 183 z "},"ª":{"ha":507,"x_min":40,"x_max":440,"o":"m 256 1003 q 440 838 440 1003 l 440 533 l 368 533 l 350 597 q 281 545 321 565 q 190 525 242 525 q 81 560 122 525 q 40 667 40 594 q 97 776 40 740 q 265 815 154 811 l 340 818 l 340 843 q 313 903 340 885 q 244 921 286 921 q 172 910 208 921 q 103 883 136 900 l 68 958 q 154 990 107 976 q 256 1003 201 1003 m 274 747 q 170 722 196 743 q 144 668 144 701 q 163 620 144 635 q 213 606 182 606 q 309 637 278 606 q 340 721 340 668 l 340 750 l 274 747 z "},"«":{"ha":750,"x_min":56,"x_max":696,"o":"m 56 379 l 294 667 l 400 608 l 207 371 l 400 133 l 294 74 l 56 361 l 56 379 m 350 379 l 592 667 l 696 608 l 503 371 l 696 133 l 592 74 l 350 361 l 350 379 z "},"¬":{"ha":794,"x_min":67,"x_max":725,"o":"m 725 546 l 725 175 l 613 175 l 613 433 l 67 433 l 67 546 l 725 546 z "},"­":{"ha":447,"x_min":51,"x_max":396,"o":"m 51 310 l 51 435 l 396 435 l 396 310 l 51 310 z "},"®":{"ha":1156,"x_min":68,"x_max":1088,"o":"m 578 -14 q 374 24 467 -14 q 212 130 281 61 q 106 292 143 199 q 68 496 68 385 q 106 699 68 606 q 213 860 144 792 q 375 967 282 929 q 578 1006 468 1006 q 776 968 683 1006 q 938 862 868 931 q 1048 700 1008 793 q 1088 496 1088 607 q 1050 292 1088 385 q 944 130 1013 199 q 782 24 875 61 q 578 -14 689 -14 m 578 64 q 742 96 665 64 q 878 185 819 128 q 970 322 938 243 q 1003 496 1003 401 q 972 663 1003 585 q 883 801 940 742 q 748 894 825 861 q 578 928 671 928 q 358 872 454 928 q 206 719 261 817 q 151 496 151 622 q 206 277 151 375 q 357 122 261 179 q 578 64 453 64 m 386 192 l 386 800 l 565 800 q 732 755 679 800 q 785 619 785 710 q 751 516 785 554 q 676 461 718 478 l 838 192 l 717 192 l 579 431 l 493 431 l 493 192 l 386 192 m 563 518 q 647 546 617 518 q 676 617 676 574 q 649 688 676 665 q 561 710 622 710 l 493 710 l 493 518 l 563 518 z "},"¯":{"ha":694,"x_min":-4,"x_max":699,"o":"m 699 1056 l -4 1056 l -4 1160 l 699 1160 l 699 1056 z "},"°":{"ha":594,"x_min":69,"x_max":524,"o":"m 297 567 q 132 628 194 567 q 69 786 69 689 q 131 944 69 882 q 297 1006 193 1006 q 460 944 397 1006 q 524 786 524 883 q 460 628 524 689 q 297 567 397 567 m 299 663 q 390 697 358 663 q 421 786 421 731 q 388 877 421 843 q 299 911 356 911 q 206 877 238 911 q 174 786 174 843 q 206 697 174 731 q 299 663 238 663 z "},"±":{"ha":794,"x_min":67,"x_max":726,"o":"m 453 561 l 725 561 l 725 449 l 453 449 l 453 169 l 339 169 l 339 449 l 67 449 l 67 561 l 339 561 l 339 842 l 453 842 l 453 561 m 67 0 l 67 114 l 726 114 l 726 0 l 67 0 z "},"²":{"ha":499,"x_min":35,"x_max":440,"o":"m 440 578 l 35 578 l 35 664 l 192 818 q 272 900 244 868 q 309 957 299 932 q 319 1011 319 982 q 296 1070 319 1050 q 236 1090 272 1090 q 165 1074 199 1090 q 97 1031 132 1058 l 38 1106 q 129 1163 79 1142 q 243 1185 179 1185 q 384 1141 332 1185 q 436 1019 436 1097 q 397 899 436 953 q 279 772 357 846 l 179 679 l 440 679 l 440 578 z "},"³":{"ha":499,"x_min":29,"x_max":453,"o":"m 238 1185 q 383 1142 332 1185 q 435 1031 435 1099 q 406 942 435 978 q 329 892 376 907 l 329 886 q 420 838 388 874 q 453 747 453 801 q 394 617 453 667 q 211 567 335 567 q 115 576 160 567 q 29 608 71 586 l 29 708 q 122 670 75 683 q 213 657 168 657 q 308 682 278 657 q 339 753 339 707 q 197 842 339 842 l 119 842 l 119 926 l 193 926 q 292 952 264 926 q 321 1017 321 978 q 296 1075 321 1056 q 232 1094 271 1094 q 158 1081 193 1094 q 86 1042 124 1067 l 31 1115 q 122 1165 74 1146 q 238 1185 171 1185 z "},"´":{"ha":424,"x_min":56,"x_max":368,"o":"m 368 1050 q 310 985 347 1025 q 229 906 272 944 q 153 842 186 867 l 56 842 l 56 858 q 103 921 76 885 q 154 995 129 957 q 196 1064 179 1033 l 368 1064 l 368 1050 z "},"µ":{"ha":881,"x_min":115,"x_max":765,"o":"m 765 749 l 765 0 l 650 0 l 628 100 l 619 100 q 535 15 586 44 q 411 -14 485 -14 q 324 3 361 -14 q 261 49 286 19 l 256 49 q 260 -21 258 24 q 263 -117 263 -65 l 263 -333 l 115 -333 l 115 749 l 263 749 l 263 279 q 417 107 263 107 q 574 175 531 107 q 618 369 618 243 l 618 749 l 765 749 z "},"¶":{"ha":910,"x_min":76,"x_max":771,"o":"m 771 -176 l 682 -176 l 682 961 l 549 961 l 549 -176 l 460 -176 l 460 379 q 413 370 439 374 q 361 367 386 367 q 211 399 275 367 q 112 506 147 431 q 76 707 76 581 q 115 916 76 840 q 222 1024 153 992 q 382 1056 292 1056 l 771 1056 l 771 -176 z "},"·":{"ha":379,"x_min":94,"x_max":285,"o":"m 94 490 q 122 567 94 544 q 189 589 149 589 q 256 567 228 589 q 285 490 285 544 q 256 413 285 436 q 189 389 228 389 q 122 413 149 389 q 94 490 94 436 z "},"¸":{"ha":304,"x_min":7,"x_max":292,"o":"m 292 -186 q 242 -294 292 -256 q 85 -333 192 -333 q 7 -325 38 -333 l 7 -237 q 88 -246 42 -246 q 151 -234 128 -246 q 174 -190 174 -222 q 140 -140 174 -157 q 51 -115 107 -122 l 110 0 l 204 0 l 174 -64 q 256 -105 221 -76 q 292 -186 292 -133 z "},"¹":{"ha":499,"x_min":54,"x_max":351,"o":"m 351 1172 l 351 578 l 235 578 l 235 938 q 237 1006 235 971 q 240 1065 239 1040 q 211 1039 228 1054 q 179 1013 194 1024 l 111 961 l 54 1035 l 242 1172 l 351 1172 z "},"º":{"ha":528,"x_min":43,"x_max":485,"o":"m 485 765 q 424 588 485 651 q 263 525 364 525 q 105 587 167 525 q 43 765 43 649 q 103 941 43 879 q 265 1003 163 1003 q 424 942 363 1003 q 485 765 485 881 m 144 765 q 172 649 144 688 q 264 610 200 610 q 353 649 325 610 q 382 765 382 688 q 353 881 382 843 q 264 918 325 918 q 173 881 201 918 q 144 765 144 843 z "},"»":{"ha":750,"x_min":54,"x_max":694,"o":"m 694 361 l 454 74 l 350 133 l 543 371 l 350 608 l 454 667 l 694 379 l 694 361 m 399 361 l 160 74 l 54 133 l 247 371 l 54 608 l 160 667 l 399 379 l 399 361 z "},"¼":{"ha":1069,"x_min":42,"x_max":1057,"o":"m 188 0 l 776 992 l 897 992 l 308 0 l 188 0 m 222 757 q 224 825 222 790 q 228 885 226 860 q 199 858 215 874 q 167 832 182 843 l 99 781 l 42 854 l 229 992 l 339 992 l 339 397 l 222 397 l 222 757 m 851 0 l 851 125 l 583 125 l 583 206 l 854 599 l 972 599 l 972 217 l 1057 217 l 1057 125 l 972 125 l 972 0 l 851 0 m 689 217 l 851 217 l 851 340 q 852 406 851 369 q 856 476 853 443 q 828 426 849 460 q 793 369 808 392 l 689 217 z "},"½":{"ha":1113,"x_min":31,"x_max":1056,"o":"m 158 0 l 747 992 l 868 992 l 279 0 l 158 0 m 211 757 q 213 825 211 790 q 217 885 214 860 q 188 858 204 874 q 156 832 171 843 l 86 781 l 31 854 l 218 992 l 328 992 l 328 397 l 211 397 l 211 757 m 650 0 l 650 86 l 807 240 q 886 322 858 290 q 924 379 914 354 q 933 433 933 404 q 910 492 933 472 q 850 513 888 513 q 781 497 814 513 q 711 453 747 481 l 653 528 q 744 585 694 564 q 858 607 794 607 q 999 563 947 607 q 1051 442 1051 519 q 1012 322 1051 375 q 894 194 972 268 l 794 101 l 1056 101 l 1056 0 l 650 0 z "},"¾":{"ha":1111,"x_min":33,"x_max":1099,"o":"m 215 386 q 119 396 164 386 q 33 428 75 406 l 33 528 q 126 490 79 503 q 217 476 172 476 q 313 501 282 476 q 343 572 343 526 q 201 661 343 661 l 124 661 l 124 746 l 197 746 q 297 772 268 746 q 325 836 325 797 q 300 894 325 875 q 236 914 275 914 q 163 900 197 914 q 90 861 128 886 l 35 935 q 126 985 78 965 q 242 1004 175 1004 q 388 961 336 1004 q 439 850 439 918 q 410 762 439 797 q 333 711 381 726 l 333 706 q 424 657 392 693 q 457 567 457 621 q 398 436 457 486 q 215 386 339 386 m 244 0 l 833 992 l 956 992 l 367 0 l 244 0 m 893 0 l 893 125 l 625 125 l 625 206 l 894 599 l 1014 599 l 1014 217 l 1099 217 l 1099 125 l 1014 125 l 1014 0 l 893 0 m 731 217 l 893 217 l 893 340 q 894 406 893 369 q 897 476 894 443 q 869 426 890 460 q 835 369 849 392 l 731 217 z "},"¿":{"ha":621,"x_min":35,"x_max":607,"o":"m 457 657 q 429 581 457 603 q 360 558 401 558 q 294 581 322 558 q 265 657 265 603 q 294 735 265 711 q 360 758 322 758 q 429 735 401 758 q 457 657 457 711 m 428 404 q 401 278 428 328 q 307 174 375 229 q 228 105 257 133 q 187 49 199 76 q 175 -18 175 21 q 215 -110 175 -78 q 329 -142 256 -142 q 449 -124 396 -142 q 554 -82 503 -107 l 607 -193 q 476 -246 547 -225 q 319 -267 406 -267 q 109 -200 183 -267 q 35 -22 35 -133 q 54 81 35 38 q 110 161 74 125 q 199 239 147 197 q 266 301 243 275 q 297 354 289 328 q 306 417 306 381 l 306 444 l 428 444 l 428 404 z "},"À":{"ha":908,"x_min":0,"x_max":907,"o":"m 750 0 l 644 286 l 261 286 l 156 0 l 0 0 l 376 996 l 532 996 l 907 0 l 750 0 m 503 696 q 488 742 499 711 q 468 806 478 772 q 453 860 458 839 q 428 768 442 817 q 406 696 414 719 l 306 417 l 603 417 l 503 696 m 422 1307 q 464 1238 439 1276 q 515 1164 489 1200 q 564 1101 542 1128 l 564 1085 l 465 1085 q 390 1149 432 1110 q 309 1228 347 1188 q 251 1293 271 1268 l 251 1307 l 422 1307 z "},"Á":{"ha":908,"x_min":0,"x_max":907,"o":"m 750 0 l 644 286 l 261 286 l 156 0 l 0 0 l 376 996 l 532 996 l 907 0 l 750 0 m 503 696 q 488 742 499 711 q 468 806 478 772 q 453 860 458 839 q 428 768 442 817 q 406 696 414 719 l 306 417 l 603 417 l 503 696 m 685 1293 q 626 1228 664 1268 q 546 1149 589 1188 q 469 1085 503 1110 l 372 1085 l 372 1101 q 419 1164 393 1128 q 471 1238 446 1200 q 513 1307 496 1276 l 685 1307 l 685 1293 z "},"Â":{"ha":908,"x_min":0,"x_max":907,"o":"m 750 0 l 644 286 l 261 286 l 156 0 l 0 0 l 376 996 l 532 996 l 907 0 l 750 0 m 503 696 q 488 742 499 711 q 468 806 478 772 q 453 860 458 839 q 428 768 442 817 q 406 696 414 719 l 306 417 l 603 417 l 503 696 m 531 1307 q 580 1238 549 1276 q 645 1163 611 1200 q 704 1101 679 1126 l 704 1085 l 603 1085 q 527 1139 567 1107 q 450 1208 488 1171 q 300 1085 375 1132 l 200 1085 l 200 1101 q 259 1164 226 1128 q 322 1238 292 1200 q 372 1307 353 1276 l 531 1307 z "},"Ã":{"ha":908,"x_min":0,"x_max":907,"o":"m 750 0 l 644 286 l 261 286 l 156 0 l 0 0 l 376 996 l 532 996 l 907 0 l 750 0 m 503 696 q 488 742 499 711 q 468 806 478 772 q 453 860 458 839 q 428 768 442 817 q 406 696 414 719 l 306 417 l 603 417 l 503 696 m 190 1085 q 242 1222 199 1174 q 353 1271 285 1271 q 428 1252 392 1271 q 499 1214 465 1233 q 563 1194 532 1194 q 636 1272 617 1194 l 715 1272 q 664 1135 707 1183 q 554 1086 621 1086 q 480 1105 517 1086 q 409 1143 443 1124 q 344 1163 375 1163 q 269 1085 288 1163 l 190 1085 z "},"Ä":{"ha":908,"x_min":0,"x_max":907,"o":"m 750 0 l 644 286 l 261 286 l 156 0 l 0 0 l 376 996 l 532 996 l 907 0 l 750 0 m 503 696 q 488 742 499 711 q 468 806 478 772 q 453 860 458 839 q 428 768 442 817 q 406 696 414 719 l 306 417 l 603 417 l 503 696 m 247 1190 q 269 1248 247 1231 q 321 1265 290 1265 q 374 1248 351 1265 q 396 1190 396 1231 q 374 1134 396 1153 q 321 1115 351 1115 q 269 1134 290 1115 q 247 1190 247 1153 m 513 1190 q 534 1248 513 1231 q 586 1265 556 1265 q 638 1248 615 1265 q 660 1190 660 1231 q 638 1134 660 1153 q 586 1115 615 1115 q 534 1134 556 1115 q 513 1190 513 1153 z "},"Å":{"ha":908,"x_min":0,"x_max":907,"o":"m 750 0 l 644 286 l 261 286 l 156 0 l 0 0 l 376 996 l 532 996 l 907 0 l 750 0 m 503 696 q 488 742 499 711 q 468 806 478 772 q 453 860 458 839 q 428 768 442 817 q 406 696 414 719 l 306 417 l 603 417 l 503 696 m 451 919 q 338 959 381 919 q 294 1071 294 999 q 338 1181 294 1140 q 451 1221 381 1221 q 564 1181 518 1221 q 610 1072 610 1142 q 565 960 610 1000 q 451 919 519 919 m 451 996 q 504 1016 483 996 q 525 1071 525 1036 q 503 1125 525 1106 q 451 1144 482 1144 q 398 1125 419 1144 q 376 1071 376 1106 q 396 1016 376 1036 q 451 996 415 996 z "},"Æ":{"ha":1253,"x_min":-1,"x_max":1169,"o":"m 1169 0 l 631 0 l 631 286 l 288 286 l 153 0 l -1 0 l 463 992 l 1169 992 l 1169 864 l 781 864 l 781 581 l 1144 581 l 1144 454 l 781 454 l 781 129 l 1169 129 l 1169 0 m 344 417 l 631 417 l 631 861 l 549 861 l 344 417 z "},"Ç":{"ha":879,"x_min":83,"x_max":835,"o":"m 556 876 q 324 774 407 876 q 240 494 240 672 q 318 217 240 318 q 554 115 396 115 q 677 127 618 115 q 797 158 736 139 l 797 29 q 678 -3 739 7 q 536 -14 618 -14 q 283 49 383 -14 q 133 227 183 113 q 83 496 83 342 q 138 761 83 646 q 299 941 193 876 q 557 1006 404 1006 q 703 990 632 1006 q 835 944 775 974 l 779 819 q 674 859 731 842 q 556 876 618 876 m 663 -186 q 613 -294 663 -256 q 456 -333 563 -333 q 378 -325 408 -333 l 378 -237 q 458 -246 413 -246 q 522 -234 499 -246 q 544 -190 544 -222 q 511 -140 544 -157 q 422 -115 478 -122 l 481 0 l 575 0 l 544 -64 q 627 -105 592 -76 q 663 -186 663 -133 z "},"È":{"ha":774,"x_min":132,"x_max":690,"o":"m 690 0 l 132 0 l 132 992 l 690 992 l 690 864 l 282 864 l 282 581 l 665 581 l 665 454 l 282 454 l 282 129 l 690 129 l 690 0 m 392 1307 q 433 1238 408 1276 q 485 1164 458 1200 q 533 1101 511 1128 l 533 1085 l 435 1085 q 359 1149 401 1110 q 278 1228 317 1188 q 221 1293 240 1268 l 221 1307 l 392 1307 z "},"É":{"ha":774,"x_min":132,"x_max":690,"o":"m 690 0 l 132 0 l 132 992 l 690 992 l 690 864 l 282 864 l 282 581 l 665 581 l 665 454 l 282 454 l 282 129 l 690 129 l 690 0 m 654 1293 q 596 1228 633 1268 q 515 1149 558 1188 q 439 1085 472 1110 l 342 1085 l 342 1101 q 389 1164 363 1128 q 440 1238 415 1200 q 482 1307 465 1276 l 654 1307 l 654 1293 z "},"Ê":{"ha":774,"x_min":132,"x_max":690,"o":"m 690 0 l 132 0 l 132 992 l 690 992 l 690 864 l 282 864 l 282 581 l 665 581 l 665 454 l 282 454 l 282 129 l 690 129 l 690 0 m 500 1307 q 549 1238 518 1276 q 615 1163 581 1200 q 674 1101 649 1126 l 674 1085 l 572 1085 q 497 1139 536 1107 q 419 1208 457 1171 q 269 1085 344 1132 l 169 1085 l 169 1101 q 228 1164 196 1128 q 292 1238 261 1200 q 342 1307 322 1276 l 500 1307 z "},"Ë":{"ha":774,"x_min":132,"x_max":690,"o":"m 690 0 l 132 0 l 132 992 l 690 992 l 690 864 l 282 864 l 282 581 l 665 581 l 665 454 l 282 454 l 282 129 l 690 129 l 690 0 m 215 1190 q 237 1248 215 1231 q 289 1265 258 1265 q 342 1248 319 1265 q 364 1190 364 1231 q 342 1134 364 1153 q 289 1115 319 1115 q 237 1134 258 1115 q 215 1190 215 1153 m 481 1190 q 502 1248 481 1231 q 554 1265 524 1265 q 606 1248 583 1265 q 628 1190 628 1231 q 606 1134 628 1153 q 554 1115 583 1115 q 502 1134 524 1115 q 481 1190 481 1153 z "},"Ì":{"ha":492,"x_min":44,"x_max":438,"o":"m 438 0 l 53 0 l 53 86 l 171 121 l 171 869 l 53 906 l 53 992 l 438 992 l 438 906 l 321 869 l 321 121 l 438 86 l 438 0 m 215 1307 q 257 1238 232 1276 q 308 1164 282 1200 q 357 1101 335 1128 l 357 1085 l 258 1085 q 183 1149 225 1110 q 102 1228 140 1188 q 44 1293 64 1268 l 44 1307 l 215 1307 z "},"Í":{"ha":492,"x_min":53,"x_max":478,"o":"m 438 0 l 53 0 l 53 86 l 171 121 l 171 869 l 53 906 l 53 992 l 438 992 l 438 906 l 321 869 l 321 121 l 438 86 l 438 0 m 478 1293 q 419 1228 457 1268 q 339 1149 382 1188 q 263 1085 296 1110 l 165 1085 l 165 1101 q 213 1164 186 1128 q 264 1238 239 1200 q 306 1307 289 1276 l 478 1307 l 478 1293 z "},"Î":{"ha":492,"x_min":-6,"x_max":499,"o":"m 438 0 l 53 0 l 53 86 l 171 121 l 171 869 l 53 906 l 53 992 l 438 992 l 438 906 l 321 869 l 321 121 l 438 86 l 438 0 m 325 1307 q 374 1238 343 1276 q 440 1163 406 1200 q 499 1101 474 1126 l 499 1085 l 397 1085 q 322 1139 361 1107 q 244 1208 282 1171 q 94 1085 169 1132 l -6 1085 l -6 1101 q 53 1164 21 1128 q 117 1238 86 1200 q 167 1307 147 1276 l 325 1307 z "},"Ï":{"ha":492,"x_min":40,"x_max":453,"o":"m 438 0 l 53 0 l 53 86 l 171 121 l 171 869 l 53 906 l 53 992 l 438 992 l 438 906 l 321 869 l 321 121 l 438 86 l 438 0 m 40 1190 q 62 1248 40 1231 q 114 1265 83 1265 q 167 1248 144 1265 q 189 1190 189 1231 q 167 1134 189 1153 q 114 1115 144 1115 q 62 1134 83 1115 q 40 1190 40 1153 m 306 1190 q 327 1248 306 1231 q 379 1265 349 1265 q 431 1248 408 1265 q 453 1190 453 1231 q 431 1134 453 1153 q 379 1115 408 1115 q 327 1134 349 1115 q 306 1190 306 1153 z "},"Ð":{"ha":1018,"x_min":39,"x_max":935,"o":"m 439 992 q 701 936 590 992 q 874 773 813 881 q 935 506 935 665 q 796 127 935 254 q 408 0 657 0 l 139 0 l 139 426 l 39 426 l 39 554 l 139 554 l 139 992 l 439 992 m 429 865 l 289 865 l 289 554 l 511 554 l 511 426 l 289 426 l 289 126 l 403 126 q 778 501 778 126 q 686 777 778 689 q 429 865 594 865 z "},"Ñ":{"ha":1078,"x_min":132,"x_max":946,"o":"m 946 0 l 764 0 l 263 801 l 257 801 q 264 674 260 746 q 268 528 268 603 l 268 0 l 132 0 l 132 992 l 313 992 l 813 194 l 817 194 q 813 268 815 224 q 810 363 811 313 q 807 458 808 414 l 807 992 l 946 992 l 946 0 m 276 1085 q 328 1222 285 1174 q 439 1271 371 1271 q 515 1252 478 1271 q 585 1214 551 1233 q 649 1194 618 1194 q 722 1272 703 1194 l 801 1272 q 750 1135 793 1183 q 640 1086 707 1086 q 566 1105 603 1086 q 495 1143 529 1124 q 431 1163 461 1163 q 356 1085 374 1163 l 276 1085 z "},"Ò":{"ha":1090,"x_min":83,"x_max":1007,"o":"m 1007 497 q 956 228 1007 343 q 801 50 904 114 q 546 -14 699 -14 q 286 50 389 -14 q 133 229 183 114 q 83 499 83 344 q 134 765 83 651 q 288 943 185 879 q 547 1007 390 1007 q 802 944 700 1007 q 956 766 904 881 q 1007 497 1007 651 m 242 497 q 315 217 242 319 q 546 114 389 114 q 776 217 704 114 q 849 497 849 319 q 777 776 849 675 q 547 878 706 878 q 315 776 389 878 q 242 497 242 675 m 515 1307 q 557 1238 532 1276 q 608 1164 582 1200 q 657 1101 635 1128 l 657 1085 l 558 1085 q 483 1149 525 1110 q 402 1228 440 1188 q 344 1293 364 1268 l 344 1307 l 515 1307 z "},"Ó":{"ha":1090,"x_min":83,"x_max":1007,"o":"m 1007 497 q 956 228 1007 343 q 801 50 904 114 q 546 -14 699 -14 q 286 50 389 -14 q 133 229 183 114 q 83 499 83 344 q 134 765 83 651 q 288 943 185 879 q 547 1007 390 1007 q 802 944 700 1007 q 956 766 904 881 q 1007 497 1007 651 m 242 497 q 315 217 242 319 q 546 114 389 114 q 776 217 704 114 q 849 497 849 319 q 777 776 849 675 q 547 878 706 878 q 315 776 389 878 q 242 497 242 675 m 778 1293 q 719 1228 757 1268 q 639 1149 682 1188 q 563 1085 596 1110 l 465 1085 l 465 1101 q 513 1164 486 1128 q 564 1238 539 1200 q 606 1307 589 1276 l 778 1307 l 778 1293 z "},"Ô":{"ha":1090,"x_min":83,"x_max":1007,"o":"m 1007 497 q 956 228 1007 343 q 801 50 904 114 q 546 -14 699 -14 q 286 50 389 -14 q 133 229 183 114 q 83 499 83 344 q 134 765 83 651 q 288 943 185 879 q 547 1007 390 1007 q 802 944 700 1007 q 956 766 904 881 q 1007 497 1007 651 m 242 497 q 315 217 242 319 q 546 114 389 114 q 776 217 704 114 q 849 497 849 319 q 777 776 849 675 q 547 878 706 878 q 315 776 389 878 q 242 497 242 675 m 624 1307 q 673 1238 642 1276 q 738 1163 704 1200 q 797 1101 772 1126 l 797 1085 l 696 1085 q 620 1139 660 1107 q 543 1208 581 1171 q 393 1085 468 1132 l 293 1085 l 293 1101 q 352 1164 319 1128 q 415 1238 385 1200 q 465 1307 446 1276 l 624 1307 z "},"Õ":{"ha":1090,"x_min":83,"x_max":1007,"o":"m 1007 497 q 956 228 1007 343 q 801 50 904 114 q 546 -14 699 -14 q 286 50 389 -14 q 133 229 183 114 q 83 499 83 344 q 134 765 83 651 q 288 943 185 879 q 547 1007 390 1007 q 802 944 700 1007 q 956 766 904 881 q 1007 497 1007 651 m 242 497 q 315 217 242 319 q 546 114 389 114 q 776 217 704 114 q 849 497 849 319 q 777 776 849 675 q 547 878 706 878 q 315 776 389 878 q 242 497 242 675 m 283 1085 q 335 1222 292 1174 q 446 1271 378 1271 q 522 1252 485 1271 q 592 1214 558 1233 q 656 1194 625 1194 q 729 1272 710 1194 l 808 1272 q 757 1135 800 1183 q 647 1086 714 1086 q 573 1105 610 1086 q 502 1143 536 1124 q 438 1163 468 1163 q 363 1085 381 1163 l 283 1085 z "},"Ö":{"ha":1090,"x_min":83,"x_max":1007,"o":"m 1007 497 q 956 228 1007 343 q 801 50 904 114 q 546 -14 699 -14 q 286 50 389 -14 q 133 229 183 114 q 83 499 83 344 q 134 765 83 651 q 288 943 185 879 q 547 1007 390 1007 q 802 944 700 1007 q 956 766 904 881 q 1007 497 1007 651 m 242 497 q 315 217 242 319 q 546 114 389 114 q 776 217 704 114 q 849 497 849 319 q 777 776 849 675 q 547 878 706 878 q 315 776 389 878 q 242 497 242 675 m 340 1190 q 362 1248 340 1231 q 414 1265 383 1265 q 467 1248 444 1265 q 489 1190 489 1231 q 467 1134 489 1153 q 414 1115 444 1115 q 362 1134 383 1115 q 340 1190 340 1153 m 606 1190 q 627 1248 606 1231 q 679 1265 649 1265 q 731 1248 708 1265 q 753 1190 753 1231 q 731 1134 753 1153 q 679 1115 708 1115 q 627 1134 649 1115 q 606 1190 606 1153 z "},"×":{"ha":794,"x_min":89,"x_max":704,"o":"m 624 797 l 704 718 l 476 490 l 701 263 l 624 183 l 394 408 l 171 183 l 90 264 l 315 490 l 89 717 l 169 797 l 396 571 l 624 797 z "},"Ø":{"ha":1090,"x_min":83,"x_max":1007,"o":"m 1007 497 q 956 228 1007 343 q 801 50 904 114 q 546 -14 699 -14 q 297 46 397 -14 l 232 -49 l 140 13 l 210 113 q 115 278 146 179 q 83 499 83 376 q 134 765 83 651 q 288 943 185 879 q 547 1007 390 1007 q 679 992 618 1007 q 790 949 740 976 l 853 1039 l 944 978 l 876 882 q 1007 497 1007 746 m 242 497 q 256 354 242 418 q 299 242 269 290 l 713 835 q 547 878 646 878 q 315 776 389 878 q 242 497 242 675 m 849 497 q 789 754 849 660 l 376 160 q 451 126 408 139 q 546 114 494 114 q 776 217 704 114 q 849 497 849 319 z "},"Ù":{"ha":1025,"x_min":124,"x_max":901,"o":"m 901 350 q 858 165 901 247 q 728 34 815 82 q 508 -14 642 -14 q 222 87 319 -14 q 124 353 124 188 l 124 992 l 274 992 l 274 360 q 515 114 274 114 q 697 181 640 114 q 753 361 753 247 l 753 992 l 901 992 l 901 350 m 482 1307 q 524 1238 499 1276 q 575 1164 549 1200 q 624 1101 601 1128 l 624 1085 l 525 1085 q 449 1149 492 1110 q 369 1228 407 1188 q 311 1293 331 1268 l 311 1307 l 482 1307 z "},"Ú":{"ha":1025,"x_min":124,"x_max":901,"o":"m 901 350 q 858 165 901 247 q 728 34 815 82 q 508 -14 642 -14 q 222 87 319 -14 q 124 353 124 188 l 124 992 l 274 992 l 274 360 q 515 114 274 114 q 697 181 640 114 q 753 361 753 247 l 753 992 l 901 992 l 901 350 m 744 1293 q 686 1228 724 1268 q 606 1149 649 1188 q 529 1085 563 1110 l 432 1085 l 432 1101 q 479 1164 453 1128 q 531 1238 506 1200 q 572 1307 556 1276 l 744 1307 l 744 1293 z "},"Û":{"ha":1025,"x_min":124,"x_max":901,"o":"m 901 350 q 858 165 901 247 q 728 34 815 82 q 508 -14 642 -14 q 222 87 319 -14 q 124 353 124 188 l 124 992 l 274 992 l 274 360 q 515 114 274 114 q 697 181 640 114 q 753 361 753 247 l 753 992 l 901 992 l 901 350 m 592 1307 q 641 1238 610 1276 q 706 1163 672 1200 q 765 1101 740 1126 l 765 1085 l 664 1085 q 588 1139 628 1107 q 511 1208 549 1171 q 361 1085 436 1132 l 261 1085 l 261 1101 q 320 1164 288 1128 q 383 1238 353 1200 q 433 1307 414 1276 l 592 1307 z "},"Ü":{"ha":1025,"x_min":124,"x_max":901,"o":"m 901 350 q 858 165 901 247 q 728 34 815 82 q 508 -14 642 -14 q 222 87 319 -14 q 124 353 124 188 l 124 992 l 274 992 l 274 360 q 515 114 274 114 q 697 181 640 114 q 753 361 753 247 l 753 992 l 901 992 l 901 350 m 307 1190 q 328 1248 307 1231 q 381 1265 350 1265 q 433 1248 411 1265 q 456 1190 456 1231 q 433 1134 456 1153 q 381 1115 411 1115 q 328 1134 350 1115 q 307 1190 307 1153 m 572 1190 q 594 1248 572 1231 q 646 1265 615 1265 q 697 1248 675 1265 q 719 1190 719 1231 q 697 1134 719 1153 q 646 1115 675 1115 q 594 1134 615 1115 q 572 1190 572 1153 z "},"Ý":{"ha":810,"x_min":0,"x_max":810,"o":"m 406 528 l 649 992 l 810 992 l 479 385 l 479 0 l 331 0 l 331 379 l 0 992 l 163 992 l 406 528 m 636 1293 q 578 1228 615 1268 q 497 1149 540 1188 q 421 1085 454 1110 l 324 1085 l 324 1101 q 371 1164 344 1128 q 422 1238 397 1200 q 464 1307 447 1276 l 636 1307 l 636 1293 z "},"Þ":{"ha":850,"x_min":132,"x_max":782,"o":"m 782 528 q 746 372 782 444 q 625 255 710 300 q 392 210 540 210 l 282 210 l 282 0 l 132 0 l 132 992 l 282 992 l 282 825 l 411 825 q 694 746 607 825 q 782 528 782 667 m 372 335 q 566 378 504 335 q 628 524 628 422 q 572 656 628 613 q 394 699 517 699 l 282 699 l 282 335 l 372 335 z "},"ß":{"ha":910,"x_min":115,"x_max":851,"o":"m 761 853 q 742 768 761 804 q 693 705 722 732 q 635 656 664 678 q 586 613 606 633 q 567 571 567 593 q 577 537 567 551 q 615 502 588 522 q 694 447 643 482 q 810 349 768 400 q 851 215 851 297 q 777 42 851 97 q 576 -14 703 -14 q 461 -2 511 -14 q 374 32 411 10 l 374 158 q 463 118 408 136 q 569 100 517 100 q 672 128 639 100 q 704 208 704 157 q 693 263 704 239 q 653 310 682 286 q 574 365 625 333 q 455 460 488 419 q 422 557 422 501 q 442 630 422 600 q 489 683 461 660 q 545 728 517 707 q 592 776 574 750 q 611 838 611 801 q 563 917 611 890 q 442 943 515 943 q 352 930 393 943 q 287 885 311 917 q 263 797 263 853 l 263 0 l 115 0 l 115 800 q 158 952 115 894 q 275 1036 201 1010 q 442 1063 349 1063 q 608 1039 536 1063 q 720 969 679 1015 q 761 853 761 922 z "},"à":{"ha":797,"x_min":63,"x_max":686,"o":"m 406 763 q 616 701 546 763 q 686 507 686 639 l 686 0 l 582 0 l 553 104 l 547 104 q 445 15 499 43 q 297 -14 392 -14 q 129 41 196 -14 q 63 213 63 96 q 149 386 63 326 q 414 451 235 446 l 542 456 l 542 497 q 504 613 542 579 q 399 647 467 647 q 289 631 342 647 q 188 590 236 614 l 140 697 q 262 744 193 725 q 406 763 331 763 m 440 357 q 263 315 313 351 q 214 211 214 278 q 249 126 214 153 q 339 100 283 100 q 483 149 425 100 q 540 294 540 197 l 540 360 l 440 357 m 368 1064 q 410 995 385 1033 q 461 921 435 957 q 510 858 488 885 l 510 842 l 411 842 q 335 906 378 867 q 255 985 293 944 q 197 1050 217 1025 l 197 1064 l 368 1064 z "},"á":{"ha":797,"x_min":63,"x_max":686,"o":"m 406 763 q 616 701 546 763 q 686 507 686 639 l 686 0 l 582 0 l 553 104 l 547 104 q 445 15 499 43 q 297 -14 392 -14 q 129 41 196 -14 q 63 213 63 96 q 149 386 63 326 q 414 451 235 446 l 542 456 l 542 497 q 504 613 542 579 q 399 647 467 647 q 289 631 342 647 q 188 590 236 614 l 140 697 q 262 744 193 725 q 406 763 331 763 m 440 357 q 263 315 313 351 q 214 211 214 278 q 249 126 214 153 q 339 100 283 100 q 483 149 425 100 q 540 294 540 197 l 540 360 l 440 357 m 631 1050 q 572 985 610 1025 q 492 906 535 944 q 415 842 449 867 l 318 842 l 318 858 q 365 921 339 885 q 417 995 392 957 q 458 1064 442 1033 l 631 1064 l 631 1050 z "},"â":{"ha":797,"x_min":63,"x_max":686,"o":"m 406 763 q 616 701 546 763 q 686 507 686 639 l 686 0 l 582 0 l 553 104 l 547 104 q 445 15 499 43 q 297 -14 392 -14 q 129 41 196 -14 q 63 213 63 96 q 149 386 63 326 q 414 451 235 446 l 542 456 l 542 497 q 504 613 542 579 q 399 647 467 647 q 289 631 342 647 q 188 590 236 614 l 140 697 q 262 744 193 725 q 406 763 331 763 m 440 357 q 263 315 313 351 q 214 211 214 278 q 249 126 214 153 q 339 100 283 100 q 483 149 425 100 q 540 294 540 197 l 540 360 l 440 357 m 478 1064 q 527 995 496 1033 q 592 920 558 957 q 651 858 626 883 l 651 842 l 550 842 q 474 896 514 864 q 397 965 435 928 q 247 842 322 889 l 147 842 l 147 858 q 206 921 174 885 q 269 995 239 957 q 319 1064 300 1033 l 478 1064 z "},"ã":{"ha":797,"x_min":63,"x_max":686,"o":"m 406 763 q 616 701 546 763 q 686 507 686 639 l 686 0 l 582 0 l 553 104 l 547 104 q 445 15 499 43 q 297 -14 392 -14 q 129 41 196 -14 q 63 213 63 96 q 149 386 63 326 q 414 451 235 446 l 542 456 l 542 497 q 504 613 542 579 q 399 647 467 647 q 289 631 342 647 q 188 590 236 614 l 140 697 q 262 744 193 725 q 406 763 331 763 m 440 357 q 263 315 313 351 q 214 211 214 278 q 249 126 214 153 q 339 100 283 100 q 483 149 425 100 q 540 294 540 197 l 540 360 l 440 357 m 138 842 q 189 979 146 931 q 300 1028 232 1028 q 376 1009 339 1028 q 446 971 413 990 q 510 951 479 951 q 583 1029 564 951 l 663 1029 q 611 892 654 940 q 501 843 568 843 q 427 862 464 843 q 356 900 390 881 q 292 919 322 919 q 217 842 235 919 l 138 842 z "},"ä":{"ha":797,"x_min":63,"x_max":686,"o":"m 406 763 q 616 701 546 763 q 686 507 686 639 l 686 0 l 582 0 l 553 104 l 547 104 q 445 15 499 43 q 297 -14 392 -14 q 129 41 196 -14 q 63 213 63 96 q 149 386 63 326 q 414 451 235 446 l 542 456 l 542 497 q 504 613 542 579 q 399 647 467 647 q 289 631 342 647 q 188 590 236 614 l 140 697 q 262 744 193 725 q 406 763 331 763 m 440 357 q 263 315 313 351 q 214 211 214 278 q 249 126 214 153 q 339 100 283 100 q 483 149 425 100 q 540 294 540 197 l 540 360 l 440 357 m 193 947 q 215 1005 193 988 q 267 1022 236 1022 q 319 1005 297 1022 q 342 947 342 988 q 319 891 342 910 q 267 872 297 872 q 215 891 236 872 q 193 947 193 910 m 458 947 q 480 1005 458 988 q 532 1022 501 1022 q 583 1005 561 1022 q 606 947 606 988 q 583 891 606 910 q 532 872 561 872 q 480 891 501 872 q 458 947 458 910 z "},"å":{"ha":797,"x_min":63,"x_max":686,"o":"m 406 763 q 616 701 546 763 q 686 507 686 639 l 686 0 l 582 0 l 553 104 l 547 104 q 445 15 499 43 q 297 -14 392 -14 q 129 41 196 -14 q 63 213 63 96 q 149 386 63 326 q 414 451 235 446 l 542 456 l 542 497 q 504 613 542 579 q 399 647 467 647 q 289 631 342 647 q 188 590 236 614 l 140 697 q 262 744 193 725 q 406 763 331 763 m 440 357 q 263 315 313 351 q 214 211 214 278 q 249 126 214 153 q 339 100 283 100 q 483 149 425 100 q 540 294 540 197 l 540 360 l 440 357 m 397 842 q 283 881 326 842 q 240 993 240 921 q 283 1103 240 1063 q 397 1143 326 1143 q 510 1103 464 1143 q 556 994 556 1064 q 510 882 556 922 q 397 842 465 842 m 397 918 q 450 938 429 918 q 471 993 471 958 q 449 1047 471 1028 q 397 1067 428 1067 q 344 1047 365 1067 q 322 993 322 1028 q 342 938 322 958 q 397 918 361 918 z "},"æ":{"ha":1222,"x_min":63,"x_max":1154,"o":"m 853 763 q 1013 721 944 763 q 1117 603 1081 679 q 1154 426 1154 528 l 1154 343 l 674 343 q 881 106 681 106 q 1006 119 950 106 q 1118 158 1061 132 l 1118 36 q 1006 -1 1063 11 q 875 -14 950 -14 q 707 24 781 -14 q 589 138 633 63 q 474 26 538 65 q 300 -14 410 -14 q 179 10 233 -14 q 94 85 125 35 q 63 213 63 135 q 397 451 63 440 l 524 456 l 524 506 q 485 615 524 583 q 381 647 447 647 q 274 631 326 647 q 174 592 221 615 l 128 697 q 249 744 179 725 q 392 763 319 763 q 532 735 475 763 q 621 651 589 708 q 718 733 660 704 q 853 763 776 763 m 851 649 q 728 599 774 649 q 676 451 683 549 l 1006 451 q 967 594 1006 539 q 851 649 929 649 m 426 357 q 260 315 307 351 q 214 211 214 278 q 247 126 214 153 q 333 100 279 100 q 468 149 414 100 q 522 294 522 197 l 522 360 l 426 357 z "},"ç":{"ha":681,"x_min":72,"x_max":636,"o":"m 417 -14 q 167 78 261 -14 q 72 369 72 171 q 118 594 72 508 q 244 722 164 681 q 428 763 325 763 q 545 749 490 763 q 636 719 600 736 l 592 600 q 509 626 553 615 q 426 638 465 638 q 224 371 224 638 q 274 176 224 243 q 421 110 324 110 q 531 124 483 110 q 619 160 579 138 l 619 32 q 532 -3 579 8 q 417 -14 485 -14 m 542 -186 q 492 -294 542 -256 q 335 -333 442 -333 q 257 -325 288 -333 l 257 -237 q 338 -246 292 -246 q 401 -234 378 -246 q 424 -190 424 -222 q 390 -140 424 -157 q 301 -115 357 -122 l 360 0 l 454 0 l 424 -64 q 506 -105 471 -76 q 542 -186 542 -133 z "},"è":{"ha":794,"x_min":72,"x_max":726,"o":"m 410 763 q 642 672 557 763 q 726 424 726 581 l 726 343 l 224 343 q 284 167 226 228 q 446 106 342 106 q 574 119 518 106 q 690 158 631 132 l 690 36 q 576 -1 633 11 q 440 -14 519 -14 q 248 29 331 -14 q 119 158 165 72 q 72 368 72 243 q 115 582 72 494 q 233 716 157 669 q 410 763 308 763 m 410 649 q 283 597 331 649 q 226 451 235 546 l 579 451 q 537 594 578 539 q 410 649 496 649 m 369 1064 q 411 995 386 1033 q 463 921 436 957 q 511 858 489 885 l 511 842 l 413 842 q 337 906 379 867 q 256 985 294 944 q 199 1050 218 1025 l 199 1064 l 369 1064 z "},"é":{"ha":794,"x_min":72,"x_max":726,"o":"m 410 763 q 642 672 557 763 q 726 424 726 581 l 726 343 l 224 343 q 284 167 226 228 q 446 106 342 106 q 574 119 518 106 q 690 158 631 132 l 690 36 q 576 -1 633 11 q 440 -14 519 -14 q 248 29 331 -14 q 119 158 165 72 q 72 368 72 243 q 115 582 72 494 q 233 716 157 669 q 410 763 308 763 m 410 649 q 283 597 331 649 q 226 451 235 546 l 579 451 q 537 594 578 539 q 410 649 496 649 m 632 1050 q 574 985 611 1025 q 493 906 536 944 q 417 842 450 867 l 319 842 l 319 858 q 367 921 340 885 q 418 995 393 957 q 460 1064 443 1033 l 632 1064 l 632 1050 z "},"ê":{"ha":794,"x_min":72,"x_max":726,"o":"m 410 763 q 642 672 557 763 q 726 424 726 581 l 726 343 l 224 343 q 284 167 226 228 q 446 106 342 106 q 574 119 518 106 q 690 158 631 132 l 690 36 q 576 -1 633 11 q 440 -14 519 -14 q 248 29 331 -14 q 119 158 165 72 q 72 368 72 243 q 115 582 72 494 q 233 716 157 669 q 410 763 308 763 m 410 649 q 283 597 331 649 q 226 451 235 546 l 579 451 q 537 594 578 539 q 410 649 496 649 m 479 1064 q 528 995 497 1033 q 594 920 560 957 q 653 858 628 883 l 653 842 l 551 842 q 476 896 515 864 q 399 965 436 928 q 249 842 324 889 l 149 842 l 149 858 q 208 921 175 885 q 271 995 240 957 q 321 1064 301 1033 l 479 1064 z "},"ë":{"ha":794,"x_min":72,"x_max":726,"o":"m 410 763 q 642 672 557 763 q 726 424 726 581 l 726 343 l 224 343 q 284 167 226 228 q 446 106 342 106 q 574 119 518 106 q 690 158 631 132 l 690 36 q 576 -1 633 11 q 440 -14 519 -14 q 248 29 331 -14 q 119 158 165 72 q 72 368 72 243 q 115 582 72 494 q 233 716 157 669 q 410 763 308 763 m 410 649 q 283 597 331 649 q 226 451 235 546 l 579 451 q 537 594 578 539 q 410 649 496 649 m 194 947 q 216 1005 194 988 q 268 1022 238 1022 q 321 1005 299 1022 q 343 947 343 988 q 321 891 343 910 q 268 872 299 872 q 216 891 238 872 q 194 947 194 910 m 460 947 q 481 1005 460 988 q 533 1022 503 1022 q 585 1005 563 1022 q 607 947 607 988 q 585 891 607 910 q 533 872 563 872 q 481 891 503 872 q 460 947 460 910 z "},"ì":{"ha":378,"x_min":-12,"x_max":300,"o":"m 263 0 l 115 0 l 115 749 l 263 749 l 263 0 m 158 1064 q 200 995 175 1033 q 251 921 225 957 q 300 858 278 885 l 300 842 l 201 842 q 126 906 168 867 q 45 985 83 944 q -12 1050 7 1025 l -12 1064 l 158 1064 z "},"í":{"ha":378,"x_min":108,"x_max":421,"o":"m 263 0 l 115 0 l 115 749 l 263 749 l 263 0 m 421 1050 q 363 985 400 1025 q 282 906 325 944 q 206 842 239 867 l 108 842 l 108 858 q 156 921 129 885 q 207 995 182 957 q 249 1064 232 1033 l 421 1064 l 421 1050 z "},"î":{"ha":378,"x_min":-64,"x_max":440,"o":"m 263 0 l 115 0 l 115 749 l 263 749 l 263 0 m 267 1064 q 316 995 285 1033 q 381 920 347 957 q 440 858 415 883 l 440 842 l 339 842 q 263 896 303 864 q 186 965 224 928 q 36 842 111 889 l -64 842 l -64 858 q -5 921 -37 885 q 58 995 28 957 q 108 1064 89 1033 l 267 1064 z "},"ï":{"ha":378,"x_min":-17,"x_max":396,"o":"m 263 0 l 115 0 l 115 749 l 263 749 l 263 0 m -17 947 q 5 1005 -17 988 q 57 1022 26 1022 q 110 1005 88 1022 q 132 947 132 988 q 110 891 132 910 q 57 872 88 872 q 5 891 26 872 q -17 947 -17 910 m 249 947 q 270 1005 249 988 q 322 1022 292 1022 q 374 1005 351 1022 q 396 947 396 988 q 374 891 396 910 q 322 872 351 872 q 270 891 292 872 q 249 947 249 910 z "},"ð":{"ha":846,"x_min":72,"x_max":775,"o":"m 303 1063 q 394 1017 349 1042 q 478 964 439 992 l 636 1057 l 693 974 l 563 897 q 717 679 658 807 q 775 383 775 551 q 680 87 775 188 q 421 -14 585 -14 q 240 27 319 -14 q 117 144 161 68 q 72 326 72 219 q 161 574 72 485 q 399 663 250 663 q 524 644 471 663 q 607 586 576 625 l 613 589 q 548 721 590 661 q 451 831 506 781 l 279 729 l 221 814 l 367 899 q 249 968 311 935 l 303 1063 m 424 547 q 269 490 317 547 q 222 322 222 432 q 270 163 222 225 q 424 101 318 101 q 577 165 529 101 q 625 353 625 229 q 576 490 625 432 q 424 547 526 547 z "},"ñ":{"ha":875,"x_min":115,"x_max":764,"o":"m 494 763 q 694 697 625 763 q 764 488 764 632 l 764 0 l 618 0 l 618 467 q 464 642 618 642 q 306 574 349 642 q 263 378 263 506 l 263 0 l 115 0 l 115 749 l 232 749 l 253 649 l 261 649 q 360 735 297 707 q 494 763 424 763 m 175 842 q 226 979 183 931 q 338 1028 269 1028 q 413 1009 376 1028 q 483 971 450 990 q 547 951 517 951 q 621 1029 601 951 l 700 1029 q 649 892 692 940 q 539 843 606 843 q 465 862 501 843 q 394 900 428 881 q 329 919 360 919 q 254 842 272 919 l 175 842 z "},"ò":{"ha":846,"x_min":72,"x_max":775,"o":"m 775 375 q 679 88 775 189 q 421 -14 583 -14 q 241 32 319 -14 q 117 165 163 78 q 72 375 72 251 q 167 662 72 561 q 425 763 261 763 q 606 717 528 763 q 730 586 685 672 q 775 375 775 500 m 224 375 q 272 178 224 249 q 424 107 319 107 q 576 178 528 107 q 624 375 624 249 q 575 572 624 503 q 422 640 526 640 q 271 572 318 640 q 224 375 224 503 m 393 1064 q 435 995 410 1033 q 486 921 460 957 q 535 858 513 885 l 535 842 l 436 842 q 360 906 403 867 q 280 985 318 944 q 222 1050 242 1025 l 222 1064 l 393 1064 z "},"ó":{"ha":846,"x_min":72,"x_max":775,"o":"m 775 375 q 679 88 775 189 q 421 -14 583 -14 q 241 32 319 -14 q 117 165 163 78 q 72 375 72 251 q 167 662 72 561 q 425 763 261 763 q 606 717 528 763 q 730 586 685 672 q 775 375 775 500 m 224 375 q 272 178 224 249 q 424 107 319 107 q 576 178 528 107 q 624 375 624 249 q 575 572 624 503 q 422 640 526 640 q 271 572 318 640 q 224 375 224 503 m 656 1050 q 597 985 635 1025 q 517 906 560 944 q 440 842 474 867 l 343 842 l 343 858 q 390 921 364 885 q 442 995 417 957 q 483 1064 467 1033 l 656 1064 l 656 1050 z "},"ô":{"ha":846,"x_min":72,"x_max":775,"o":"m 775 375 q 679 88 775 189 q 421 -14 583 -14 q 241 32 319 -14 q 117 165 163 78 q 72 375 72 251 q 167 662 72 561 q 425 763 261 763 q 606 717 528 763 q 730 586 685 672 q 775 375 775 500 m 224 375 q 272 178 224 249 q 424 107 319 107 q 576 178 528 107 q 624 375 624 249 q 575 572 624 503 q 422 640 526 640 q 271 572 318 640 q 224 375 224 503 m 501 1064 q 551 995 519 1033 q 616 920 582 957 q 675 858 650 883 l 675 842 l 574 842 q 498 896 538 864 q 421 965 458 928 q 271 842 346 889 l 171 842 l 171 858 q 230 921 197 885 q 293 995 263 957 q 343 1064 324 1033 l 501 1064 z "},"õ":{"ha":846,"x_min":72,"x_max":775,"o":"m 775 375 q 679 88 775 189 q 421 -14 583 -14 q 241 32 319 -14 q 117 165 163 78 q 72 375 72 251 q 167 662 72 561 q 425 763 261 763 q 606 717 528 763 q 730 586 685 672 q 775 375 775 500 m 224 375 q 272 178 224 249 q 424 107 319 107 q 576 178 528 107 q 624 375 624 249 q 575 572 624 503 q 422 640 526 640 q 271 572 318 640 q 224 375 224 503 m 161 842 q 213 979 169 931 q 324 1028 256 1028 q 399 1009 363 1028 q 469 971 436 990 q 533 951 503 951 q 607 1029 588 951 l 686 1029 q 635 892 678 940 q 525 843 592 843 q 451 862 488 843 q 380 900 414 881 q 315 919 346 919 q 240 842 258 919 l 161 842 z "},"ö":{"ha":846,"x_min":72,"x_max":775,"o":"m 775 375 q 679 88 775 189 q 421 -14 583 -14 q 241 32 319 -14 q 117 165 163 78 q 72 375 72 251 q 167 662 72 561 q 425 763 261 763 q 606 717 528 763 q 730 586 685 672 q 775 375 775 500 m 224 375 q 272 178 224 249 q 424 107 319 107 q 576 178 528 107 q 624 375 624 249 q 575 572 624 503 q 422 640 526 640 q 271 572 318 640 q 224 375 224 503 m 218 947 q 240 1005 218 988 q 292 1022 261 1022 q 344 1005 322 1022 q 367 947 367 988 q 344 891 367 910 q 292 872 322 872 q 240 891 261 872 q 218 947 218 910 m 483 947 q 505 1005 483 988 q 557 1022 526 1022 q 608 1005 586 1022 q 631 947 631 988 q 608 891 631 910 q 557 872 586 872 q 505 891 526 872 q 483 947 483 910 z "},"÷":{"ha":794,"x_min":67,"x_max":726,"o":"m 396 636 q 337 658 361 636 q 313 726 313 679 q 337 796 313 776 q 396 815 361 815 q 453 796 429 815 q 478 726 478 776 q 453 658 478 679 q 396 636 429 636 m 67 433 l 67 546 l 726 546 l 726 433 l 67 433 m 396 163 q 337 184 361 163 q 313 253 313 206 q 337 322 313 303 q 396 342 361 342 q 453 322 429 342 q 478 253 478 303 q 453 184 478 206 q 396 163 429 163 z "},"ø":{"ha":846,"x_min":72,"x_max":775,"o":"m 775 375 q 679 88 775 189 q 421 -14 583 -14 q 247 28 324 -14 l 196 -47 l 108 11 l 165 93 q 97 214 121 143 q 72 375 72 285 q 167 662 72 561 q 425 763 261 763 q 603 717 524 763 l 653 788 l 740 729 l 685 651 q 751 533 726 601 q 775 375 775 464 m 224 375 q 230 288 224 328 q 251 217 236 249 l 529 613 q 422 640 486 640 q 271 572 318 640 q 224 375 224 503 m 624 375 q 599 525 624 464 l 321 132 q 424 107 363 107 q 576 178 528 107 q 624 375 624 249 z "},"ù":{"ha":875,"x_min":108,"x_max":760,"o":"m 760 749 l 760 0 l 642 0 l 621 99 l 614 99 q 514 13 578 40 q 379 -14 450 -14 q 178 51 247 -14 q 108 258 108 117 l 108 749 l 257 749 l 257 281 q 408 107 257 107 q 568 175 524 107 q 613 369 613 243 l 613 749 l 760 749 m 407 1064 q 449 995 424 1033 q 500 921 474 957 q 549 858 526 885 l 549 842 l 450 842 q 374 906 417 867 q 294 985 332 944 q 236 1050 256 1025 l 236 1064 l 407 1064 z "},"ú":{"ha":875,"x_min":108,"x_max":760,"o":"m 760 749 l 760 0 l 642 0 l 621 99 l 614 99 q 514 13 578 40 q 379 -14 450 -14 q 178 51 247 -14 q 108 258 108 117 l 108 749 l 257 749 l 257 281 q 408 107 257 107 q 568 175 524 107 q 613 369 613 243 l 613 749 l 760 749 m 669 1050 q 611 985 649 1025 q 531 906 574 944 q 454 842 488 867 l 357 842 l 357 858 q 404 921 378 885 q 456 995 431 957 q 497 1064 481 1033 l 669 1064 l 669 1050 z "},"û":{"ha":875,"x_min":108,"x_max":760,"o":"m 760 749 l 760 0 l 642 0 l 621 99 l 614 99 q 514 13 578 40 q 379 -14 450 -14 q 178 51 247 -14 q 108 258 108 117 l 108 749 l 257 749 l 257 281 q 408 107 257 107 q 568 175 524 107 q 613 369 613 243 l 613 749 l 760 749 m 515 1064 q 565 995 533 1033 q 630 920 596 957 q 689 858 664 883 l 689 842 l 588 842 q 512 896 551 864 q 435 965 472 928 q 285 842 360 889 l 185 842 l 185 858 q 244 921 211 885 q 307 995 276 957 q 357 1064 338 1033 l 515 1064 z "},"ü":{"ha":875,"x_min":108,"x_max":760,"o":"m 760 749 l 760 0 l 642 0 l 621 99 l 614 99 q 514 13 578 40 q 379 -14 450 -14 q 178 51 247 -14 q 108 258 108 117 l 108 749 l 257 749 l 257 281 q 408 107 257 107 q 568 175 524 107 q 613 369 613 243 l 613 749 l 760 749 m 231 947 q 252 1005 231 988 q 304 1022 274 1022 q 357 1005 335 1022 q 379 947 379 988 q 357 891 379 910 q 304 872 335 872 q 252 891 274 872 q 231 947 231 910 m 496 947 q 517 1005 496 988 q 569 1022 539 1022 q 621 1005 599 1022 q 643 947 643 988 q 621 891 643 910 q 569 872 599 872 q 517 891 539 872 q 496 947 496 910 z "},"ý":{"ha":732,"x_min":1,"x_max":732,"o":"m 1 749 l 160 749 l 315 324 q 347 230 333 275 q 367 142 360 185 l 372 142 q 394 226 379 178 q 426 325 408 275 l 574 749 l 732 749 l 411 -101 q 303 -272 371 -210 q 128 -333 236 -333 q 68 -330 93 -333 q 25 -322 43 -326 l 25 -206 q 61 -211 39 -208 q 107 -214 83 -214 q 210 -177 171 -214 q 271 -81 249 -140 l 301 0 l 1 749 m 599 1050 q 540 985 578 1025 q 460 906 503 944 q 383 842 417 867 l 286 842 l 286 858 q 333 921 307 885 q 385 995 360 957 q 426 1064 410 1033 l 599 1064 l 599 1050 z "},"þ":{"ha":861,"x_min":115,"x_max":789,"o":"m 789 375 q 706 85 789 185 q 489 -14 624 -14 q 349 17 404 -14 q 263 90 294 47 l 254 90 q 260 35 257 72 q 263 -24 263 -1 l 263 -333 l 115 -333 l 115 1056 l 263 1056 l 263 758 q 260 701 263 735 q 257 649 258 668 l 264 649 q 349 729 296 696 q 489 763 403 763 q 706 665 624 763 q 789 375 789 567 m 638 378 q 593 576 638 510 q 456 642 549 642 q 307 582 350 642 q 263 401 264 522 l 263 376 q 304 177 263 247 q 457 107 346 107 q 594 177 550 107 q 638 378 638 247 z "},"ÿ":{"ha":732,"x_min":1,"x_max":732,"o":"m 1 749 l 160 749 l 315 324 q 347 230 333 275 q 367 142 360 185 l 372 142 q 394 226 379 178 q 426 325 408 275 l 574 749 l 732 749 l 411 -101 q 303 -272 371 -210 q 128 -333 236 -333 q 68 -330 93 -333 q 25 -322 43 -326 l 25 -206 q 61 -211 39 -208 q 107 -214 83 -214 q 210 -177 171 -214 q 271 -81 249 -140 l 301 0 l 1 749 m 160 947 q 181 1005 160 988 q 233 1022 203 1022 q 286 1005 264 1022 q 308 947 308 988 q 286 891 308 910 q 233 872 264 872 q 181 891 203 872 q 160 947 160 910 m 425 947 q 447 1005 425 988 q 499 1022 468 1022 q 550 1005 528 1022 q 572 947 572 988 q 550 891 572 910 q 499 872 528 872 q 447 891 468 872 q 425 947 425 910 z "},"Ā":{"ha":908,"x_min":0,"x_max":907,"o":"m 750 0 l 644 286 l 261 286 l 156 0 l 0 0 l 376 996 l 532 996 l 907 0 l 750 0 m 503 696 q 488 742 499 711 q 468 806 478 772 q 453 860 458 839 q 428 768 442 817 q 406 696 414 719 l 306 417 l 603 417 l 503 696 m 665 1196 l 665 1085 l 239 1085 l 239 1196 l 665 1196 z "},"ā":{"ha":797,"x_min":63,"x_max":686,"o":"m 406 763 q 616 701 546 763 q 686 507 686 639 l 686 0 l 582 0 l 553 104 l 547 104 q 445 15 499 43 q 297 -14 392 -14 q 129 41 196 -14 q 63 213 63 96 q 149 386 63 326 q 414 451 235 446 l 542 456 l 542 497 q 504 613 542 579 q 399 647 467 647 q 289 631 342 647 q 188 590 236 614 l 140 697 q 262 744 193 725 q 406 763 331 763 m 440 357 q 263 315 313 351 q 214 211 214 278 q 249 126 214 153 q 339 100 283 100 q 483 149 425 100 q 540 294 540 197 l 540 360 l 440 357 m 611 953 l 611 842 l 185 842 l 185 953 l 611 953 z "},"Ă":{"ha":908,"x_min":0,"x_max":907,"o":"m 750 0 l 644 286 l 261 286 l 156 0 l 0 0 l 376 996 l 532 996 l 907 0 l 750 0 m 503 696 q 488 742 499 711 q 468 806 478 772 q 453 860 458 839 q 428 768 442 817 q 406 696 414 719 l 306 417 l 603 417 l 503 696 m 683 1283 q 614 1140 675 1194 q 449 1085 553 1085 q 283 1139 340 1085 q 221 1283 226 1193 l 308 1283 q 351 1212 314 1226 q 451 1197 389 1197 q 546 1213 504 1197 q 594 1283 588 1229 l 683 1283 z "},"ă":{"ha":797,"x_min":63,"x_max":686,"o":"m 406 763 q 616 701 546 763 q 686 507 686 639 l 686 0 l 582 0 l 553 104 l 547 104 q 445 15 499 43 q 297 -14 392 -14 q 129 41 196 -14 q 63 213 63 96 q 149 386 63 326 q 414 451 235 446 l 542 456 l 542 497 q 504 613 542 579 q 399 647 467 647 q 289 631 342 647 q 188 590 236 614 l 140 697 q 262 744 193 725 q 406 763 331 763 m 440 357 q 263 315 313 351 q 214 211 214 278 q 249 126 214 153 q 339 100 283 100 q 483 149 425 100 q 540 294 540 197 l 540 360 l 440 357 m 631 1040 q 561 897 622 951 q 396 842 500 842 q 231 896 288 842 q 168 1040 174 950 l 256 1040 q 299 969 261 983 q 399 954 336 954 q 493 970 451 954 q 542 1040 535 986 l 631 1040 z "},"Ą":{"ha":908,"x_min":0,"x_max":907,"o":"m 750 0 l 644 286 l 261 286 l 156 0 l 0 0 l 376 996 l 532 996 l 907 0 l 750 0 m 503 696 q 488 742 499 711 q 468 806 478 772 q 453 860 458 839 q 428 768 442 817 q 406 696 414 719 l 306 417 l 603 417 l 503 696 m 769 -160 q 785 -204 769 -189 q 829 -219 801 -219 q 870 -216 853 -219 q 900 -210 888 -212 l 900 -300 q 858 -310 879 -306 q 808 -314 836 -314 q 694 -276 732 -314 q 657 -176 657 -239 q 677 -99 657 -136 q 728 -30 697 -61 q 792 22 760 1 l 865 0 q 794 -81 819 -44 q 769 -160 769 -118 z "},"ą":{"ha":797,"x_min":63,"x_max":717,"o":"m 406 763 q 616 701 546 763 q 686 507 686 639 l 686 0 l 582 0 l 553 104 l 547 104 q 445 15 499 43 q 297 -14 392 -14 q 129 41 196 -14 q 63 213 63 96 q 149 386 63 326 q 414 451 235 446 l 542 456 l 542 497 q 504 613 542 579 q 399 647 467 647 q 289 631 342 647 q 188 590 236 614 l 140 697 q 262 744 193 725 q 406 763 331 763 m 440 357 q 263 315 313 351 q 214 211 214 278 q 249 126 214 153 q 339 100 283 100 q 483 149 425 100 q 540 294 540 197 l 540 360 l 440 357 m 586 -160 q 602 -204 586 -189 q 646 -219 618 -219 q 687 -216 669 -219 q 717 -210 704 -212 l 717 -300 q 674 -310 696 -306 q 625 -314 653 -314 q 511 -276 549 -314 q 474 -176 474 -239 q 494 -99 474 -136 q 545 -30 514 -61 q 608 22 576 1 l 682 0 q 611 -81 636 -44 q 586 -160 586 -118 z "},"Ć":{"ha":879,"x_min":83,"x_max":835,"o":"m 556 876 q 324 774 407 876 q 240 494 240 672 q 318 217 240 318 q 554 115 396 115 q 677 127 618 115 q 797 158 736 139 l 797 29 q 678 -3 739 7 q 536 -14 618 -14 q 283 49 383 -14 q 133 227 183 113 q 83 496 83 342 q 138 761 83 646 q 299 941 193 876 q 557 1006 404 1006 q 703 990 632 1006 q 835 944 775 974 l 779 819 q 674 859 731 842 q 556 876 618 876 m 758 1293 q 700 1228 738 1268 q 619 1149 663 1188 q 543 1085 576 1110 l 446 1085 l 446 1101 q 493 1164 467 1128 q 544 1238 519 1200 q 586 1307 569 1276 l 758 1307 l 758 1293 z "},"ć":{"ha":681,"x_min":72,"x_max":636,"o":"m 417 -14 q 167 78 261 -14 q 72 369 72 171 q 118 594 72 508 q 244 722 164 681 q 428 763 325 763 q 545 749 490 763 q 636 719 600 736 l 592 600 q 509 626 553 615 q 426 638 465 638 q 224 371 224 638 q 274 176 224 243 q 421 110 324 110 q 531 124 483 110 q 619 160 579 138 l 619 32 q 532 -3 579 8 q 417 -14 485 -14 m 628 1050 q 569 985 607 1025 q 489 906 532 944 q 413 842 446 867 l 315 842 l 315 858 q 363 921 336 885 q 414 995 389 957 q 456 1064 439 1033 l 628 1064 l 628 1050 z "},"Ĉ":{"ha":879,"x_min":83,"x_max":835,"o":"m 556 876 q 324 774 407 876 q 240 494 240 672 q 318 217 240 318 q 554 115 396 115 q 677 127 618 115 q 797 158 736 139 l 797 29 q 678 -3 739 7 q 536 -14 618 -14 q 283 49 383 -14 q 133 227 183 113 q 83 496 83 342 q 138 761 83 646 q 299 941 193 876 q 557 1006 404 1006 q 703 990 632 1006 q 835 944 775 974 l 779 819 q 674 859 731 842 q 556 876 618 876 m 604 1307 q 653 1238 622 1276 q 719 1163 685 1200 q 778 1101 753 1126 l 778 1085 l 676 1085 q 601 1139 640 1107 q 524 1208 561 1171 q 374 1085 449 1132 l 274 1085 l 274 1101 q 333 1164 300 1128 q 396 1238 365 1200 q 446 1307 426 1276 l 604 1307 z "},"ĉ":{"ha":681,"x_min":72,"x_max":647,"o":"m 417 -14 q 167 78 261 -14 q 72 369 72 171 q 118 594 72 508 q 244 722 164 681 q 428 763 325 763 q 545 749 490 763 q 636 719 600 736 l 592 600 q 509 626 553 615 q 426 638 465 638 q 224 371 224 638 q 274 176 224 243 q 421 110 324 110 q 531 124 483 110 q 619 160 579 138 l 619 32 q 532 -3 579 8 q 417 -14 485 -14 m 474 1064 q 523 995 492 1033 q 588 920 554 957 q 647 858 622 883 l 647 842 l 546 842 q 470 896 510 864 q 393 965 431 928 q 243 842 318 889 l 143 842 l 143 858 q 202 921 169 885 q 265 995 235 957 q 315 1064 296 1033 l 474 1064 z "},"Ċ":{"ha":879,"x_min":83,"x_max":835,"o":"m 556 876 q 324 774 407 876 q 240 494 240 672 q 318 217 240 318 q 554 115 396 115 q 677 127 618 115 q 797 158 736 139 l 797 29 q 678 -3 739 7 q 536 -14 618 -14 q 283 49 383 -14 q 133 227 183 113 q 83 496 83 342 q 138 761 83 646 q 299 941 193 876 q 557 1006 404 1006 q 703 990 632 1006 q 835 944 775 974 l 779 819 q 674 859 731 842 q 556 876 618 876 m 528 1276 q 585 1257 561 1276 q 610 1192 610 1238 q 585 1127 610 1147 q 528 1107 561 1107 q 467 1127 492 1107 q 443 1192 443 1147 q 467 1257 443 1238 q 528 1276 492 1276 z "},"ċ":{"ha":681,"x_min":72,"x_max":636,"o":"m 417 -14 q 167 78 261 -14 q 72 369 72 171 q 118 594 72 508 q 244 722 164 681 q 428 763 325 763 q 545 749 490 763 q 636 719 600 736 l 592 600 q 509 626 553 615 q 426 638 465 638 q 224 371 224 638 q 274 176 224 243 q 421 110 324 110 q 531 124 483 110 q 619 160 579 138 l 619 32 q 532 -3 579 8 q 417 -14 485 -14 m 397 1033 q 455 1014 431 1033 q 479 949 479 994 q 455 884 479 904 q 397 864 431 864 q 337 884 361 864 q 313 949 313 904 q 337 1014 313 994 q 397 1033 361 1033 z "},"Č":{"ha":879,"x_min":83,"x_max":835,"o":"m 556 876 q 324 774 407 876 q 240 494 240 672 q 318 217 240 318 q 554 115 396 115 q 677 127 618 115 q 797 158 736 139 l 797 29 q 678 -3 739 7 q 536 -14 618 -14 q 283 49 383 -14 q 133 227 183 113 q 83 496 83 342 q 138 761 83 646 q 299 941 193 876 q 557 1006 404 1006 q 703 990 632 1006 q 835 944 775 974 l 779 819 q 674 859 731 842 q 556 876 618 876 m 446 1085 q 396 1154 426 1117 q 332 1227 365 1192 q 274 1289 299 1263 l 274 1307 l 374 1307 q 449 1251 410 1283 q 524 1182 489 1219 q 601 1251 561 1219 q 676 1307 640 1283 l 778 1307 l 778 1289 q 719 1227 753 1263 q 653 1154 685 1192 q 604 1085 622 1117 l 446 1085 z "},"č":{"ha":681,"x_min":72,"x_max":647,"o":"m 417 -14 q 167 78 261 -14 q 72 369 72 171 q 118 594 72 508 q 244 722 164 681 q 428 763 325 763 q 545 749 490 763 q 636 719 600 736 l 592 600 q 509 626 553 615 q 426 638 465 638 q 224 371 224 638 q 274 176 224 243 q 421 110 324 110 q 531 124 483 110 q 619 160 579 138 l 619 32 q 532 -3 579 8 q 417 -14 485 -14 m 315 842 q 265 911 296 874 q 201 984 235 949 q 143 1046 168 1019 l 143 1064 l 243 1064 q 319 1008 279 1040 q 393 939 358 976 q 470 1008 431 976 q 546 1064 510 1040 l 647 1064 l 647 1046 q 588 984 622 1019 q 523 911 554 949 q 474 842 492 874 l 315 842 z "},"Ď":{"ha":1018,"x_min":132,"x_max":935,"o":"m 935 506 q 797 127 935 254 q 410 0 658 0 l 132 0 l 132 992 l 439 992 q 701 936 590 992 q 874 773 813 881 q 935 506 935 665 m 778 501 q 687 777 778 689 q 429 865 596 865 l 282 865 l 282 126 l 403 126 q 778 501 778 126 m 425 1085 q 375 1154 406 1117 q 311 1227 344 1192 q 253 1289 278 1263 l 253 1307 l 353 1307 q 428 1251 389 1283 q 503 1182 468 1219 q 580 1251 540 1219 q 656 1307 619 1283 l 757 1307 l 757 1289 q 698 1227 732 1263 q 633 1154 664 1192 q 583 1085 601 1117 l 425 1085 z "},"ď":{"ha":861,"x_min":72,"x_max":983,"o":"m 983 1043 q 942 942 971 1003 q 881 833 913 882 l 797 833 l 797 850 q 824 951 811 890 q 842 1056 838 1011 l 983 1056 l 983 1043 m 372 -14 q 155 83 238 -14 q 72 372 72 181 q 156 664 72 565 q 375 763 239 763 q 514 731 460 763 q 601 653 568 699 l 610 653 q 603 708 607 671 q 599 775 599 746 l 599 1056 l 746 1056 l 746 0 l 631 0 l 606 100 l 599 100 q 513 19 567 51 q 372 -14 458 -14 m 407 107 q 560 167 515 107 q 604 349 604 228 l 604 371 q 562 572 604 501 q 406 642 519 642 q 269 569 315 642 q 224 369 224 496 q 269 175 224 243 q 407 107 315 107 z "},"Đ":{"ha":1018,"x_min":39,"x_max":935,"o":"m 439 992 q 701 936 590 992 q 874 773 813 881 q 935 506 935 665 q 796 127 935 254 q 408 0 657 0 l 139 0 l 139 426 l 39 426 l 39 554 l 139 554 l 139 992 l 439 992 m 429 865 l 289 865 l 289 554 l 511 554 l 511 426 l 289 426 l 289 126 l 403 126 q 778 501 778 126 q 686 777 778 689 q 429 865 594 865 z "},"đ":{"ha":869,"x_min":72,"x_max":851,"o":"m 372 -14 q 154 82 236 -14 q 72 365 72 178 q 156 652 72 557 q 374 747 239 747 q 514 715 460 747 q 601 638 568 683 l 610 638 q 602 697 606 658 q 599 761 599 736 l 599 832 l 328 832 l 328 936 l 599 936 l 599 1056 l 746 1056 l 746 936 l 851 936 l 851 832 l 746 832 l 746 0 l 629 0 l 604 100 l 599 100 q 511 19 565 51 q 372 -14 457 -14 m 408 107 q 560 165 515 107 q 604 342 604 224 l 604 364 q 562 559 604 492 q 406 626 519 626 q 269 556 315 626 q 224 363 224 486 q 270 173 224 239 q 408 107 317 107 z "},"Ē":{"ha":774,"x_min":132,"x_max":690,"o":"m 690 0 l 132 0 l 132 992 l 690 992 l 690 864 l 282 864 l 282 581 l 665 581 l 665 454 l 282 454 l 282 129 l 690 129 l 690 0 m 635 1196 l 635 1085 l 208 1085 l 208 1196 l 635 1196 z "},"ē":{"ha":794,"x_min":72,"x_max":726,"o":"m 410 763 q 642 672 557 763 q 726 424 726 581 l 726 343 l 224 343 q 284 167 226 228 q 446 106 342 106 q 574 119 518 106 q 690 158 631 132 l 690 36 q 576 -1 633 11 q 440 -14 519 -14 q 248 29 331 -14 q 119 158 165 72 q 72 368 72 243 q 115 582 72 494 q 233 716 157 669 q 410 763 308 763 m 410 649 q 283 597 331 649 q 226 451 235 546 l 579 451 q 537 594 578 539 q 410 649 496 649 m 613 953 l 613 842 l 186 842 l 186 953 l 613 953 z "},"Ĕ":{"ha":774,"x_min":132,"x_max":690,"o":"m 690 0 l 132 0 l 132 992 l 690 992 l 690 864 l 282 864 l 282 581 l 665 581 l 665 454 l 282 454 l 282 129 l 690 129 l 690 0 m 653 1283 q 583 1140 644 1194 q 418 1085 522 1085 q 253 1139 310 1085 q 190 1283 196 1193 l 278 1283 q 321 1212 283 1226 q 421 1197 358 1197 q 515 1213 474 1197 q 564 1283 557 1229 l 653 1283 z "},"ĕ":{"ha":794,"x_min":72,"x_max":726,"o":"m 410 763 q 642 672 557 763 q 726 424 726 581 l 726 343 l 224 343 q 284 167 226 228 q 446 106 342 106 q 574 119 518 106 q 690 158 631 132 l 690 36 q 576 -1 633 11 q 440 -14 519 -14 q 248 29 331 -14 q 119 158 165 72 q 72 368 72 243 q 115 582 72 494 q 233 716 157 669 q 410 763 308 763 m 410 649 q 283 597 331 649 q 226 451 235 546 l 579 451 q 537 594 578 539 q 410 649 496 649 m 632 1040 q 563 897 624 951 q 397 842 501 842 q 232 896 289 842 q 169 1040 175 950 l 257 1040 q 300 969 263 983 q 400 954 338 954 q 494 970 453 954 q 543 1040 536 986 l 632 1040 z "},"Ė":{"ha":774,"x_min":132,"x_max":690,"o":"m 690 0 l 132 0 l 132 992 l 690 992 l 690 864 l 282 864 l 282 581 l 665 581 l 665 454 l 282 454 l 282 129 l 690 129 l 690 0 m 424 1276 q 481 1257 457 1276 q 506 1192 506 1238 q 481 1127 506 1147 q 424 1107 457 1107 q 363 1127 388 1107 q 339 1192 339 1147 q 363 1257 339 1238 q 424 1276 388 1276 z "},"ė":{"ha":794,"x_min":72,"x_max":726,"o":"m 410 763 q 642 672 557 763 q 726 424 726 581 l 726 343 l 224 343 q 284 167 226 228 q 446 106 342 106 q 574 119 518 106 q 690 158 631 132 l 690 36 q 576 -1 633 11 q 440 -14 519 -14 q 248 29 331 -14 q 119 158 165 72 q 72 368 72 243 q 115 582 72 494 q 233 716 157 669 q 410 763 308 763 m 410 649 q 283 597 331 649 q 226 451 235 546 l 579 451 q 537 594 578 539 q 410 649 496 649 m 401 1033 q 459 1014 435 1033 q 483 949 483 994 q 459 884 483 904 q 401 864 435 864 q 341 884 365 864 q 317 949 317 904 q 341 1014 317 994 q 401 1033 365 1033 z "},"Ę":{"ha":774,"x_min":132,"x_max":690,"o":"m 690 0 l 132 0 l 132 992 l 690 992 l 690 864 l 282 864 l 282 581 l 665 581 l 665 454 l 282 454 l 282 129 l 690 129 l 690 0 m 556 -160 q 572 -204 556 -189 q 615 -219 588 -219 q 656 -216 639 -219 q 686 -210 674 -212 l 686 -300 q 644 -310 665 -306 q 594 -314 622 -314 q 481 -276 518 -314 q 443 -176 443 -239 q 463 -99 443 -136 q 515 -30 483 -61 q 578 22 546 1 l 651 0 q 581 -81 606 -44 q 556 -160 556 -118 z "},"ę":{"ha":794,"x_min":72,"x_max":726,"o":"m 550 -160 q 566 -204 550 -189 q 610 -219 582 -219 q 651 -216 633 -219 q 681 -210 668 -212 l 681 -300 q 638 -310 660 -306 q 589 -314 617 -314 q 475 -276 513 -314 q 438 -176 438 -239 q 466 -85 438 -129 q 532 -8 494 -42 q 440 -14 490 -14 q 248 29 331 -14 q 119 158 165 72 q 72 368 72 243 q 115 582 72 494 q 233 716 157 669 q 410 763 308 763 q 642 672 557 763 q 726 424 726 581 l 726 343 l 224 343 q 284 167 226 228 q 446 106 342 106 q 574 119 518 106 q 690 158 631 132 l 690 36 q 578 -75 607 -32 q 550 -160 550 -118 m 410 649 q 283 597 331 649 q 226 451 235 546 l 579 451 q 537 594 578 539 q 410 649 496 649 z "},"Ě":{"ha":774,"x_min":132,"x_max":690,"o":"m 690 0 l 132 0 l 132 992 l 690 992 l 690 864 l 282 864 l 282 581 l 665 581 l 665 454 l 282 454 l 282 129 l 690 129 l 690 0 m 342 1085 q 292 1154 322 1117 q 228 1227 261 1192 q 169 1289 194 1263 l 169 1307 l 269 1307 q 345 1251 306 1283 q 419 1182 385 1219 q 497 1251 457 1219 q 572 1307 536 1283 l 674 1307 l 674 1289 q 615 1227 649 1263 q 549 1154 581 1192 q 500 1085 518 1117 l 342 1085 z "},"ě":{"ha":794,"x_min":72,"x_max":726,"o":"m 410 763 q 642 672 557 763 q 726 424 726 581 l 726 343 l 224 343 q 284 167 226 228 q 446 106 342 106 q 574 119 518 106 q 690 158 631 132 l 690 36 q 576 -1 633 11 q 440 -14 519 -14 q 248 29 331 -14 q 119 158 165 72 q 72 368 72 243 q 115 582 72 494 q 233 716 157 669 q 410 763 308 763 m 410 649 q 283 597 331 649 q 226 451 235 546 l 579 451 q 537 594 578 539 q 410 649 496 649 m 321 842 q 271 911 301 874 q 207 984 240 949 q 149 1046 174 1019 l 149 1064 l 249 1064 q 324 1008 285 1040 q 399 939 364 976 q 476 1008 436 976 q 551 1064 515 1040 l 653 1064 l 653 1046 q 594 984 628 1019 q 528 911 560 949 q 479 842 497 874 l 321 842 z "},"Ĝ":{"ha":1010,"x_min":83,"x_max":904,"o":"m 546 533 l 904 533 l 904 39 q 742 -1 825 13 q 554 -14 660 -14 q 205 122 326 -14 q 83 496 83 257 q 144 766 83 651 q 319 943 204 881 q 599 1006 435 1006 q 756 990 681 1006 q 894 946 831 974 l 840 821 q 726 860 789 843 q 593 876 663 876 q 333 774 428 876 q 239 494 239 671 q 274 297 239 382 q 383 163 308 211 q 579 114 458 114 q 680 120 639 114 q 756 135 721 126 l 756 404 l 546 404 l 546 533 m 639 1307 q 688 1238 657 1276 q 753 1163 719 1200 q 813 1101 788 1126 l 813 1085 l 711 1085 q 635 1139 675 1107 q 558 1208 596 1171 q 408 1085 483 1132 l 308 1085 l 308 1101 q 367 1164 335 1128 q 431 1238 400 1200 q 481 1307 461 1276 l 639 1307 z "},"ĝ":{"ha":861,"x_min":72,"x_max":746,"o":"m 374 763 q 603 650 522 763 l 610 650 l 626 749 l 746 749 l 746 -10 q 660 -251 746 -169 q 400 -333 575 -333 q 251 -322 318 -333 q 126 -287 183 -311 l 126 -158 q 408 -217 246 -217 q 550 -165 500 -217 q 600 -18 600 -112 l 600 7 q 601 54 600 25 q 604 99 603 83 l 599 99 q 504 13 561 40 q 374 -14 447 -14 q 152 88 232 -14 q 72 372 72 190 q 152 658 72 553 q 374 763 232 763 m 404 640 q 270 571 317 640 q 224 371 224 501 q 270 172 224 240 q 407 104 317 104 q 558 160 510 104 q 606 344 606 217 l 606 372 q 557 578 606 515 q 404 640 508 640 m 497 1064 q 547 995 515 1033 q 612 920 578 957 q 671 858 646 883 l 671 842 l 569 842 q 494 896 533 864 q 417 965 454 928 q 267 842 342 889 l 167 842 l 167 858 q 226 921 193 885 q 289 995 258 957 q 339 1064 319 1033 l 497 1064 z "},"Ğ":{"ha":1010,"x_min":83,"x_max":904,"o":"m 546 533 l 904 533 l 904 39 q 742 -1 825 13 q 554 -14 660 -14 q 205 122 326 -14 q 83 496 83 257 q 144 766 83 651 q 319 943 204 881 q 599 1006 435 1006 q 756 990 681 1006 q 894 946 831 974 l 840 821 q 726 860 789 843 q 593 876 663 876 q 333 774 428 876 q 239 494 239 671 q 274 297 239 382 q 383 163 308 211 q 579 114 458 114 q 680 120 639 114 q 756 135 721 126 l 756 404 l 546 404 l 546 533 m 792 1283 q 722 1140 783 1194 q 557 1085 661 1085 q 392 1139 449 1085 q 329 1283 335 1193 l 417 1283 q 460 1212 422 1226 q 560 1197 497 1197 q 654 1213 613 1197 q 703 1283 696 1229 l 792 1283 z "},"ğ":{"ha":861,"x_min":72,"x_max":746,"o":"m 374 763 q 603 650 522 763 l 610 650 l 626 749 l 746 749 l 746 -10 q 660 -251 746 -169 q 400 -333 575 -333 q 251 -322 318 -333 q 126 -287 183 -311 l 126 -158 q 408 -217 246 -217 q 550 -165 500 -217 q 600 -18 600 -112 l 600 7 q 601 54 600 25 q 604 99 603 83 l 599 99 q 504 13 561 40 q 374 -14 447 -14 q 152 88 232 -14 q 72 372 72 190 q 152 658 72 553 q 374 763 232 763 m 404 640 q 270 571 317 640 q 224 371 224 501 q 270 172 224 240 q 407 104 317 104 q 558 160 510 104 q 606 344 606 217 l 606 372 q 557 578 606 515 q 404 640 508 640 m 650 1040 q 581 897 642 951 q 415 842 519 842 q 250 896 307 842 q 188 1040 193 950 l 275 1040 q 318 969 281 983 q 418 954 356 954 q 513 970 471 954 q 561 1040 554 986 l 650 1040 z "},"Ġ":{"ha":1010,"x_min":83,"x_max":904,"o":"m 546 533 l 904 533 l 904 39 q 742 -1 825 13 q 554 -14 660 -14 q 205 122 326 -14 q 83 496 83 257 q 144 766 83 651 q 319 943 204 881 q 599 1006 435 1006 q 756 990 681 1006 q 894 946 831 974 l 840 821 q 726 860 789 843 q 593 876 663 876 q 333 774 428 876 q 239 494 239 671 q 274 297 239 382 q 383 163 308 211 q 579 114 458 114 q 680 120 639 114 q 756 135 721 126 l 756 404 l 546 404 l 546 533 m 563 1276 q 620 1257 596 1276 q 644 1192 644 1238 q 620 1127 644 1147 q 563 1107 596 1107 q 502 1127 526 1107 q 478 1192 478 1147 q 502 1257 478 1238 q 563 1276 526 1276 z "},"ġ":{"ha":861,"x_min":72,"x_max":746,"o":"m 374 763 q 603 650 522 763 l 610 650 l 626 749 l 746 749 l 746 -10 q 660 -251 746 -169 q 400 -333 575 -333 q 251 -322 318 -333 q 126 -287 183 -311 l 126 -158 q 408 -217 246 -217 q 550 -165 500 -217 q 600 -18 600 -112 l 600 7 q 601 54 600 25 q 604 99 603 83 l 599 99 q 504 13 561 40 q 374 -14 447 -14 q 152 88 232 -14 q 72 372 72 190 q 152 658 72 553 q 374 763 232 763 m 404 640 q 270 571 317 640 q 224 371 224 501 q 270 172 224 240 q 407 104 317 104 q 558 160 510 104 q 606 344 606 217 l 606 372 q 557 578 606 515 q 404 640 508 640 m 421 1033 q 478 1014 454 1033 q 503 949 503 994 q 478 884 503 904 q 421 864 454 864 q 360 884 385 864 q 336 949 336 904 q 360 1014 336 994 q 421 1033 385 1033 z "},"Ģ":{"ha":1010,"x_min":83,"x_max":904,"o":"m 546 533 l 904 533 l 904 39 q 742 -1 825 13 q 554 -14 660 -14 q 205 122 326 -14 q 83 496 83 257 q 144 766 83 651 q 319 943 204 881 q 599 1006 435 1006 q 756 990 681 1006 q 894 946 831 974 l 840 821 q 726 860 789 843 q 593 876 663 876 q 333 774 428 876 q 239 494 239 671 q 274 297 239 382 q 383 163 308 211 q 579 114 458 114 q 680 120 639 114 q 756 135 721 126 l 756 404 l 546 404 l 546 533 m 650 -97 q 606 -199 638 -137 q 539 -307 575 -260 l 456 -307 l 456 -290 q 476 -228 465 -265 q 496 -153 488 -192 q 508 -85 504 -114 l 650 -85 l 650 -97 z "},"ģ":{"ha":861,"x_min":72,"x_max":746,"o":"m 517 1047 q 495 985 506 1022 q 476 910 485 949 q 463 842 467 872 l 321 842 l 321 854 q 365 955 335 894 q 432 1064 396 1015 l 517 1064 l 517 1047 m 374 763 q 603 650 522 763 l 610 650 l 626 749 l 746 749 l 746 -10 q 660 -251 746 -169 q 400 -333 575 -333 q 251 -322 318 -333 q 126 -287 183 -311 l 126 -158 q 408 -217 246 -217 q 550 -165 500 -217 q 600 -18 600 -112 l 600 7 q 601 54 600 25 q 604 99 603 83 l 599 99 q 504 13 561 40 q 374 -14 447 -14 q 152 88 232 -14 q 72 372 72 190 q 152 658 72 553 q 374 763 232 763 m 404 640 q 270 571 317 640 q 224 371 224 501 q 270 172 224 240 q 407 104 317 104 q 558 160 510 104 q 606 344 606 217 l 606 372 q 557 578 606 515 q 404 640 508 640 z "},"Ĥ":{"ha":1039,"x_min":132,"x_max":906,"o":"m 906 0 l 756 0 l 756 453 l 282 453 l 282 0 l 132 0 l 132 992 l 282 992 l 282 581 l 756 581 l 756 992 l 906 992 l 906 0 m 599 1307 q 648 1238 617 1276 q 713 1163 679 1200 q 772 1101 747 1126 l 772 1085 l 671 1085 q 595 1139 635 1107 q 518 1208 556 1171 q 368 1085 443 1132 l 268 1085 l 268 1101 q 327 1164 294 1128 q 390 1238 360 1200 q 440 1307 421 1276 l 599 1307 z "},"ĥ":{"ha":875,"x_min":-61,"x_max":764,"o":"m 263 774 q 260 703 263 738 q 254 647 257 669 l 264 647 q 360 733 300 706 q 492 761 421 761 q 694 696 624 761 q 764 488 764 631 l 764 0 l 618 0 l 618 467 q 464 642 618 642 q 306 573 349 642 q 263 376 263 504 l 263 0 l 115 0 l 115 1056 l 263 1056 l 263 774 m 269 1371 q 319 1302 288 1340 q 384 1227 350 1264 q 443 1165 418 1190 l 443 1149 l 342 1149 q 266 1203 306 1171 q 189 1272 226 1235 q 39 1149 114 1196 l -61 1149 l -61 1165 q -2 1228 -35 1192 q 61 1302 31 1264 q 111 1371 92 1340 l 269 1371 z "},"Ħ":{"ha":1039,"x_min":0,"x_max":1038,"o":"m 132 0 l 132 726 l 0 726 l 0 836 l 132 836 l 132 992 l 282 992 l 282 836 l 756 836 l 756 992 l 906 992 l 906 836 l 1038 836 l 1038 726 l 906 726 l 906 0 l 756 0 l 756 453 l 282 453 l 282 0 l 132 0 m 282 581 l 756 581 l 756 726 l 282 726 l 282 581 z "},"ħ":{"ha":875,"x_min":10,"x_max":764,"o":"m 263 1056 l 263 935 l 533 935 l 533 831 l 263 831 l 263 742 q 260 672 263 706 q 254 617 257 638 l 264 617 q 360 702 300 674 q 493 731 421 731 q 694 665 625 731 q 764 456 764 600 l 764 0 l 618 0 l 618 435 q 464 610 618 610 q 306 542 349 610 q 263 346 263 474 l 263 0 l 115 0 l 115 831 l 10 831 l 10 935 l 115 935 l 115 1056 l 263 1056 z "},"Ĩ":{"ha":492,"x_min":-15,"x_max":510,"o":"m 438 0 l 53 0 l 53 86 l 171 121 l 171 869 l 53 906 l 53 992 l 438 992 l 438 906 l 321 869 l 321 121 l 438 86 l 438 0 m -15 1085 q 36 1222 -7 1174 q 147 1271 79 1271 q 223 1252 186 1271 q 293 1214 260 1233 q 357 1194 326 1194 q 431 1272 411 1194 l 510 1272 q 458 1135 501 1183 q 349 1086 415 1086 q 274 1105 311 1086 q 203 1143 238 1124 q 139 1163 169 1163 q 64 1085 82 1163 l -15 1085 z "},"ĩ":{"ha":378,"x_min":-74,"x_max":451,"o":"m 263 0 l 115 0 l 115 749 l 263 749 l 263 0 m -74 842 q -22 979 -65 931 q 89 1028 21 1028 q 165 1009 128 1028 q 235 971 201 990 q 299 951 268 951 q 372 1029 353 951 l 451 1029 q 400 892 443 940 q 290 843 357 843 q 216 862 253 843 q 145 900 179 881 q 81 919 111 919 q 6 842 24 919 l -74 842 z "},"Ī":{"ha":492,"x_min":32,"x_max":458,"o":"m 438 0 l 53 0 l 53 86 l 171 121 l 171 869 l 53 906 l 53 992 l 438 992 l 438 906 l 321 869 l 321 121 l 438 86 l 438 0 m 458 1196 l 458 1085 l 32 1085 l 32 1196 l 458 1196 z "},"ī":{"ha":378,"x_min":-25,"x_max":401,"o":"m 263 0 l 115 0 l 115 749 l 263 749 l 263 0 m 401 953 l 401 842 l -25 842 l -25 953 l 401 953 z "},"Ĭ":{"ha":492,"x_min":15,"x_max":478,"o":"m 438 0 l 53 0 l 53 86 l 171 121 l 171 869 l 53 906 l 53 992 l 438 992 l 438 906 l 321 869 l 321 121 l 438 86 l 438 0 m 478 1283 q 408 1140 469 1194 q 243 1085 347 1085 q 78 1139 135 1085 q 15 1283 21 1193 l 103 1283 q 146 1212 108 1226 q 246 1197 183 1197 q 340 1213 299 1197 q 389 1283 382 1229 l 478 1283 z "},"ĭ":{"ha":378,"x_min":-43,"x_max":419,"o":"m 263 0 l 115 0 l 115 749 l 263 749 l 263 0 m 419 1040 q 350 897 411 951 q 185 842 289 842 q 19 896 76 842 q -43 1040 -37 950 l 44 1040 q 88 969 50 983 q 188 954 125 954 q 282 970 240 954 q 331 1040 324 986 l 419 1040 z "},"Į":{"ha":492,"x_min":53,"x_max":438,"o":"m 438 0 l 53 0 l 53 86 l 171 121 l 171 869 l 53 906 l 53 992 l 438 992 l 438 906 l 321 869 l 321 121 l 438 86 l 438 0 m 304 -160 q 320 -204 304 -189 q 364 -219 336 -219 q 405 -216 388 -219 q 435 -210 422 -212 l 435 -300 q 392 -310 414 -306 q 343 -314 371 -314 q 229 -276 267 -314 q 192 -176 192 -239 q 212 -99 192 -136 q 263 -30 232 -61 q 326 22 294 1 l 400 0 q 329 -81 354 -44 q 304 -160 304 -118 z "},"į":{"ha":378,"x_min":44,"x_max":288,"o":"m 190 1033 q 249 1014 224 1033 q 274 949 274 994 q 249 884 274 904 q 190 864 224 864 q 130 884 154 864 q 106 949 106 904 q 130 1014 106 994 q 190 1033 154 1033 m 263 749 l 263 0 l 115 0 l 115 749 l 263 749 m 157 -160 q 173 -204 157 -189 q 217 -219 189 -219 q 258 -216 240 -219 q 288 -210 275 -212 l 288 -300 q 245 -310 267 -306 q 196 -314 224 -314 q 82 -276 119 -314 q 44 -176 44 -239 q 65 -99 44 -136 q 116 -30 85 -61 q 179 22 147 1 l 253 0 q 182 -81 207 -44 q 157 -160 157 -118 z "},"İ":{"ha":492,"x_min":53,"x_max":438,"o":"m 438 0 l 53 0 l 53 86 l 171 121 l 171 869 l 53 906 l 53 992 l 438 992 l 438 906 l 321 869 l 321 121 l 438 86 l 438 0 m 249 1276 q 306 1257 282 1276 q 331 1192 331 1238 q 306 1127 331 1147 q 249 1107 282 1107 q 188 1127 213 1107 q 164 1192 164 1147 q 188 1257 164 1238 q 249 1276 213 1276 z "},"Ĳ":{"ha":894,"x_min":53,"x_max":768,"o":"m 438 0 l 53 0 l 53 86 l 171 121 l 171 869 l 53 906 l 53 992 l 438 992 l 438 906 l 321 869 l 321 121 l 438 86 l 438 0 m 494 -272 q 431 -267 458 -272 q 385 -254 404 -262 l 385 -129 q 432 -139 407 -135 q 485 -143 457 -143 q 550 -129 519 -143 q 599 -79 581 -115 q 618 22 618 -43 l 618 992 l 768 992 l 768 29 q 692 -200 768 -128 q 494 -272 617 -272 z "},"ĳ":{"ha":756,"x_min":106,"x_max":651,"o":"m 190 1033 q 249 1014 224 1033 q 274 949 274 994 q 249 884 274 904 q 190 864 224 864 q 130 884 154 864 q 106 949 106 904 q 130 1014 106 994 q 190 1033 154 1033 m 263 749 l 263 0 l 115 0 l 115 749 l 263 749 m 483 949 q 508 1014 483 994 q 568 1033 532 1033 q 626 1014 601 1033 q 651 949 651 994 q 626 884 651 904 q 568 864 601 864 q 508 884 532 864 q 483 949 483 904 m 414 -333 q 348 -328 378 -333 q 297 -317 318 -324 l 297 -199 q 342 -209 319 -206 q 392 -212 364 -212 q 464 -188 435 -212 q 493 -96 493 -164 l 493 749 l 640 749 l 640 -103 q 587 -270 640 -207 q 414 -333 533 -333 z "},"Ĵ":{"ha":403,"x_min":-107,"x_max":454,"o":"m 3 -272 q -60 -267 -33 -272 q -107 -254 -87 -262 l -107 -129 q -60 -139 -85 -135 q -7 -143 -35 -143 q 58 -129 28 -143 q 108 -79 89 -115 q 126 22 126 -43 l 126 992 l 276 992 l 276 29 q 201 -200 276 -128 q 3 -272 125 -272 m 281 1307 q 330 1238 299 1276 q 395 1163 361 1200 q 454 1101 429 1126 l 454 1085 l 353 1085 q 277 1139 317 1107 q 200 1208 238 1171 q 50 1085 125 1132 l -50 1085 l -50 1101 q 9 1164 -24 1128 q 72 1238 42 1200 q 122 1307 103 1276 l 281 1307 z "},"ĵ":{"ha":378,"x_min":-81,"x_max":440,"o":"m 36 -333 q -30 -328 0 -333 q -81 -317 -60 -324 l -81 -199 q -36 -209 -58 -206 q 14 -212 -14 -212 q 86 -188 57 -212 q 115 -96 115 -164 l 115 749 l 263 749 l 263 -103 q 209 -270 263 -207 q 36 -333 156 -333 m 267 1064 q 316 995 285 1033 q 381 920 347 957 q 440 858 415 883 l 440 842 l 339 842 q 263 896 303 864 q 186 965 224 928 q 36 842 111 889 l -64 842 l -64 858 q -5 921 -37 885 q 58 995 28 957 q 108 1064 89 1033 l 267 1064 z "},"Ķ":{"ha":878,"x_min":132,"x_max":878,"o":"m 878 0 l 704 0 l 379 457 l 282 376 l 282 0 l 132 0 l 132 992 l 282 992 l 282 513 q 354 597 318 554 q 426 681 390 639 l 694 992 l 867 992 l 488 558 l 878 0 m 563 -97 q 519 -199 550 -137 q 451 -307 488 -260 l 368 -307 l 368 -290 q 389 -228 378 -265 q 408 -153 400 -192 q 421 -85 417 -114 l 563 -85 l 563 -97 z "},"ķ":{"ha":776,"x_min":115,"x_max":768,"o":"m 261 528 q 258 461 261 500 q 254 392 256 422 l 258 392 q 301 447 274 413 q 349 503 328 481 l 578 749 l 749 749 l 447 428 l 768 0 l 594 0 l 347 335 l 261 263 l 261 0 l 115 0 l 115 1056 l 261 1056 l 261 528 m 486 -97 q 442 -199 474 -137 q 375 -307 411 -260 l 292 -307 l 292 -290 q 313 -228 301 -265 q 332 -153 324 -192 q 344 -85 340 -114 l 486 -85 l 486 -97 z "},"ĸ":{"ha":776,"x_min":115,"x_max":768,"o":"m 747 749 l 460 414 l 768 0 l 596 0 l 361 322 l 267 251 l 267 0 l 115 0 l 115 749 l 267 749 l 267 554 q 265 453 267 503 q 260 372 263 404 l 263 372 q 297 415 279 393 q 329 456 314 436 l 578 749 l 747 749 z "},"Ĺ":{"ha":744,"x_min":124,"x_max":706,"o":"m 132 0 l 132 992 l 282 992 l 282 129 l 706 129 l 706 0 l 132 0 m 436 1293 q 378 1228 415 1268 q 297 1149 340 1188 q 221 1085 254 1110 l 124 1085 l 124 1101 q 171 1164 144 1128 q 222 1238 197 1200 q 264 1307 247 1276 l 436 1307 l 436 1293 z "},"ĺ":{"ha":378,"x_min":108,"x_max":421,"o":"m 263 0 l 115 0 l 115 1056 l 263 1056 l 263 0 m 421 1357 q 363 1292 400 1332 q 282 1213 325 1251 q 206 1149 239 1174 l 108 1149 l 108 1165 q 156 1228 129 1192 q 207 1302 182 1264 q 249 1371 232 1340 l 421 1371 l 421 1357 z "},"Ļ":{"ha":744,"x_min":132,"x_max":706,"o":"m 132 0 l 132 992 l 282 992 l 282 129 l 706 129 l 706 0 l 132 0 m 517 -97 q 473 -199 504 -137 q 406 -307 442 -260 l 322 -307 l 322 -290 q 343 -228 332 -265 q 363 -153 354 -192 q 375 -85 371 -114 l 517 -85 l 517 -97 z "},"ļ":{"ha":378,"x_min":92,"x_max":286,"o":"m 263 0 l 115 0 l 115 1056 l 263 1056 l 263 0 m 286 -97 q 242 -199 274 -137 q 175 -307 211 -260 l 92 -307 l 92 -290 q 113 -228 101 -265 q 132 -153 124 -192 q 144 -85 140 -114 l 286 -85 l 286 -97 z "},"Ľ":{"ha":744,"x_min":132,"x_max":718,"o":"m 718 979 q 676 878 706 939 q 614 769 646 818 l 532 769 l 532 786 q 558 887 544 826 q 576 992 571 947 l 718 992 l 718 979 m 132 0 l 132 992 l 282 992 l 282 129 l 706 129 l 706 0 l 132 0 z "},"ľ":{"ha":378,"x_min":115,"x_max":503,"o":"m 503 1043 q 461 942 490 1003 q 399 833 432 882 l 317 833 l 317 850 q 342 951 329 890 q 361 1056 356 1011 l 503 1056 l 503 1043 m 263 0 l 115 0 l 115 1056 l 263 1056 l 263 0 z "},"Ŀ":{"ha":744,"x_min":132,"x_max":706,"o":"m 132 0 l 132 992 l 282 992 l 282 129 l 706 129 l 706 0 l 132 0 m 556 596 q 613 576 589 596 q 638 511 638 557 q 613 447 638 467 q 556 426 589 426 q 495 447 519 426 q 471 511 471 467 q 495 576 471 557 q 556 596 519 596 z "},"ŀ":{"ha":411,"x_min":115,"x_max":476,"o":"m 263 0 l 115 0 l 115 1056 l 263 1056 l 263 0 m 394 611 q 452 592 428 611 q 476 526 476 572 q 452 462 476 482 q 394 442 428 442 q 334 462 358 442 q 310 526 310 482 q 334 592 310 572 q 394 611 358 611 z "},"Ł":{"ha":744,"x_min":13,"x_max":706,"o":"m 132 0 l 132 340 l 69 304 l 13 403 l 132 474 l 132 992 l 282 992 l 282 564 l 444 660 l 503 560 l 282 429 l 282 129 l 706 129 l 706 0 l 132 0 z "},"ł":{"ha":378,"x_min":-14,"x_max":392,"o":"m 108 0 l 108 375 l 44 335 l -14 432 l 108 510 l 108 1056 l 256 1056 l 256 603 l 332 654 l 392 557 l 256 468 l 256 0 l 108 0 z "},"Ń":{"ha":1078,"x_min":132,"x_max":946,"o":"m 946 0 l 764 0 l 263 801 l 257 801 q 264 674 260 746 q 268 528 268 603 l 268 0 l 132 0 l 132 992 l 313 992 l 813 194 l 817 194 q 813 268 815 224 q 810 363 811 313 q 807 458 808 414 l 807 992 l 946 992 l 946 0 m 771 1293 q 713 1228 750 1268 q 632 1149 675 1188 q 556 1085 589 1110 l 458 1085 l 458 1101 q 506 1164 479 1128 q 557 1238 532 1200 q 599 1307 582 1276 l 771 1307 l 771 1293 z "},"ń":{"ha":875,"x_min":115,"x_max":764,"o":"m 494 763 q 694 697 625 763 q 764 488 764 632 l 764 0 l 618 0 l 618 467 q 464 642 618 642 q 306 574 349 642 q 263 378 263 506 l 263 0 l 115 0 l 115 749 l 232 749 l 253 649 l 261 649 q 360 735 297 707 q 494 763 424 763 m 669 1050 q 611 985 649 1025 q 531 906 574 944 q 454 842 488 867 l 357 842 l 357 858 q 404 921 378 885 q 456 995 431 957 q 497 1064 481 1033 l 669 1064 l 669 1050 z "},"Ņ":{"ha":1078,"x_min":132,"x_max":946,"o":"m 946 0 l 764 0 l 263 801 l 257 801 q 264 674 260 746 q 268 528 268 603 l 268 0 l 132 0 l 132 992 l 313 992 l 813 194 l 817 194 q 813 268 815 224 q 810 363 811 313 q 807 458 808 414 l 807 992 l 946 992 l 946 0 m 636 -97 q 592 -199 624 -137 q 525 -307 561 -260 l 442 -307 l 442 -290 q 463 -228 451 -265 q 482 -153 474 -192 q 494 -85 490 -114 l 636 -85 l 636 -97 z "},"ņ":{"ha":875,"x_min":115,"x_max":764,"o":"m 494 763 q 694 697 625 763 q 764 488 764 632 l 764 0 l 618 0 l 618 467 q 464 642 618 642 q 306 574 349 642 q 263 378 263 506 l 263 0 l 115 0 l 115 749 l 232 749 l 253 649 l 261 649 q 360 735 297 707 q 494 763 424 763 m 535 -97 q 491 -199 522 -137 q 424 -307 460 -260 l 340 -307 l 340 -290 q 361 -228 350 -265 q 381 -153 372 -192 q 393 -85 389 -114 l 535 -85 l 535 -97 z "},"Ň":{"ha":1078,"x_min":132,"x_max":946,"o":"m 946 0 l 764 0 l 263 801 l 257 801 q 264 674 260 746 q 268 528 268 603 l 268 0 l 132 0 l 132 992 l 313 992 l 813 194 l 817 194 q 813 268 815 224 q 810 363 811 313 q 807 458 808 414 l 807 992 l 946 992 l 946 0 m 458 1085 q 408 1154 439 1117 q 344 1227 378 1192 q 286 1289 311 1263 l 286 1307 l 386 1307 q 462 1251 422 1283 q 536 1182 501 1219 q 613 1251 574 1219 q 689 1307 653 1283 l 790 1307 l 790 1289 q 731 1227 765 1263 q 666 1154 697 1192 q 617 1085 635 1117 l 458 1085 z "},"ň":{"ha":875,"x_min":115,"x_max":764,"o":"m 494 763 q 694 697 625 763 q 764 488 764 632 l 764 0 l 618 0 l 618 467 q 464 642 618 642 q 306 574 349 642 q 263 378 263 506 l 263 0 l 115 0 l 115 749 l 232 749 l 253 649 l 261 649 q 360 735 297 707 q 494 763 424 763 m 357 842 q 307 911 338 874 q 243 984 276 949 q 185 1046 210 1019 l 185 1064 l 285 1064 q 360 1008 321 1040 q 435 939 400 976 q 512 1008 472 976 q 588 1064 551 1040 l 689 1064 l 689 1046 q 630 984 664 1019 q 565 911 596 949 q 515 842 533 874 l 357 842 z "},"ŉ":{"ha":989,"x_min":1,"x_max":879,"o":"m 610 763 q 810 697 740 763 q 879 488 879 632 l 879 0 l 733 0 l 733 467 q 579 642 733 642 q 421 574 464 642 q 378 378 378 506 l 378 0 l 231 0 l 231 749 l 347 749 l 368 649 l 376 649 q 476 735 413 707 q 610 763 539 763 m 228 976 q 176 815 210 903 q 108 651 143 726 l 1 651 q 40 825 21 731 q 71 992 60 919 l 218 992 l 228 976 z "},"Ŋ":{"ha":1078,"x_min":132,"x_max":946,"o":"m 668 -272 q 603 -267 631 -272 q 554 -254 575 -262 l 554 -132 q 605 -142 578 -137 q 663 -146 632 -146 q 765 -115 722 -146 q 810 1 807 -83 l 263 801 l 257 801 q 263 722 260 771 q 267 618 265 672 q 268 517 268 564 l 268 0 l 132 0 l 132 992 l 313 992 l 813 251 l 817 251 q 813 331 815 283 q 808 430 810 378 q 807 528 807 482 l 807 992 l 946 992 l 946 6 q 870 -205 946 -137 q 668 -272 794 -272 z "},"ŋ":{"ha":875,"x_min":115,"x_max":765,"o":"m 551 -333 q 491 -328 518 -333 q 446 -317 464 -324 l 446 -199 q 484 -209 465 -206 q 528 -212 503 -212 q 592 -188 565 -212 q 618 -96 618 -164 l 618 472 q 465 642 618 642 q 306 574 350 642 q 263 379 263 506 l 263 0 l 115 0 l 115 749 l 232 749 l 253 649 l 263 649 q 360 735 299 707 q 494 763 422 763 q 696 697 626 763 q 765 489 765 632 l 765 -103 q 715 -270 765 -207 q 551 -333 664 -333 z "},"Ō":{"ha":1090,"x_min":83,"x_max":1007,"o":"m 1007 497 q 956 228 1007 343 q 801 50 904 114 q 546 -14 699 -14 q 286 50 389 -14 q 133 229 183 114 q 83 499 83 344 q 134 765 83 651 q 288 943 185 879 q 547 1007 390 1007 q 802 944 700 1007 q 956 766 904 881 q 1007 497 1007 651 m 242 497 q 315 217 242 319 q 546 114 389 114 q 776 217 704 114 q 849 497 849 319 q 777 776 849 675 q 547 878 706 878 q 315 776 389 878 q 242 497 242 675 m 758 1196 l 758 1085 l 332 1085 l 332 1196 l 758 1196 z "},"ō":{"ha":846,"x_min":72,"x_max":775,"o":"m 775 375 q 679 88 775 189 q 421 -14 583 -14 q 241 32 319 -14 q 117 165 163 78 q 72 375 72 251 q 167 662 72 561 q 425 763 261 763 q 606 717 528 763 q 730 586 685 672 q 775 375 775 500 m 224 375 q 272 178 224 249 q 424 107 319 107 q 576 178 528 107 q 624 375 624 249 q 575 572 624 503 q 422 640 526 640 q 271 572 318 640 q 224 375 224 503 m 636 953 l 636 842 l 210 842 l 210 953 l 636 953 z "},"Ŏ":{"ha":1090,"x_min":83,"x_max":1007,"o":"m 1007 497 q 956 228 1007 343 q 801 50 904 114 q 546 -14 699 -14 q 286 50 389 -14 q 133 229 183 114 q 83 499 83 344 q 134 765 83 651 q 288 943 185 879 q 547 1007 390 1007 q 802 944 700 1007 q 956 766 904 881 q 1007 497 1007 651 m 242 497 q 315 217 242 319 q 546 114 389 114 q 776 217 704 114 q 849 497 849 319 q 777 776 849 675 q 547 878 706 878 q 315 776 389 878 q 242 497 242 675 m 776 1283 q 707 1140 768 1194 q 542 1085 646 1085 q 376 1139 433 1085 q 314 1283 319 1193 l 401 1283 q 444 1212 407 1226 q 544 1197 482 1197 q 639 1213 597 1197 q 688 1283 681 1229 l 776 1283 z "},"ŏ":{"ha":846,"x_min":72,"x_max":775,"o":"m 775 375 q 679 88 775 189 q 421 -14 583 -14 q 241 32 319 -14 q 117 165 163 78 q 72 375 72 251 q 167 662 72 561 q 425 763 261 763 q 606 717 528 763 q 730 586 685 672 q 775 375 775 500 m 224 375 q 272 178 224 249 q 424 107 319 107 q 576 178 528 107 q 624 375 624 249 q 575 572 624 503 q 422 640 526 640 q 271 572 318 640 q 224 375 224 503 m 654 1040 q 585 897 646 951 q 419 842 524 842 q 254 896 311 842 q 192 1040 197 950 l 279 1040 q 322 969 285 983 q 422 954 360 954 q 517 970 475 954 q 565 1040 558 986 l 654 1040 z "},"Ő":{"ha":1090,"x_min":83,"x_max":1007,"o":"m 1007 497 q 956 228 1007 343 q 801 50 904 114 q 546 -14 699 -14 q 286 50 389 -14 q 133 229 183 114 q 83 499 83 344 q 134 765 83 651 q 288 943 185 879 q 547 1007 390 1007 q 802 944 700 1007 q 956 766 904 881 q 1007 497 1007 651 m 242 497 q 315 217 242 319 q 546 114 389 114 q 776 217 704 114 q 849 497 849 319 q 777 776 849 675 q 547 878 706 878 q 315 776 389 878 q 242 497 242 675 m 811 1293 q 761 1229 796 1269 q 686 1149 726 1189 q 614 1085 646 1110 l 532 1085 l 532 1101 q 575 1164 551 1128 q 620 1238 599 1200 q 657 1307 642 1276 l 811 1307 l 811 1293 m 558 1293 q 510 1229 544 1269 q 435 1149 475 1189 q 363 1085 394 1110 l 281 1085 l 281 1101 q 345 1201 310 1142 q 404 1307 381 1260 l 558 1307 l 558 1293 z "},"ő":{"ha":846,"x_min":72,"x_max":775,"o":"m 775 375 q 679 88 775 189 q 421 -14 583 -14 q 241 32 319 -14 q 117 165 163 78 q 72 375 72 251 q 167 662 72 561 q 425 763 261 763 q 606 717 528 763 q 730 586 685 672 q 775 375 775 500 m 224 375 q 272 178 224 249 q 424 107 319 107 q 576 178 528 107 q 624 375 624 249 q 575 572 624 503 q 422 640 526 640 q 271 572 318 640 q 224 375 224 503 m 689 1050 q 639 986 674 1026 q 564 906 604 946 q 492 842 524 867 l 410 842 l 410 858 q 453 921 429 885 q 498 995 476 957 q 535 1064 519 1033 l 689 1064 l 689 1050 m 436 1050 q 388 986 422 1026 q 313 906 353 946 q 240 842 272 867 l 158 842 l 158 858 q 223 958 188 899 q 282 1064 258 1017 l 436 1064 l 436 1050 z "},"Œ":{"ha":1307,"x_min":83,"x_max":1225,"o":"m 533 1007 q 672 992 610 1007 l 1225 992 l 1225 864 l 831 864 l 831 581 l 1199 581 l 1199 454 l 831 454 l 831 129 l 1225 129 l 1225 0 l 678 0 q 610 -10 647 -6 q 538 -14 574 -14 q 283 50 383 -14 q 133 229 182 114 q 83 499 83 344 q 133 767 83 653 q 281 944 182 881 q 533 1007 381 1007 m 542 878 q 313 776 386 878 q 239 497 239 675 q 312 217 239 319 q 540 114 385 114 q 617 121 579 114 q 682 139 654 128 l 682 854 q 617 872 654 867 q 542 878 581 878 z "},"œ":{"ha":1326,"x_min":71,"x_max":1258,"o":"m 943 761 q 1174 671 1089 761 q 1258 424 1258 581 l 1258 343 l 761 343 q 819 164 764 222 q 978 106 875 106 q 1108 119 1051 106 q 1222 158 1164 132 l 1222 36 q 1109 -1 1165 11 q 974 -14 1053 -14 q 809 21 882 -14 q 690 126 736 56 q 576 22 646 57 q 417 -14 506 -14 q 239 31 317 -14 q 116 164 161 76 q 71 375 71 251 q 164 661 71 561 q 419 761 257 761 q 573 726 504 761 q 685 622 642 690 q 943 761 774 761 m 943 647 q 819 598 865 647 q 764 451 772 549 l 1110 451 q 1069 593 1110 539 q 943 647 1029 647 m 415 640 q 269 574 314 640 q 224 375 224 507 q 269 175 224 243 q 418 107 315 107 q 565 174 518 107 q 611 372 611 240 q 564 574 611 507 q 415 640 517 640 z "},"Ŕ":{"ha":879,"x_min":132,"x_max":865,"o":"m 410 992 q 691 921 600 992 q 782 706 782 850 q 753 577 782 629 q 681 492 725 525 q 588 440 636 460 l 865 0 l 693 0 l 454 401 l 282 401 l 282 0 l 132 0 l 132 992 l 410 992 m 400 864 l 282 864 l 282 526 l 407 526 q 575 570 522 526 q 628 700 628 614 q 572 826 628 789 q 400 864 517 864 m 675 1293 q 617 1228 654 1268 q 536 1149 579 1188 q 460 1085 493 1110 l 363 1085 l 363 1101 q 410 1164 383 1128 q 461 1238 436 1200 q 503 1307 486 1276 l 675 1307 l 675 1293 z "},"ŕ":{"ha":590,"x_min":115,"x_max":571,"o":"m 485 763 q 527 760 504 763 q 567 756 550 758 l 551 618 q 476 628 515 628 q 372 600 421 628 q 292 520 322 572 q 263 394 263 468 l 263 0 l 115 0 l 115 749 l 232 749 l 251 615 l 257 615 q 350 719 293 675 q 485 763 407 763 m 571 1050 q 513 985 550 1025 q 432 906 475 944 q 356 842 389 867 l 258 842 l 258 858 q 306 921 279 885 q 357 995 332 957 q 399 1064 382 1033 l 571 1064 l 571 1050 z "},"Ŗ":{"ha":879,"x_min":132,"x_max":865,"o":"m 410 992 q 691 921 600 992 q 782 706 782 850 q 753 577 782 629 q 681 492 725 525 q 588 440 636 460 l 865 0 l 693 0 l 454 401 l 282 401 l 282 0 l 132 0 l 132 992 l 410 992 m 400 864 l 282 864 l 282 526 l 407 526 q 575 570 522 526 q 628 700 628 614 q 572 826 628 789 q 400 864 517 864 m 565 -97 q 522 -199 553 -137 q 454 -307 490 -260 l 371 -307 l 371 -290 q 392 -228 381 -265 q 411 -153 403 -192 q 424 -85 419 -114 l 565 -85 l 565 -97 z "},"ŗ":{"ha":590,"x_min":90,"x_max":567,"o":"m 485 763 q 527 760 504 763 q 567 756 550 758 l 551 618 q 476 628 515 628 q 372 600 421 628 q 292 520 322 572 q 263 394 263 468 l 263 0 l 115 0 l 115 749 l 232 749 l 251 615 l 257 615 q 350 719 293 675 q 485 763 407 763 m 285 -97 q 241 -199 272 -137 q 174 -307 210 -260 l 90 -307 l 90 -290 q 111 -228 100 -265 q 131 -153 122 -192 q 143 -85 139 -114 l 285 -85 l 285 -97 z "},"Ř":{"ha":879,"x_min":132,"x_max":865,"o":"m 410 992 q 691 921 600 992 q 782 706 782 850 q 753 577 782 629 q 681 492 725 525 q 588 440 636 460 l 865 0 l 693 0 l 454 401 l 282 401 l 282 0 l 132 0 l 132 992 l 410 992 m 400 864 l 282 864 l 282 526 l 407 526 q 575 570 522 526 q 628 700 628 614 q 572 826 628 789 q 400 864 517 864 m 363 1085 q 313 1154 343 1117 q 249 1227 282 1192 q 190 1289 215 1263 l 190 1307 l 290 1307 q 366 1251 326 1283 q 440 1182 406 1219 q 517 1251 478 1219 q 593 1307 557 1283 l 694 1307 l 694 1289 q 635 1227 669 1263 q 570 1154 601 1192 q 521 1085 539 1117 l 363 1085 z "},"ř":{"ha":590,"x_min":86,"x_max":590,"o":"m 485 763 q 527 760 504 763 q 567 756 550 758 l 551 618 q 476 628 515 628 q 372 600 421 628 q 292 520 322 572 q 263 394 263 468 l 263 0 l 115 0 l 115 749 l 232 749 l 251 615 l 257 615 q 350 719 293 675 q 485 763 407 763 m 258 842 q 208 911 239 874 q 144 984 178 949 q 86 1046 111 1019 l 86 1064 l 186 1064 q 262 1008 222 1040 q 336 939 301 976 q 413 1008 374 976 q 489 1064 453 1040 l 590 1064 l 590 1046 q 531 984 565 1019 q 466 911 497 949 q 417 842 435 874 l 258 842 z "},"Ś":{"ha":764,"x_min":69,"x_max":701,"o":"m 701 268 q 606 61 701 136 q 343 -14 510 -14 q 191 -1 263 -14 q 69 38 119 13 l 69 179 q 200 134 125 154 q 353 114 275 114 q 503 153 453 114 q 553 257 553 192 q 530 334 553 303 q 458 392 507 365 q 331 450 410 418 q 201 515 257 478 q 113 608 144 553 q 81 744 81 664 q 169 936 81 867 q 403 1006 258 1006 q 552 990 483 1006 q 683 946 621 974 l 636 822 q 520 861 579 846 q 399 876 461 876 q 274 840 317 876 q 231 746 231 804 q 251 669 231 700 q 318 613 272 638 q 439 557 364 588 q 581 487 522 524 q 671 398 640 450 q 701 268 701 346 m 626 1293 q 568 1228 606 1268 q 488 1149 531 1188 q 411 1085 444 1110 l 314 1085 l 314 1101 q 361 1164 335 1128 q 413 1238 388 1200 q 454 1307 438 1276 l 626 1307 l 626 1293 z "},"ś":{"ha":672,"x_min":68,"x_max":613,"o":"m 613 211 q 532 44 613 101 q 308 -14 451 -14 q 173 -2 229 -14 q 69 32 117 10 l 69 161 q 184 119 118 138 q 313 100 250 100 q 433 126 396 100 q 469 197 469 153 q 456 242 469 222 q 403 284 442 263 q 292 333 365 306 q 170 391 219 363 q 94 459 121 419 q 68 561 68 499 q 147 710 68 658 q 354 763 225 763 q 483 749 422 763 q 600 710 543 735 l 551 597 q 451 633 503 618 q 347 647 400 647 q 246 626 281 647 q 211 568 211 606 q 228 522 211 542 q 284 483 244 503 q 393 436 324 464 q 512 382 463 410 q 587 314 561 354 q 613 211 613 274 m 568 1050 q 510 985 547 1025 q 429 906 472 944 q 353 842 386 867 l 256 842 l 256 858 q 303 921 276 885 q 354 995 329 957 q 396 1064 379 1033 l 568 1064 l 568 1050 z "},"Ŝ":{"ha":764,"x_min":69,"x_max":701,"o":"m 701 268 q 606 61 701 136 q 343 -14 510 -14 q 191 -1 263 -14 q 69 38 119 13 l 69 179 q 200 134 125 154 q 353 114 275 114 q 503 153 453 114 q 553 257 553 192 q 530 334 553 303 q 458 392 507 365 q 331 450 410 418 q 201 515 257 478 q 113 608 144 553 q 81 744 81 664 q 169 936 81 867 q 403 1006 258 1006 q 552 990 483 1006 q 683 946 621 974 l 636 822 q 520 861 579 846 q 399 876 461 876 q 274 840 317 876 q 231 746 231 804 q 251 669 231 700 q 318 613 272 638 q 439 557 364 588 q 581 487 522 524 q 671 398 640 450 q 701 268 701 346 m 474 1307 q 523 1238 492 1276 q 588 1163 554 1200 q 647 1101 622 1126 l 647 1085 l 546 1085 q 470 1139 510 1107 q 393 1208 431 1171 q 243 1085 318 1132 l 143 1085 l 143 1101 q 202 1164 169 1128 q 265 1238 235 1200 q 315 1307 296 1276 l 474 1307 z "},"ŝ":{"ha":672,"x_min":68,"x_max":613,"o":"m 613 211 q 532 44 613 101 q 308 -14 451 -14 q 173 -2 229 -14 q 69 32 117 10 l 69 161 q 184 119 118 138 q 313 100 250 100 q 433 126 396 100 q 469 197 469 153 q 456 242 469 222 q 403 284 442 263 q 292 333 365 306 q 170 391 219 363 q 94 459 121 419 q 68 561 68 499 q 147 710 68 658 q 354 763 225 763 q 483 749 422 763 q 600 710 543 735 l 551 597 q 451 633 503 618 q 347 647 400 647 q 246 626 281 647 q 211 568 211 606 q 228 522 211 542 q 284 483 244 503 q 393 436 324 464 q 512 382 463 410 q 587 314 561 354 q 613 211 613 274 m 415 1064 q 465 995 433 1033 q 530 920 496 957 q 589 858 564 883 l 589 842 l 488 842 q 412 896 451 864 q 335 965 372 928 q 185 842 260 889 l 85 842 l 85 858 q 144 921 111 885 q 207 995 176 957 q 257 1064 238 1033 l 415 1064 z "},"Ş":{"ha":764,"x_min":69,"x_max":701,"o":"m 701 268 q 606 61 701 136 q 343 -14 510 -14 q 191 -1 263 -14 q 69 38 119 13 l 69 179 q 200 134 125 154 q 353 114 275 114 q 503 153 453 114 q 553 257 553 192 q 530 334 553 303 q 458 392 507 365 q 331 450 410 418 q 201 515 257 478 q 113 608 144 553 q 81 744 81 664 q 169 936 81 867 q 403 1006 258 1006 q 552 990 483 1006 q 683 946 621 974 l 636 822 q 520 861 579 846 q 399 876 461 876 q 274 840 317 876 q 231 746 231 804 q 251 669 231 700 q 318 613 272 638 q 439 557 364 588 q 581 487 522 524 q 671 398 640 450 q 701 268 701 346 m 504 -186 q 454 -294 504 -256 q 297 -333 404 -333 q 219 -325 250 -333 l 219 -237 q 300 -246 254 -246 q 363 -234 340 -246 q 386 -190 386 -222 q 353 -140 386 -157 q 264 -115 319 -122 l 322 0 l 417 0 l 386 -64 q 469 -105 433 -76 q 504 -186 504 -133 z "},"ş":{"ha":672,"x_min":68,"x_max":613,"o":"m 613 211 q 532 44 613 101 q 308 -14 451 -14 q 173 -2 229 -14 q 69 32 117 10 l 69 161 q 184 119 118 138 q 313 100 250 100 q 433 126 396 100 q 469 197 469 153 q 456 242 469 222 q 403 284 442 263 q 292 333 365 306 q 170 391 219 363 q 94 459 121 419 q 68 561 68 499 q 147 710 68 658 q 354 763 225 763 q 483 749 422 763 q 600 710 543 735 l 551 597 q 451 633 503 618 q 347 647 400 647 q 246 626 281 647 q 211 568 211 606 q 228 522 211 542 q 284 483 244 503 q 393 436 324 464 q 512 382 463 410 q 587 314 561 354 q 613 211 613 274 m 481 -186 q 431 -294 481 -256 q 274 -333 381 -333 q 196 -325 226 -333 l 196 -237 q 276 -246 231 -246 q 340 -234 317 -246 q 363 -190 363 -222 q 329 -140 363 -157 q 240 -115 296 -122 l 299 0 l 393 0 l 363 -64 q 445 -105 410 -76 q 481 -186 481 -133 z "},"Š":{"ha":764,"x_min":69,"x_max":701,"o":"m 701 268 q 606 61 701 136 q 343 -14 510 -14 q 191 -1 263 -14 q 69 38 119 13 l 69 179 q 200 134 125 154 q 353 114 275 114 q 503 153 453 114 q 553 257 553 192 q 530 334 553 303 q 458 392 507 365 q 331 450 410 418 q 201 515 257 478 q 113 608 144 553 q 81 744 81 664 q 169 936 81 867 q 403 1006 258 1006 q 552 990 483 1006 q 683 946 621 974 l 636 822 q 520 861 579 846 q 399 876 461 876 q 274 840 317 876 q 231 746 231 804 q 251 669 231 700 q 318 613 272 638 q 439 557 364 588 q 581 487 522 524 q 671 398 640 450 q 701 268 701 346 m 315 1085 q 265 1154 296 1117 q 201 1227 235 1192 q 143 1289 168 1263 l 143 1307 l 243 1307 q 319 1251 279 1283 q 393 1182 358 1219 q 470 1251 431 1219 q 546 1307 510 1283 l 647 1307 l 647 1289 q 588 1227 622 1263 q 523 1154 554 1192 q 474 1085 492 1117 l 315 1085 z "},"š":{"ha":672,"x_min":68,"x_max":613,"o":"m 613 211 q 532 44 613 101 q 308 -14 451 -14 q 173 -2 229 -14 q 69 32 117 10 l 69 161 q 184 119 118 138 q 313 100 250 100 q 433 126 396 100 q 469 197 469 153 q 456 242 469 222 q 403 284 442 263 q 292 333 365 306 q 170 391 219 363 q 94 459 121 419 q 68 561 68 499 q 147 710 68 658 q 354 763 225 763 q 483 749 422 763 q 600 710 543 735 l 551 597 q 451 633 503 618 q 347 647 400 647 q 246 626 281 647 q 211 568 211 606 q 228 522 211 542 q 284 483 244 503 q 393 436 324 464 q 512 382 463 410 q 587 314 561 354 q 613 211 613 274 m 257 842 q 207 911 238 874 q 143 984 176 949 q 85 1046 110 1019 l 85 1064 l 185 1064 q 260 1008 221 1040 q 335 939 300 976 q 412 1008 372 976 q 488 1064 451 1040 l 589 1064 l 589 1046 q 530 984 564 1019 q 465 911 496 949 q 415 842 433 874 l 257 842 z "},"Ț":{"ha":782,"x_min":18,"x_max":763,"o":"m 465 0 l 315 0 l 315 863 l 18 863 l 18 992 l 763 992 l 763 863 l 465 863 l 465 0 m 489 -97 q 445 -199 476 -137 q 378 -307 414 -260 l 294 -307 l 294 -290 q 315 -228 304 -265 q 335 -153 326 -192 q 347 -85 343 -114 l 489 -85 l 489 -97 z "},"ț":{"ha":532,"x_min":25,"x_max":497,"o":"m 385 106 q 444 110 414 106 q 497 124 475 115 l 497 13 q 433 -6 472 1 q 353 -14 393 -14 q 240 7 292 -14 q 159 79 189 28 q 129 222 129 131 l 129 636 l 25 636 l 25 703 l 135 758 l 186 917 l 276 917 l 276 749 l 490 749 l 490 636 l 276 636 l 276 225 q 306 135 276 164 q 385 106 336 106 m 406 -97 q 362 -199 393 -137 q 294 -307 331 -260 l 211 -307 l 211 -290 q 232 -228 221 -265 q 251 -153 243 -192 q 264 -85 260 -114 l 406 -85 l 406 -97 z "},"Ť":{"ha":782,"x_min":18,"x_max":763,"o":"m 465 0 l 315 0 l 315 863 l 18 863 l 18 992 l 763 992 l 763 863 l 465 863 l 465 0 m 311 1085 q 261 1154 292 1117 q 197 1227 231 1192 q 139 1289 164 1263 l 139 1307 l 239 1307 q 315 1251 275 1283 q 389 1182 354 1219 q 466 1251 426 1219 q 542 1307 506 1283 l 643 1307 l 643 1289 q 584 1227 618 1263 q 519 1154 550 1192 q 469 1085 488 1117 l 311 1085 z "},"ť":{"ha":532,"x_min":25,"x_max":694,"o":"m 694 1043 q 651 942 681 1003 q 590 833 622 882 l 507 833 l 507 850 q 534 951 521 890 q 551 1056 547 1011 l 694 1056 l 694 1043 m 385 106 q 444 110 414 106 q 497 124 475 115 l 497 13 q 433 -6 472 1 q 353 -14 393 -14 q 240 7 292 -14 q 159 79 189 28 q 129 222 129 131 l 129 636 l 25 636 l 25 703 l 135 758 l 186 917 l 276 917 l 276 749 l 490 749 l 490 636 l 276 636 l 276 225 q 306 135 276 164 q 385 106 336 106 z "},"Ŧ":{"ha":782,"x_min":18,"x_max":763,"o":"m 315 0 l 315 438 l 119 438 l 119 561 l 315 561 l 315 861 l 18 861 l 18 992 l 763 992 l 763 861 l 465 861 l 465 561 l 660 561 l 660 438 l 465 438 l 465 0 l 315 0 z "},"ŧ":{"ha":532,"x_min":25,"x_max":497,"o":"m 36 374 l 36 478 l 129 478 l 129 636 l 25 636 l 25 703 l 135 758 l 186 917 l 276 917 l 276 749 l 490 749 l 490 636 l 276 636 l 276 478 l 475 478 l 475 374 l 276 374 l 276 225 q 306 135 276 164 q 385 106 336 106 q 444 110 414 106 q 497 124 475 115 l 497 13 q 433 -6 472 1 q 353 -14 393 -14 q 240 7 292 -14 q 159 79 189 28 q 129 222 129 131 l 129 374 l 36 374 z "},"Ũ":{"ha":1025,"x_min":124,"x_max":901,"o":"m 901 350 q 858 165 901 247 q 728 34 815 82 q 508 -14 642 -14 q 222 87 319 -14 q 124 353 124 188 l 124 992 l 274 992 l 274 360 q 515 114 274 114 q 697 181 640 114 q 753 361 753 247 l 753 992 l 901 992 l 901 350 m 251 1085 q 303 1222 260 1174 q 414 1271 346 1271 q 490 1252 453 1271 q 560 1214 526 1233 q 624 1194 593 1194 q 697 1272 678 1194 l 776 1272 q 725 1135 768 1183 q 615 1086 682 1086 q 541 1105 578 1086 q 470 1143 504 1124 q 406 1163 436 1163 q 331 1085 349 1163 l 251 1085 z "},"ũ":{"ha":875,"x_min":108,"x_max":760,"o":"m 760 749 l 760 0 l 642 0 l 621 99 l 614 99 q 514 13 578 40 q 379 -14 450 -14 q 178 51 247 -14 q 108 258 108 117 l 108 749 l 257 749 l 257 281 q 408 107 257 107 q 568 175 524 107 q 613 369 613 243 l 613 749 l 760 749 m 175 842 q 226 979 183 931 q 338 1028 269 1028 q 413 1009 376 1028 q 483 971 450 990 q 547 951 517 951 q 621 1029 601 951 l 700 1029 q 649 892 692 940 q 539 843 606 843 q 465 862 501 843 q 394 900 428 881 q 329 919 360 919 q 254 842 272 919 l 175 842 z "},"Ū":{"ha":1025,"x_min":124,"x_max":901,"o":"m 901 350 q 858 165 901 247 q 728 34 815 82 q 508 -14 642 -14 q 222 87 319 -14 q 124 353 124 188 l 124 992 l 274 992 l 274 360 q 515 114 274 114 q 697 181 640 114 q 753 361 753 247 l 753 992 l 901 992 l 901 350 m 726 1196 l 726 1085 l 300 1085 l 300 1196 l 726 1196 z "},"ū":{"ha":875,"x_min":108,"x_max":760,"o":"m 760 749 l 760 0 l 642 0 l 621 99 l 614 99 q 514 13 578 40 q 379 -14 450 -14 q 178 51 247 -14 q 108 258 108 117 l 108 749 l 257 749 l 257 281 q 408 107 257 107 q 568 175 524 107 q 613 369 613 243 l 613 749 l 760 749 m 650 953 l 650 842 l 224 842 l 224 953 l 650 953 z "},"Ŭ":{"ha":1025,"x_min":124,"x_max":901,"o":"m 901 350 q 858 165 901 247 q 728 34 815 82 q 508 -14 642 -14 q 222 87 319 -14 q 124 353 124 188 l 124 992 l 274 992 l 274 360 q 515 114 274 114 q 697 181 640 114 q 753 361 753 247 l 753 992 l 901 992 l 901 350 m 744 1283 q 675 1140 736 1194 q 510 1085 614 1085 q 344 1139 401 1085 q 282 1283 288 1193 l 369 1283 q 413 1212 375 1226 q 513 1197 450 1197 q 607 1213 565 1197 q 656 1283 649 1229 l 744 1283 z "},"ŭ":{"ha":875,"x_min":108,"x_max":760,"o":"m 760 749 l 760 0 l 642 0 l 621 99 l 614 99 q 514 13 578 40 q 379 -14 450 -14 q 178 51 247 -14 q 108 258 108 117 l 108 749 l 257 749 l 257 281 q 408 107 257 107 q 568 175 524 107 q 613 369 613 243 l 613 749 l 760 749 m 668 1040 q 599 897 660 951 q 433 842 538 842 q 268 896 325 842 q 206 1040 211 950 l 293 1040 q 336 969 299 983 q 436 954 374 954 q 531 970 489 954 q 579 1040 572 986 l 668 1040 z "},"Ů":{"ha":1025,"x_min":124,"x_max":901,"o":"m 901 350 q 858 165 901 247 q 728 34 815 82 q 508 -14 642 -14 q 222 87 319 -14 q 124 353 124 188 l 124 992 l 274 992 l 274 360 q 515 114 274 114 q 697 181 640 114 q 753 361 753 247 l 753 992 l 901 992 l 901 350 m 513 1085 q 399 1124 442 1085 q 356 1236 356 1164 q 399 1346 356 1306 q 513 1386 442 1386 q 625 1347 579 1386 q 671 1238 671 1307 q 626 1125 671 1165 q 513 1085 581 1085 m 513 1161 q 565 1181 544 1161 q 586 1236 586 1201 q 565 1290 586 1271 q 513 1310 543 1310 q 459 1290 481 1310 q 438 1236 438 1271 q 457 1181 438 1201 q 513 1161 476 1161 z "},"ů":{"ha":875,"x_min":108,"x_max":760,"o":"m 760 749 l 760 0 l 642 0 l 621 99 l 614 99 q 514 13 578 40 q 379 -14 450 -14 q 178 51 247 -14 q 108 258 108 117 l 108 749 l 257 749 l 257 281 q 408 107 257 107 q 568 175 524 107 q 613 369 613 243 l 613 749 l 760 749 m 436 842 q 322 881 365 842 q 279 993 279 921 q 322 1103 279 1063 q 436 1143 365 1143 q 549 1103 503 1143 q 594 994 594 1064 q 549 882 594 922 q 436 842 504 842 m 436 918 q 489 938 468 918 q 510 993 510 958 q 488 1047 510 1028 q 436 1067 467 1067 q 383 1047 404 1067 q 361 993 361 1028 q 381 938 361 958 q 436 918 400 918 z "},"Ű":{"ha":1025,"x_min":124,"x_max":901,"o":"m 901 350 q 858 165 901 247 q 728 34 815 82 q 508 -14 642 -14 q 222 87 319 -14 q 124 353 124 188 l 124 992 l 274 992 l 274 360 q 515 114 274 114 q 697 181 640 114 q 753 361 753 247 l 753 992 l 901 992 l 901 350 m 778 1293 q 728 1229 763 1269 q 653 1149 693 1189 q 581 1085 613 1110 l 499 1085 l 499 1101 q 542 1164 518 1128 q 587 1238 565 1200 q 624 1307 608 1276 l 778 1307 l 778 1293 m 525 1293 q 476 1229 511 1269 q 401 1149 442 1189 q 329 1085 361 1110 l 247 1085 l 247 1101 q 312 1201 276 1142 q 371 1307 347 1260 l 525 1307 l 525 1293 z "},"ű":{"ha":875,"x_min":108,"x_max":760,"o":"m 760 749 l 760 0 l 642 0 l 621 99 l 614 99 q 514 13 578 40 q 379 -14 450 -14 q 178 51 247 -14 q 108 258 108 117 l 108 749 l 257 749 l 257 281 q 408 107 257 107 q 568 175 524 107 q 613 369 613 243 l 613 749 l 760 749 m 703 1050 q 653 986 688 1026 q 578 906 618 946 q 506 842 538 867 l 424 842 l 424 858 q 467 921 443 885 q 512 995 490 957 q 549 1064 533 1033 l 703 1064 l 703 1050 m 450 1050 q 401 986 436 1026 q 326 906 367 946 q 254 842 286 867 l 172 842 l 172 858 q 237 958 201 899 q 296 1064 272 1017 l 450 1064 l 450 1050 z "},"Ų":{"ha":1025,"x_min":124,"x_max":901,"o":"m 656 -146 q 672 -202 656 -185 q 715 -219 689 -219 q 756 -216 739 -219 q 785 -210 774 -212 l 785 -300 q 744 -310 765 -306 q 693 -314 722 -314 q 580 -275 618 -314 q 542 -164 542 -236 q 563 -80 542 -121 q 614 -4 583 -39 q 508 -14 564 -14 q 222 87 319 -14 q 124 353 124 188 l 124 992 l 274 992 l 274 360 q 515 114 274 114 q 697 181 640 114 q 753 361 753 247 l 753 992 l 901 992 l 901 350 q 871 189 901 263 q 776 67 840 115 q 685 -50 714 -1 q 656 -146 656 -99 z "},"ų":{"ha":875,"x_min":108,"x_max":764,"o":"m 760 749 l 760 0 l 642 0 l 621 99 l 614 99 q 514 13 578 40 q 379 -14 450 -14 q 178 51 247 -14 q 108 258 108 117 l 108 749 l 257 749 l 257 281 q 408 107 257 107 q 568 175 524 107 q 613 369 613 243 l 613 749 l 760 749 m 633 -160 q 649 -204 633 -189 q 693 -219 665 -219 q 734 -216 717 -219 q 764 -210 751 -212 l 764 -300 q 722 -310 743 -306 q 672 -314 700 -314 q 558 -276 596 -314 q 521 -176 521 -239 q 541 -99 521 -136 q 592 -30 561 -61 q 656 22 624 1 l 729 0 q 658 -81 683 -44 q 633 -160 633 -118 z "},"Ŵ":{"ha":1307,"x_min":11,"x_max":1294,"o":"m 1294 992 l 1033 0 l 874 0 l 699 613 q 678 688 689 646 q 660 766 668 729 q 649 818 651 803 q 640 767 647 803 q 623 688 633 731 q 603 608 613 644 l 431 0 l 271 0 l 11 992 l 165 992 l 311 406 q 339 280 326 346 q 358 163 351 214 q 379 283 365 215 q 410 406 393 351 l 575 992 l 725 992 l 896 403 q 926 278 913 347 q 947 163 940 210 q 967 279 954 213 q 996 406 981 346 l 1142 992 l 1294 992 m 732 1307 q 781 1238 750 1276 q 847 1163 813 1200 q 906 1101 881 1126 l 906 1085 l 804 1085 q 728 1139 768 1107 q 651 1208 689 1171 q 501 1085 576 1132 l 401 1085 l 401 1101 q 460 1164 428 1128 q 524 1238 493 1200 q 574 1307 554 1276 l 732 1307 z "},"ŵ":{"ha":1121,"x_min":15,"x_max":1106,"o":"m 621 375 q 598 458 610 411 q 576 548 586 506 q 561 613 567 590 l 556 613 q 542 547 551 590 q 520 457 532 504 q 497 374 508 410 l 386 1 l 222 1 l 15 750 l 165 750 l 263 371 q 291 247 278 313 q 310 140 304 181 l 315 140 q 327 203 319 164 q 344 281 335 242 q 361 346 353 321 l 481 750 l 642 750 l 758 346 q 776 280 767 318 q 794 205 786 242 q 804 142 801 168 l 810 142 q 819 203 813 164 q 837 286 826 242 q 857 371 847 331 l 957 750 l 1106 750 l 896 1 l 728 1 l 621 375 m 639 1064 q 688 995 657 1033 q 753 920 719 957 q 813 858 788 883 l 813 842 l 711 842 q 635 896 675 864 q 558 965 596 928 q 408 842 483 889 l 308 842 l 308 858 q 367 921 335 885 q 431 995 400 957 q 481 1064 461 1033 l 639 1064 z "},"Ŷ":{"ha":810,"x_min":0,"x_max":810,"o":"m 406 528 l 649 992 l 810 992 l 479 385 l 479 0 l 331 0 l 331 379 l 0 992 l 163 992 l 406 528 m 483 1307 q 533 1238 501 1276 q 598 1163 564 1200 q 657 1101 632 1126 l 657 1085 l 556 1085 q 480 1139 519 1107 q 403 1208 440 1171 q 253 1085 328 1132 l 153 1085 l 153 1101 q 212 1164 179 1128 q 275 1238 244 1200 q 325 1307 306 1276 l 483 1307 z "},"ŷ":{"ha":732,"x_min":1,"x_max":732,"o":"m 1 749 l 160 749 l 315 324 q 347 230 333 275 q 367 142 360 185 l 372 142 q 394 226 379 178 q 426 325 408 275 l 574 749 l 732 749 l 411 -101 q 303 -272 371 -210 q 128 -333 236 -333 q 68 -330 93 -333 q 25 -322 43 -326 l 25 -206 q 61 -211 39 -208 q 107 -214 83 -214 q 210 -177 171 -214 q 271 -81 249 -140 l 301 0 l 1 749 m 444 1064 q 494 995 463 1033 q 559 920 525 957 q 618 858 593 883 l 618 842 l 517 842 q 441 896 481 864 q 364 965 401 928 q 214 842 289 889 l 114 842 l 114 858 q 173 921 140 885 q 236 995 206 957 q 286 1064 267 1033 l 444 1064 z "},"Ÿ":{"ha":810,"x_min":0,"x_max":810,"o":"m 406 528 l 649 992 l 810 992 l 479 385 l 479 0 l 331 0 l 331 379 l 0 992 l 163 992 l 406 528 m 199 1190 q 220 1248 199 1231 q 272 1265 242 1265 q 325 1248 303 1265 q 347 1190 347 1231 q 325 1134 347 1153 q 272 1115 303 1115 q 220 1134 242 1115 q 199 1190 199 1153 m 464 1190 q 485 1248 464 1231 q 538 1265 507 1265 q 589 1248 567 1265 q 611 1190 611 1231 q 589 1134 611 1153 q 538 1115 567 1115 q 485 1134 507 1115 q 464 1190 464 1153 z "},"Ź":{"ha":797,"x_min":47,"x_max":749,"o":"m 749 0 l 47 0 l 47 107 l 556 863 l 63 863 l 63 992 l 736 992 l 736 885 l 228 129 l 749 129 l 749 0 m 636 1293 q 578 1228 615 1268 q 497 1149 540 1188 q 421 1085 454 1110 l 324 1085 l 324 1101 q 371 1164 344 1128 q 422 1238 397 1200 q 464 1307 447 1276 l 636 1307 l 636 1293 z "},"ź":{"ha":660,"x_min":49,"x_max":610,"o":"m 610 0 l 49 0 l 49 93 l 435 635 l 72 635 l 72 749 l 599 749 l 599 644 l 221 114 l 610 114 l 610 0 m 561 1050 q 503 985 540 1025 q 422 906 465 944 q 346 842 379 867 l 249 842 l 249 858 q 296 921 269 885 q 347 995 322 957 q 389 1064 372 1033 l 561 1064 l 561 1050 z "},"Ż":{"ha":797,"x_min":47,"x_max":749,"o":"m 749 0 l 47 0 l 47 107 l 556 863 l 63 863 l 63 992 l 736 992 l 736 885 l 228 129 l 749 129 l 749 0 m 407 1276 q 465 1257 440 1276 q 489 1192 489 1238 q 465 1127 489 1147 q 407 1107 440 1107 q 347 1127 371 1107 q 322 1192 322 1147 q 347 1257 322 1238 q 407 1276 371 1276 z "},"ż":{"ha":660,"x_min":49,"x_max":610,"o":"m 610 0 l 49 0 l 49 93 l 435 635 l 72 635 l 72 749 l 599 749 l 599 644 l 221 114 l 610 114 l 610 0 m 332 1033 q 390 1014 365 1033 q 414 949 414 994 q 390 884 414 904 q 332 864 365 864 q 272 884 296 864 q 247 949 247 904 q 272 1014 247 994 q 332 1033 296 1033 z "},"Ž":{"ha":797,"x_min":47,"x_max":749,"o":"m 749 0 l 47 0 l 47 107 l 556 863 l 63 863 l 63 992 l 736 992 l 736 885 l 228 129 l 749 129 l 749 0 m 325 1085 q 275 1154 306 1117 q 211 1227 244 1192 q 153 1289 178 1263 l 153 1307 l 253 1307 q 328 1251 289 1283 q 403 1182 368 1219 q 480 1251 440 1219 q 556 1307 519 1283 l 657 1307 l 657 1289 q 598 1227 632 1263 q 533 1154 564 1192 q 483 1085 501 1117 l 325 1085 z "},"ž":{"ha":660,"x_min":49,"x_max":610,"o":"m 610 0 l 49 0 l 49 93 l 435 635 l 72 635 l 72 749 l 599 749 l 599 644 l 221 114 l 610 114 l 610 0 m 250 842 q 200 911 231 874 q 136 984 169 949 q 78 1046 103 1019 l 78 1064 l 178 1064 q 253 1008 214 1040 q 328 939 293 976 q 405 1008 365 976 q 481 1064 444 1040 l 582 1064 l 582 1046 q 523 984 557 1019 q 458 911 489 949 q 408 842 426 874 l 250 842 z "},"ſ":{"ha":476,"x_min":115,"x_max":521,"o":"m 374 943 q 291 910 319 943 q 263 803 263 876 l 263 0 l 115 0 l 115 806 q 184 1006 115 949 q 367 1063 253 1063 q 455 1054 417 1063 q 521 1035 493 1046 l 483 922 q 433 936 461 929 q 374 943 404 943 z "},"ƒ":{"ha":617,"x_min":-10,"x_max":678,"o":"m 204 -336 q 47 -283 103 -336 q -10 -140 -10 -229 q 3 -62 -10 -100 l 125 -94 q 118 -136 118 -115 q 140 -199 118 -178 q 192 -219 161 -219 q 249 -193 228 -219 q 271 -106 271 -167 l 271 636 l 144 636 l 144 706 l 271 751 l 271 799 q 337 1002 271 942 q 519 1063 403 1063 q 609 1054 568 1063 q 678 1036 650 1046 l 640 924 q 588 937 617 931 q 528 943 560 943 q 418 797 418 943 l 418 749 l 603 749 l 603 636 l 418 636 l 418 -97 q 363 -274 418 -212 q 204 -336 308 -336 z "},"Ǻ":{"ha":910,"x_min":0,"x_max":910,"o":"m 382 1175 q 444 1250 411 1206 q 500 1331 478 1294 l 672 1331 l 672 1321 q 624 1272 658 1301 q 551 1212 590 1242 q 481 1163 511 1182 l 382 1163 l 382 1175 m 353 858 q 296 975 296 897 q 340 1087 296 1047 q 453 1126 383 1126 q 566 1087 519 1126 q 613 976 613 1047 q 597 908 613 938 q 557 860 582 878 l 910 0 l 751 0 l 650 254 l 254 254 l 157 0 l 0 0 l 353 858 m 453 901 q 506 921 486 901 q 526 975 526 940 q 506 1031 526 1011 q 453 1050 485 1050 q 399 1031 419 1050 q 378 975 378 1011 q 397 922 378 942 q 453 901 417 901 m 299 385 l 611 385 l 510 644 q 481 719 499 672 q 454 804 464 767 q 437 748 447 779 q 416 688 426 717 q 400 643 406 658 l 299 385 z "},"ǻ":{"ha":797,"x_min":63,"x_max":686,"o":"m 635 1322 q 581 1281 619 1307 q 497 1231 542 1256 q 422 1189 453 1206 l 319 1189 l 319 1200 q 382 1263 349 1226 q 438 1331 415 1300 l 635 1331 l 635 1322 m 404 1135 q 518 1095 472 1135 q 564 986 564 1056 q 519 874 564 914 q 404 833 474 833 q 292 873 335 833 q 249 985 249 913 q 292 1095 249 1056 q 404 1135 335 1135 m 404 1058 q 351 1039 372 1058 q 331 985 331 1019 q 349 930 331 950 q 404 910 368 910 q 458 930 438 910 q 479 985 479 950 q 458 1039 479 1019 q 404 1058 436 1058 m 406 763 q 616 701 546 763 q 686 507 686 639 l 686 0 l 582 0 l 553 104 l 547 104 q 445 15 499 43 q 297 -14 392 -14 q 129 41 196 -14 q 63 213 63 96 q 149 386 63 326 q 414 451 235 446 l 542 456 l 542 497 q 504 613 542 579 q 399 647 467 647 q 289 631 342 647 q 188 590 236 614 l 140 697 q 262 744 193 725 q 406 763 331 763 m 440 357 q 263 315 313 351 q 214 211 214 278 q 249 126 214 153 q 339 100 283 100 q 483 149 425 100 q 540 294 540 197 l 540 360 l 440 357 z "},"Ǽ":{"ha":1253,"x_min":-1,"x_max":1169,"o":"m 1169 0 l 631 0 l 631 286 l 288 286 l 153 0 l -1 0 l 463 992 l 1169 992 l 1169 864 l 781 864 l 781 581 l 1144 581 l 1144 454 l 781 454 l 781 129 l 1169 129 l 1169 0 m 344 417 l 631 417 l 631 861 l 549 861 l 344 417 m 922 1293 q 864 1228 901 1268 q 783 1149 826 1188 q 707 1085 740 1110 l 610 1085 l 610 1101 q 657 1164 631 1128 q 708 1238 683 1200 q 750 1307 733 1276 l 922 1307 l 922 1293 z "},"ǽ":{"ha":1222,"x_min":63,"x_max":1154,"o":"m 853 763 q 1013 721 944 763 q 1117 603 1081 679 q 1154 426 1154 528 l 1154 343 l 674 343 q 881 106 681 106 q 1006 119 950 106 q 1118 158 1061 132 l 1118 36 q 1006 -1 1063 11 q 875 -14 950 -14 q 707 24 781 -14 q 589 138 633 63 q 474 26 538 65 q 300 -14 410 -14 q 179 10 233 -14 q 94 85 125 35 q 63 213 63 135 q 397 451 63 440 l 524 456 l 524 506 q 485 615 524 583 q 381 647 447 647 q 274 631 326 647 q 174 592 221 615 l 128 697 q 249 744 179 725 q 392 763 319 763 q 532 735 475 763 q 621 651 589 708 q 718 733 660 704 q 853 763 776 763 m 851 649 q 728 599 774 649 q 676 451 683 549 l 1006 451 q 967 594 1006 539 q 851 649 929 649 m 426 357 q 260 315 307 351 q 214 211 214 278 q 247 126 214 153 q 333 100 279 100 q 468 149 414 100 q 522 294 522 197 l 522 360 l 426 357 m 853 1050 q 794 985 832 1025 q 714 906 757 944 q 638 842 671 867 l 540 842 l 540 858 q 588 921 561 885 q 639 995 614 957 q 681 1064 664 1033 l 853 1064 l 853 1050 z "},"Ǿ":{"ha":1090,"x_min":83,"x_max":1007,"o":"m 1007 497 q 956 228 1007 343 q 801 50 904 114 q 546 -14 699 -14 q 297 46 397 -14 l 232 -49 l 140 13 l 210 113 q 115 278 146 179 q 83 499 83 376 q 134 765 83 651 q 288 943 185 879 q 547 1007 390 1007 q 679 992 618 1007 q 790 949 740 976 l 853 1039 l 944 978 l 876 882 q 1007 497 1007 746 m 242 497 q 256 354 242 418 q 299 242 269 290 l 713 835 q 547 878 646 878 q 315 776 389 878 q 242 497 242 675 m 849 497 q 789 754 849 660 l 376 160 q 451 126 408 139 q 546 114 494 114 q 776 217 704 114 q 849 497 849 319 m 781 1293 q 722 1228 760 1268 q 642 1149 685 1188 q 565 1085 599 1110 l 468 1085 l 468 1101 q 515 1164 489 1128 q 567 1238 542 1200 q 608 1307 592 1276 l 781 1307 l 781 1293 z "},"ǿ":{"ha":846,"x_min":72,"x_max":775,"o":"m 775 375 q 679 88 775 189 q 421 -14 583 -14 q 247 28 324 -14 l 196 -47 l 108 11 l 165 93 q 97 214 121 143 q 72 375 72 285 q 167 662 72 561 q 425 763 261 763 q 603 717 524 763 l 653 788 l 740 729 l 685 651 q 751 533 726 601 q 775 375 775 464 m 224 375 q 230 288 224 328 q 251 217 236 249 l 529 613 q 422 640 486 640 q 271 572 318 640 q 224 375 224 503 m 624 375 q 599 525 624 464 l 321 132 q 424 107 363 107 q 576 178 528 107 q 624 375 624 249 m 656 1050 q 597 985 635 1025 q 517 906 560 944 q 440 842 474 867 l 343 842 l 343 858 q 390 921 364 885 q 442 995 417 957 q 483 1064 467 1033 l 656 1064 l 656 1050 z "},"Ș":{"ha":764,"x_min":69,"x_max":701,"o":"m 701 268 q 606 61 701 136 q 343 -14 510 -14 q 191 -1 263 -14 q 69 38 119 13 l 69 179 q 200 134 125 154 q 353 114 275 114 q 503 153 453 114 q 553 257 553 192 q 530 334 553 303 q 458 392 507 365 q 331 450 410 418 q 201 515 257 478 q 113 608 144 553 q 81 744 81 664 q 169 936 81 867 q 403 1006 258 1006 q 552 990 483 1006 q 683 946 621 974 l 636 822 q 520 861 579 846 q 399 876 461 876 q 274 840 317 876 q 231 746 231 804 q 251 669 231 700 q 318 613 272 638 q 439 557 364 588 q 581 487 522 524 q 671 398 640 450 q 701 268 701 346 m 458 -97 q 415 -199 446 -137 q 347 -307 383 -260 l 264 -307 l 264 -290 q 285 -228 274 -265 q 304 -153 296 -192 q 317 -85 313 -114 l 458 -85 l 458 -97 z "},"ș":{"ha":672,"x_min":68,"x_max":613,"o":"m 613 211 q 532 44 613 101 q 308 -14 451 -14 q 173 -2 229 -14 q 69 32 117 10 l 69 161 q 184 119 118 138 q 313 100 250 100 q 433 126 396 100 q 469 197 469 153 q 456 242 469 222 q 403 284 442 263 q 292 333 365 306 q 170 391 219 363 q 94 459 121 419 q 68 561 68 499 q 147 710 68 658 q 354 763 225 763 q 483 749 422 763 q 600 710 543 735 l 551 597 q 451 633 503 618 q 347 647 400 647 q 246 626 281 647 q 211 568 211 606 q 228 522 211 542 q 284 483 244 503 q 393 436 324 464 q 512 382 463 410 q 587 314 561 354 q 613 211 613 274 m 435 -97 q 391 -199 422 -137 q 324 -307 360 -260 l 240 -307 l 240 -290 q 261 -228 250 -265 q 281 -153 272 -192 q 293 -85 289 -114 l 435 -85 l 435 -97 z "},"ˆ":{"ha":615,"x_min":56,"x_max":560,"o":"m 386 1064 q 435 995 404 1033 q 501 920 467 957 q 560 858 535 883 l 560 842 l 458 842 q 383 896 422 864 q 306 965 343 928 q 156 842 231 889 l 56 842 l 56 858 q 115 921 82 885 q 178 995 147 957 q 228 1064 208 1033 l 386 1064 z "},"ˇ":{"ha":615,"x_min":56,"x_max":560,"o":"m 228 842 q 178 911 208 874 q 114 984 147 949 q 56 1046 81 1019 l 56 1064 l 156 1064 q 231 1008 192 1040 q 306 939 271 976 q 383 1008 343 976 q 458 1064 422 1040 l 560 1064 l 560 1046 q 501 984 535 1019 q 435 911 467 949 q 386 842 404 874 l 228 842 z "},"ˉ":{"ha":538,"x_min":56,"x_max":482,"o":"m 482 953 l 482 842 l 56 842 l 56 953 l 482 953 z "},"˘":{"ha":574,"x_min":56,"x_max":518,"o":"m 518 1040 q 449 897 510 951 q 283 842 388 842 q 118 896 175 842 q 56 1040 61 950 l 143 1040 q 186 969 149 983 q 286 954 224 954 q 381 970 339 954 q 429 1040 422 986 l 518 1040 z "},"˙":{"ha":278,"x_min":56,"x_max":222,"o":"m 140 1033 q 198 1014 174 1033 q 222 949 222 994 q 198 884 222 904 q 140 864 174 864 q 80 884 104 864 q 56 949 56 904 q 80 1014 56 994 q 140 1033 104 1033 z "},"˚":{"ha":426,"x_min":56,"x_max":371,"o":"m 213 842 q 99 881 142 842 q 56 993 56 921 q 99 1103 56 1063 q 213 1143 142 1143 q 325 1103 279 1143 q 371 994 371 1064 q 326 882 371 922 q 213 842 281 842 m 213 918 q 265 938 244 918 q 286 993 286 958 q 265 1047 286 1028 q 213 1067 243 1067 q 159 1047 181 1067 q 138 993 138 1028 q 157 938 138 958 q 213 918 176 918 z "},"˛":{"ha":354,"x_min":56,"x_max":299,"o":"m 168 -160 q 184 -204 168 -189 q 228 -219 200 -219 q 269 -216 251 -219 q 299 -210 286 -212 l 299 -300 q 256 -310 278 -306 q 207 -314 235 -314 q 93 -276 131 -314 q 56 -176 56 -239 q 76 -99 56 -136 q 127 -30 96 -61 q 190 22 158 1 l 264 0 q 193 -81 218 -44 q 168 -160 168 -118 z "},"˜":{"ha":636,"x_min":56,"x_max":581,"o":"m 56 842 q 107 979 64 931 q 218 1028 150 1028 q 294 1009 257 1028 q 364 971 331 990 q 428 951 397 951 q 501 1029 482 951 l 581 1029 q 529 892 572 940 q 419 843 486 843 q 345 862 382 843 q 274 900 308 881 q 210 919 240 919 q 135 842 153 919 l 56 842 z "},"˝":{"ha":642,"x_min":56,"x_max":586,"o":"m 586 1050 q 536 986 571 1026 q 461 906 501 946 q 389 842 421 867 l 307 842 l 307 858 q 350 921 326 885 q 395 995 374 957 q 432 1064 417 1033 l 586 1064 l 586 1050 m 333 1050 q 285 986 319 1026 q 210 906 250 946 q 138 842 169 867 l 56 842 l 56 858 q 120 958 85 899 q 179 1064 156 1017 l 333 1064 l 333 1050 z "},"΄":{"ha":350,"x_min":56,"x_max":294,"o":"m 56 842 l 56 858 l 122 1078 l 294 1078 l 294 1064 l 154 842 l 56 842 z "},"΅":{"ha":958,"x_min":201,"x_max":756,"o":"m 382 842 l 382 858 l 433 1078 l 606 1078 l 606 1064 l 481 842 l 382 842 m 275 872 q 223 891 244 872 q 201 947 201 910 q 223 1005 201 988 q 275 1022 244 1022 q 328 1005 306 1022 q 350 947 350 988 q 328 891 350 910 q 275 872 306 872 m 682 872 q 630 891 651 872 q 608 947 608 910 q 630 1005 608 988 q 682 1022 651 1022 q 733 1005 711 1022 q 756 947 756 988 q 733 891 756 910 q 682 872 711 872 z "},"Ά":{"ha":1021,"x_min":14,"x_max":1019,"o":"m 863 0 l 757 286 l 374 286 l 268 0 l 113 0 l 489 996 l 644 996 l 1019 0 l 863 0 m 615 696 q 601 742 611 711 q 581 806 590 772 q 565 860 571 839 q 540 768 554 817 q 518 696 526 719 l 418 417 l 715 417 l 615 696 m 14 756 l 14 772 l 81 992 l 253 992 l 253 978 l 113 756 l 14 756 z "},"·":{"ha":379,"x_min":94,"x_max":285,"o":"m 94 667 q 122 743 94 721 q 189 765 149 765 q 256 743 228 765 q 285 667 285 721 q 256 589 285 613 q 189 565 228 565 q 122 589 149 565 q 94 667 94 613 z "},"Έ":{"ha":1026,"x_min":14,"x_max":943,"o":"m 943 0 l 385 0 l 385 992 l 943 992 l 943 864 l 535 864 l 535 581 l 918 581 l 918 454 l 535 454 l 535 129 l 943 129 l 943 0 m 14 756 l 14 772 l 81 992 l 253 992 l 253 978 l 113 756 l 14 756 z "},"Ή":{"ha":1292,"x_min":14,"x_max":1158,"o":"m 1158 0 l 1008 0 l 1008 453 l 535 453 l 535 0 l 385 0 l 385 992 l 535 992 l 535 581 l 1008 581 l 1008 992 l 1158 992 l 1158 0 m 14 756 l 14 772 l 81 992 l 253 992 l 253 978 l 113 756 l 14 756 z "},"Ί":{"ha":771,"x_min":14,"x_max":718,"o":"m 718 0 l 333 0 l 333 86 l 451 121 l 451 869 l 333 906 l 333 992 l 718 992 l 718 906 l 601 869 l 601 121 l 718 86 l 718 0 m 14 756 l 14 772 l 81 992 l 253 992 l 253 978 l 113 756 l 14 756 z "},"Ό":{"ha":1274,"x_min":14,"x_max":1190,"o":"m 1190 497 q 1139 228 1190 343 q 985 50 1088 114 q 729 -14 882 -14 q 469 50 572 -14 q 317 229 367 114 q 267 499 267 344 q 317 765 267 651 q 471 943 368 879 q 731 1007 574 1007 q 985 944 883 1007 q 1139 766 1088 881 q 1190 497 1190 651 m 425 497 q 499 217 425 319 q 729 114 572 114 q 960 217 888 114 q 1032 497 1032 319 q 960 776 1032 675 q 731 878 889 878 q 499 776 572 878 q 425 497 425 675 m 14 756 l 14 772 l 81 992 l 253 992 l 253 978 l 113 756 l 14 756 z "},"Ύ":{"ha":1132,"x_min":14,"x_max":1132,"o":"m 728 528 l 971 992 l 1132 992 l 801 385 l 801 0 l 653 0 l 653 379 l 322 992 l 485 992 l 728 528 m 14 756 l 14 772 l 81 992 l 253 992 l 253 978 l 113 756 l 14 756 z "},"Ώ":{"ha":1210,"x_min":14,"x_max":1172,"o":"m 236 0 l 236 129 l 453 129 q 349 227 396 168 q 273 365 301 286 q 244 542 244 444 q 299 781 244 675 q 456 947 353 886 q 703 1007 558 1007 q 953 947 850 1007 q 1110 781 1056 886 q 1164 543 1164 676 q 1135 365 1164 444 q 1060 227 1107 286 q 956 129 1013 168 l 1172 129 l 1172 0 l 789 0 l 789 126 q 961 306 914 207 q 1008 531 1008 406 q 974 710 1008 632 q 873 833 940 789 q 703 878 806 878 q 535 833 601 878 q 435 710 468 789 q 401 531 401 632 q 449 306 401 404 q 618 126 496 208 l 618 0 l 236 0 m 14 756 l 14 772 l 81 992 l 253 992 l 253 978 l 113 756 l 14 756 z "},"ΐ":{"ha":489,"x_min":-25,"x_max":529,"o":"m 339 -14 q 166 49 219 -14 q 113 217 113 113 l 113 749 l 260 749 l 260 224 q 289 131 260 156 q 361 107 318 107 q 411 110 389 107 q 454 121 433 114 l 454 3 q 405 -9 435 -4 q 339 -14 375 -14 m 156 842 l 156 858 l 207 1078 l 379 1078 l 379 1064 l 254 842 l 156 842 m 49 872 q -3 891 18 872 q -25 947 -25 910 q -3 1005 -25 988 q 49 1022 18 1022 q 101 1005 79 1022 q 124 947 124 988 q 101 891 124 910 q 49 872 79 872 m 456 872 q 403 891 425 872 q 382 947 382 910 q 403 1005 382 988 q 456 1022 425 1022 q 507 1005 485 1022 q 529 947 529 988 q 507 891 529 910 q 456 872 485 872 z "},"Α":{"ha":908,"x_min":0,"x_max":907,"o":"m 750 0 l 644 286 l 261 286 l 156 0 l 0 0 l 376 996 l 532 996 l 907 0 l 750 0 m 503 696 q 488 742 499 711 q 468 806 478 772 q 453 860 458 839 q 428 768 442 817 q 406 696 414 719 l 306 417 l 603 417 l 503 696 z "},"Β":{"ha":911,"x_min":132,"x_max":838,"o":"m 422 992 q 709 936 611 992 q 807 744 807 881 q 760 599 807 657 q 628 526 714 542 l 628 519 q 734 483 686 510 q 810 409 782 457 q 838 283 838 361 q 743 74 838 149 q 488 0 649 0 l 132 0 l 132 992 l 422 992 m 447 578 q 608 615 564 578 q 651 726 651 653 q 599 833 651 800 q 431 865 546 865 l 282 865 l 282 578 l 447 578 m 282 456 l 282 125 l 464 125 q 631 172 583 125 q 679 297 679 219 q 630 412 679 368 q 454 456 581 456 l 282 456 z "},"Γ":{"ha":706,"x_min":132,"x_max":663,"o":"m 132 0 l 132 992 l 663 992 l 663 864 l 281 864 l 281 0 l 132 0 z "},"Δ":{"ha":900,"x_min":14,"x_max":886,"o":"m 14 0 l 14 82 l 372 996 l 528 996 l 886 81 l 886 0 l 14 0 m 186 132 l 713 132 l 504 696 q 488 742 499 711 q 466 806 476 772 q 450 860 456 839 q 422 768 439 817 q 397 696 406 719 l 186 132 z "},"Ε":{"ha":774,"x_min":132,"x_max":690,"o":"m 690 0 l 132 0 l 132 992 l 690 992 l 690 864 l 282 864 l 282 581 l 665 581 l 665 454 l 282 454 l 282 129 l 690 129 l 690 0 z "},"Ζ":{"ha":797,"x_min":47,"x_max":749,"o":"m 749 0 l 47 0 l 47 107 l 556 863 l 63 863 l 63 992 l 736 992 l 736 885 l 228 129 l 749 129 l 749 0 z "},"Η":{"ha":1039,"x_min":132,"x_max":906,"o":"m 906 0 l 756 0 l 756 453 l 282 453 l 282 0 l 132 0 l 132 992 l 282 992 l 282 581 l 756 581 l 756 992 l 906 992 l 906 0 z "},"Θ":{"ha":1090,"x_min":83,"x_max":1007,"o":"m 1007 497 q 956 228 1007 343 q 801 50 904 114 q 546 -14 699 -14 q 286 50 389 -14 q 133 229 183 114 q 83 499 83 344 q 134 765 83 651 q 288 943 185 879 q 547 1007 390 1007 q 802 944 700 1007 q 956 766 904 881 q 1007 497 1007 651 m 242 497 q 315 217 242 319 q 546 114 389 114 q 776 217 704 114 q 849 497 849 319 q 777 776 849 675 q 547 878 706 878 q 315 776 389 878 q 242 497 242 675 m 346 440 l 346 568 l 746 568 l 746 440 l 346 440 z "},"Ι":{"ha":492,"x_min":53,"x_max":438,"o":"m 438 0 l 53 0 l 53 86 l 171 121 l 171 869 l 53 906 l 53 992 l 438 992 l 438 906 l 321 869 l 321 121 l 438 86 l 438 0 z "},"Κ":{"ha":878,"x_min":132,"x_max":878,"o":"m 878 0 l 704 0 l 379 457 l 282 376 l 282 0 l 132 0 l 132 992 l 282 992 l 282 513 q 354 597 318 554 q 426 681 390 639 l 694 992 l 867 992 l 488 558 l 878 0 z "},"Λ":{"ha":871,"x_min":0,"x_max":869,"o":"m 0 0 l 358 996 l 513 996 l 869 0 l 713 0 l 483 696 q 468 742 478 711 q 449 806 458 772 q 433 860 439 839 q 410 768 424 817 q 389 696 396 719 l 156 0 l 0 0 z "},"Μ":{"ha":1275,"x_min":132,"x_max":1143,"o":"m 564 0 l 264 843 l 258 843 q 263 767 260 814 q 267 667 265 721 q 268 560 268 613 l 268 0 l 132 0 l 132 992 l 346 992 l 631 196 l 636 196 l 929 992 l 1143 992 l 1143 0 l 997 0 l 997 568 q 999 667 997 615 q 1003 765 1001 719 q 1007 842 1006 811 l 1001 842 l 693 0 l 564 0 z "},"Ν":{"ha":1078,"x_min":132,"x_max":946,"o":"m 946 0 l 764 0 l 263 801 l 257 801 q 264 674 260 746 q 268 528 268 603 l 268 0 l 132 0 l 132 992 l 313 992 l 813 194 l 817 194 q 813 268 815 224 q 810 363 811 313 q 807 458 808 414 l 807 992 l 946 992 l 946 0 z "},"Ξ":{"ha":868,"x_min":83,"x_max":785,"o":"m 111 861 l 111 992 l 757 992 l 757 861 l 111 861 m 167 453 l 167 583 l 701 583 l 701 453 l 167 453 m 83 0 l 83 131 l 785 131 l 785 0 l 83 0 z "},"Ο":{"ha":1090,"x_min":83,"x_max":1007,"o":"m 1007 497 q 956 228 1007 343 q 801 50 904 114 q 546 -14 699 -14 q 286 50 389 -14 q 133 229 183 114 q 83 499 83 344 q 134 765 83 651 q 288 943 185 879 q 547 1007 390 1007 q 802 944 700 1007 q 956 766 904 881 q 1007 497 1007 651 m 242 497 q 315 217 242 319 q 546 114 389 114 q 776 217 704 114 q 849 497 849 319 q 777 776 849 675 q 547 878 706 878 q 315 776 389 878 q 242 497 242 675 z "},"Π":{"ha":1025,"x_min":132,"x_max":892,"o":"m 132 0 l 132 992 l 892 992 l 892 0 l 743 0 l 743 863 l 282 863 l 282 0 l 132 0 z "},"Ρ":{"ha":850,"x_min":132,"x_max":782,"o":"m 410 992 q 693 913 604 992 q 782 694 782 835 q 745 539 782 611 q 622 422 708 467 q 389 376 536 376 l 282 376 l 282 0 l 132 0 l 132 992 l 410 992 m 399 865 l 282 865 l 282 503 l 372 503 q 563 546 499 503 q 628 689 628 589 q 572 822 628 778 q 399 865 517 865 z "},"Σ":{"ha":797,"x_min":47,"x_max":749,"o":"m 47 0 l 47 121 l 368 514 l 61 872 l 61 992 l 733 992 l 733 863 l 386 863 q 315 863 357 863 q 247 865 274 864 l 521 546 l 521 504 l 214 128 q 311 129 264 128 q 411 131 358 131 l 749 131 l 749 0 l 47 0 z "},"Τ":{"ha":782,"x_min":18,"x_max":763,"o":"m 465 0 l 315 0 l 315 863 l 18 863 l 18 992 l 763 992 l 763 863 l 465 863 l 465 0 z "},"Υ":{"ha":810,"x_min":0,"x_max":810,"o":"m 406 528 l 649 992 l 810 992 l 479 385 l 479 0 l 331 0 l 331 379 l 0 992 l 163 992 l 406 528 z "},"Φ":{"ha":1197,"x_min":69,"x_max":1126,"o":"m 526 -4 l 526 125 q 299 165 388 128 q 160 259 210 201 q 90 383 110 317 q 69 514 69 450 q 92 655 69 588 q 166 776 114 722 q 306 863 218 831 q 526 897 394 894 l 526 996 l 669 996 l 669 897 q 891 863 803 894 q 1031 778 979 831 q 1105 657 1083 725 q 1126 514 1126 589 q 1106 381 1126 449 q 1034 256 1085 313 q 894 163 983 199 q 669 125 806 128 l 669 -4 l 526 -4 m 526 246 l 526 775 q 338 736 406 771 q 244 644 271 701 q 217 515 217 586 q 247 379 217 439 q 344 284 276 319 q 526 246 413 249 m 669 246 q 854 285 786 249 q 951 381 922 321 q 979 515 979 440 q 953 645 979 588 q 859 737 926 703 q 669 775 792 771 l 669 246 z "},"Χ":{"ha":847,"x_min":4,"x_max":843,"o":"m 843 0 l 672 0 l 419 414 l 164 0 l 4 0 l 333 515 l 25 992 l 192 992 l 425 613 l 660 992 l 819 992 l 511 514 l 843 0 z "},"Ψ":{"ha":1164,"x_min":124,"x_max":1040,"o":"m 511 0 l 511 258 q 124 671 124 271 l 124 992 l 271 992 l 271 667 q 301 497 271 558 q 385 409 331 435 q 511 383 439 383 l 511 992 l 653 992 l 653 383 q 776 409 722 383 q 861 496 831 435 q 892 665 892 557 l 892 992 l 1040 992 l 1040 671 q 942 369 1040 472 q 653 258 844 265 l 653 0 l 511 0 z "},"Ω":{"ha":1014,"x_min":39,"x_max":975,"o":"m 39 0 l 39 129 l 256 129 q 151 227 199 168 q 76 365 104 286 q 47 542 47 444 q 101 781 47 675 q 258 947 156 886 q 506 1007 361 1007 q 756 947 653 1007 q 913 781 858 886 q 967 543 967 676 q 938 365 967 444 q 863 227 910 286 q 758 129 815 168 l 975 129 l 975 0 l 592 0 l 592 126 q 764 306 717 207 q 811 531 811 406 q 777 710 811 632 q 676 833 743 789 q 506 878 608 878 q 338 833 404 878 q 238 710 271 789 q 204 531 204 632 q 251 306 204 404 q 421 126 299 208 l 421 0 l 39 0 z "},"Ϊ":{"ha":492,"x_min":40,"x_max":453,"o":"m 438 0 l 53 0 l 53 86 l 171 121 l 171 869 l 53 906 l 53 992 l 438 992 l 438 906 l 321 869 l 321 121 l 438 86 l 438 0 m 40 1190 q 62 1248 40 1231 q 114 1265 83 1265 q 167 1248 144 1265 q 189 1190 189 1231 q 167 1134 189 1153 q 114 1115 144 1115 q 62 1134 83 1115 q 40 1190 40 1153 m 306 1190 q 327 1248 306 1231 q 379 1265 349 1265 q 431 1248 408 1265 q 453 1190 453 1231 q 431 1134 453 1153 q 379 1115 408 1115 q 327 1134 349 1115 q 306 1190 306 1153 z "},"Ϋ":{"ha":810,"x_min":0,"x_max":810,"o":"m 406 528 l 649 992 l 810 992 l 479 385 l 479 0 l 331 0 l 331 379 l 0 992 l 163 992 l 406 528 m 199 1190 q 220 1248 199 1231 q 272 1265 242 1265 q 325 1248 303 1265 q 347 1190 347 1231 q 325 1134 347 1153 q 272 1115 303 1115 q 220 1134 242 1115 q 199 1190 199 1153 m 464 1190 q 485 1248 464 1231 q 538 1265 507 1265 q 589 1248 567 1265 q 611 1190 611 1231 q 589 1134 611 1153 q 538 1115 567 1115 q 485 1134 507 1115 q 464 1190 464 1153 z "},"ά":{"ha":879,"x_min":72,"x_max":844,"o":"m 369 -14 q 154 85 236 -14 q 72 371 72 185 q 154 662 72 561 q 375 763 236 763 q 510 731 454 763 q 603 649 567 699 l 608 649 l 626 749 l 746 749 l 746 186 q 763 126 746 143 q 803 108 779 108 q 826 110 814 108 q 844 115 839 113 l 844 4 q 810 -8 835 -1 q 763 -14 785 -14 q 669 11 706 -14 q 614 100 632 36 l 604 100 q 511 19 569 51 q 369 -14 453 -14 m 410 106 q 560 168 515 106 q 604 364 604 231 l 604 372 q 561 572 604 503 q 408 642 518 642 q 269 572 314 642 q 224 369 224 503 q 410 106 224 106 m 372 842 l 372 858 l 439 1078 l 611 1078 l 611 1064 l 471 842 l 372 842 z "},"έ":{"ha":667,"x_min":58,"x_max":622,"o":"m 376 -14 q 135 48 213 -14 q 58 204 58 110 q 105 328 58 288 q 218 386 151 369 l 218 393 q 122 453 157 413 q 86 560 86 494 q 159 708 86 654 q 369 763 232 763 q 512 747 446 763 q 622 706 578 731 l 578 592 q 480 632 529 618 q 374 646 431 646 q 263 619 296 646 q 229 547 229 593 q 274 466 229 489 q 383 443 318 443 l 483 443 l 483 333 l 383 333 q 210 215 210 333 q 255 132 210 158 q 383 106 300 106 q 506 117 453 106 q 606 156 558 129 l 606 32 q 503 -3 561 7 q 376 -14 446 -14 m 332 842 l 332 858 l 399 1078 l 571 1078 l 571 1064 l 431 842 l 332 842 z "},"ή":{"ha":861,"x_min":115,"x_max":750,"o":"m 604 -333 l 604 467 q 457 642 604 642 q 306 574 349 642 q 263 378 263 506 l 263 0 l 115 0 l 115 749 l 232 749 l 253 649 l 261 649 q 357 735 297 707 q 488 763 417 763 q 681 697 613 763 q 750 488 750 632 l 750 -333 l 604 -333 m 318 842 l 318 858 l 385 1078 l 557 1078 l 557 1064 l 417 842 l 318 842 z "},"ί":{"ha":489,"x_min":113,"x_max":454,"o":"m 339 -14 q 166 49 219 -14 q 113 217 113 113 l 113 749 l 260 749 l 260 224 q 289 131 260 156 q 361 107 318 107 q 411 110 389 107 q 454 121 433 114 l 454 3 q 405 -9 435 -4 q 339 -14 375 -14 m 157 842 l 157 858 l 224 1078 l 396 1078 l 396 1064 l 256 842 l 157 842 z "},"ΰ":{"ha":847,"x_min":108,"x_max":754,"o":"m 404 -14 q 251 11 310 -14 q 162 81 193 36 q 119 189 131 126 q 108 326 108 251 l 108 749 l 256 749 l 256 326 q 286 160 256 214 q 413 106 317 106 q 556 179 507 106 q 606 413 606 253 q 594 585 606 507 q 561 749 582 663 l 710 749 q 743 586 732 664 q 754 407 754 508 q 663 88 754 190 q 404 -14 572 -14 m 365 842 l 365 858 l 417 1078 l 589 1078 l 589 1064 l 464 842 l 365 842 m 258 872 q 206 891 228 872 q 185 947 185 910 q 206 1005 185 988 q 258 1022 228 1022 q 311 1005 289 1022 q 333 947 333 988 q 311 891 333 910 q 258 872 289 872 m 665 872 q 613 891 635 872 q 592 947 592 910 q 613 1005 592 988 q 665 1022 635 1022 q 717 1005 694 1022 q 739 947 739 988 q 717 891 739 910 q 665 872 694 872 z "},"α":{"ha":879,"x_min":72,"x_max":844,"o":"m 369 -14 q 154 85 236 -14 q 72 371 72 185 q 154 662 72 561 q 375 763 236 763 q 510 731 454 763 q 603 649 567 699 l 608 649 l 626 749 l 746 749 l 746 186 q 763 126 746 143 q 803 108 779 108 q 826 110 814 108 q 844 115 839 113 l 844 4 q 810 -8 835 -1 q 763 -14 785 -14 q 669 11 706 -14 q 614 100 632 36 l 604 100 q 511 19 569 51 q 369 -14 453 -14 m 410 106 q 560 168 515 106 q 604 364 604 231 l 604 372 q 561 572 604 503 q 408 642 518 642 q 269 572 314 642 q 224 369 224 503 q 410 106 224 106 z "},"β":{"ha":860,"x_min":115,"x_max":788,"o":"m 115 -333 l 115 735 q 158 924 115 851 q 273 1029 200 996 q 439 1063 346 1063 q 661 994 582 1063 q 740 797 740 926 q 685 638 740 697 q 546 564 629 579 l 546 558 q 720 478 653 544 q 788 285 788 411 q 744 122 788 189 q 628 21 701 56 q 465 -14 556 -14 q 350 -1 393 -14 q 263 32 307 11 l 263 -333 l 115 -333 m 446 106 q 586 156 535 106 q 638 296 638 206 q 611 410 638 365 q 542 476 585 454 q 450 497 499 497 l 350 497 l 350 610 l 436 610 q 549 658 508 610 q 590 786 590 707 q 545 904 590 865 q 436 943 500 943 q 351 925 390 943 q 287 860 311 907 q 263 731 263 814 l 263 160 q 348 120 307 135 q 446 106 389 106 z "},"γ":{"ha":736,"x_min":0,"x_max":694,"o":"m 267 -292 l 267 -1 l 0 749 l 151 749 l 286 342 q 310 270 296 311 q 337 190 324 229 q 357 126 350 151 l 363 126 q 506 398 465 249 q 547 749 547 547 l 694 749 q 669 478 694 604 q 584 236 644 353 q 414 0 524 119 l 414 -292 l 267 -292 z "},"δ":{"ha":825,"x_min":58,"x_max":754,"o":"m 407 -14 q 227 26 306 -14 q 103 138 149 65 q 58 311 58 211 q 126 527 58 447 q 306 651 194 607 q 215 726 256 681 q 174 850 174 771 q 205 953 174 906 q 298 1032 236 1001 q 453 1063 360 1063 q 620 1033 551 1063 q 724 971 689 1003 l 664 863 q 565 924 618 900 q 454 947 513 947 q 372 932 401 947 q 330 894 342 917 q 318 851 318 872 q 349 780 318 813 q 474 699 381 747 q 651 577 590 638 q 733 455 711 517 q 754 328 754 393 q 707 135 754 211 q 581 23 660 60 q 407 -14 503 -14 m 410 106 q 557 168 506 106 q 608 328 608 231 q 557 485 608 422 q 419 590 506 549 q 265 494 321 557 q 208 326 208 432 q 263 166 208 226 q 410 106 318 106 z "},"ε":{"ha":667,"x_min":58,"x_max":622,"o":"m 376 -14 q 135 48 213 -14 q 58 204 58 110 q 105 328 58 288 q 218 386 151 369 l 218 393 q 122 453 157 413 q 86 560 86 494 q 159 708 86 654 q 369 763 232 763 q 512 747 446 763 q 622 706 578 731 l 578 592 q 480 632 529 618 q 374 646 431 646 q 263 619 296 646 q 229 547 229 593 q 274 466 229 489 q 383 443 318 443 l 483 443 l 483 333 l 383 333 q 210 215 210 333 q 255 132 210 158 q 383 106 300 106 q 506 117 453 106 q 606 156 558 129 l 606 32 q 503 -3 561 7 q 376 -14 446 -14 z "},"ζ":{"ha":649,"x_min":72,"x_max":646,"o":"m 436 -281 q 478 -188 461 -235 q 496 -111 496 -142 q 488 -67 496 -85 q 453 -37 479 -50 q 374 -14 426 -25 q 139 92 206 25 q 72 269 72 160 q 108 433 72 353 q 206 597 144 513 q 346 779 268 681 l 481 951 q 439 948 471 950 q 366 945 407 946 q 286 944 325 944 l 111 944 l 111 1056 l 646 1056 l 646 965 l 446 704 q 319 529 368 601 q 247 401 269 457 q 224 290 224 346 q 240 213 224 246 q 302 155 256 181 q 439 108 349 129 q 597 45 553 83 q 642 -71 642 7 q 623 -182 642 -132 q 579 -281 604 -232 l 436 -281 z "},"η":{"ha":861,"x_min":115,"x_max":750,"o":"m 604 -333 l 604 467 q 457 642 604 642 q 306 574 349 642 q 263 378 263 506 l 263 0 l 115 0 l 115 749 l 232 749 l 253 649 l 261 649 q 357 735 297 707 q 488 763 417 763 q 681 697 613 763 q 750 488 750 632 l 750 -333 l 604 -333 z "},"θ":{"ha":831,"x_min":72,"x_max":760,"o":"m 414 -14 q 156 129 239 -14 q 72 524 72 272 q 106 814 72 693 q 216 999 140 935 q 414 1063 292 1063 q 675 922 590 1063 q 760 524 760 781 q 725 235 760 356 q 615 51 690 115 q 414 -14 539 -14 m 221 592 l 610 592 q 558 858 604 772 q 415 944 513 944 q 272 858 317 944 q 221 592 228 772 m 414 103 q 560 190 514 103 q 611 479 607 278 l 221 479 q 269 192 224 281 q 414 103 314 103 z "},"ι":{"ha":489,"x_min":113,"x_max":454,"o":"m 339 -14 q 166 49 219 -14 q 113 217 113 113 l 113 749 l 260 749 l 260 224 q 289 131 260 156 q 361 107 318 107 q 411 110 389 107 q 454 121 433 114 l 454 3 q 405 -9 435 -4 q 339 -14 375 -14 z "},"κ":{"ha":776,"x_min":115,"x_max":768,"o":"m 747 749 l 460 414 l 768 0 l 596 0 l 361 322 l 267 251 l 267 0 l 115 0 l 115 749 l 267 749 l 267 554 q 265 453 267 503 q 260 372 263 404 l 263 372 q 297 415 279 393 q 329 456 314 436 l 578 749 l 747 749 z "},"λ":{"ha":743,"x_min":7,"x_max":743,"o":"m 653 -14 q 569 11 599 -14 q 521 93 540 36 l 426 367 q 399 444 414 400 q 371 531 383 488 q 353 607 358 575 l 347 607 q 321 492 339 553 q 285 372 303 431 l 168 0 l 8 0 l 282 749 l 251 828 q 188 916 229 889 q 85 943 147 943 q 40 940 60 943 q 7 935 21 938 l 7 1051 q 51 1060 26 1057 q 106 1063 75 1063 q 283 1012 217 1063 q 394 840 350 961 l 642 183 q 672 122 660 136 q 703 108 683 108 q 725 110 715 108 q 743 115 735 113 l 743 4 q 702 -9 728 -4 q 653 -14 676 -14 z "},"μ":{"ha":892,"x_min":115,"x_max":857,"o":"m 115 -333 l 115 749 l 263 749 l 263 279 q 418 107 263 107 q 567 175 524 107 q 611 369 611 243 l 611 749 l 758 749 l 758 186 q 775 126 758 143 q 815 108 792 108 q 838 110 825 108 q 857 115 850 113 l 857 4 q 822 -8 846 -1 q 774 -14 797 -14 q 681 11 718 -14 q 625 100 643 36 l 615 100 q 533 15 582 44 q 414 -14 485 -14 q 325 3 364 -14 q 261 49 286 19 l 256 49 q 260 -21 258 24 q 263 -117 263 -65 l 263 -333 l 115 -333 z "},"ν":{"ha":736,"x_min":0,"x_max":694,"o":"m 265 0 l 0 749 l 151 749 l 286 342 q 310 270 296 311 q 337 190 324 229 q 357 126 350 151 l 363 126 q 506 398 465 249 q 547 749 547 547 l 694 749 q 669 475 694 601 q 583 232 644 349 q 414 0 522 115 l 265 0 z "},"ξ":{"ha":694,"x_min":72,"x_max":650,"o":"m 440 -281 q 482 -190 464 -235 q 500 -108 500 -146 q 492 -68 500 -85 q 459 -38 485 -51 q 379 -14 433 -25 q 152 84 232 19 q 72 278 72 149 q 130 455 72 388 q 279 549 188 522 l 279 557 q 118 746 118 594 q 175 882 118 836 q 321 953 232 928 q 238 947 288 949 q 150 944 188 944 l 115 944 l 115 1056 l 650 1056 l 650 951 l 610 951 q 433 935 511 951 q 308 878 354 919 q 261 760 261 836 q 309 651 261 693 q 476 608 357 608 l 628 608 l 628 497 l 474 497 q 279 441 336 497 q 222 297 222 385 q 247 199 222 233 q 324 144 272 164 q 457 106 375 124 q 576 63 535 88 q 631 5 617 38 q 646 -65 646 -28 q 628 -178 646 -128 q 583 -281 611 -228 l 440 -281 z "},"ο":{"ha":846,"x_min":72,"x_max":775,"o":"m 775 375 q 679 88 775 189 q 421 -14 583 -14 q 241 32 319 -14 q 117 165 163 78 q 72 375 72 251 q 167 662 72 561 q 425 763 261 763 q 606 717 528 763 q 730 586 685 672 q 775 375 775 500 m 224 375 q 272 178 224 249 q 424 107 319 107 q 576 178 528 107 q 624 375 624 249 q 575 572 624 503 q 422 640 526 640 q 271 572 318 640 q 224 375 224 503 z "},"π":{"ha":946,"x_min":25,"x_max":911,"o":"m 785 -14 q 659 33 703 -14 q 615 176 615 81 l 615 636 l 325 636 l 325 0 l 179 0 l 179 636 l 25 636 l 25 749 l 911 749 l 911 636 l 761 636 l 761 185 q 779 122 761 140 q 825 104 797 104 q 863 109 844 104 q 893 121 881 114 l 893 10 q 850 -6 879 1 q 785 -14 821 -14 z "},"ρ":{"ha":840,"x_min":94,"x_max":768,"o":"m 94 -333 l 94 382 q 184 667 94 571 q 421 763 274 763 q 676 660 583 763 q 768 367 768 557 q 724 161 768 246 q 604 31 679 76 q 438 -14 529 -14 q 332 2 382 -14 q 243 46 282 18 l 235 46 q 240 -31 238 19 q 242 -137 242 -81 l 242 -333 l 94 -333 m 428 107 q 567 172 517 107 q 617 367 617 238 q 565 574 617 508 q 417 640 514 640 q 243 383 243 640 l 243 172 q 328 123 279 139 q 428 107 376 107 z "},"σ":{"ha":869,"x_min":72,"x_max":821,"o":"m 414 -14 q 234 31 311 -14 q 115 159 157 75 q 72 360 72 243 q 121 585 72 499 q 258 710 169 671 q 468 749 347 749 l 821 749 l 821 636 l 650 636 q 732 516 704 585 q 760 354 760 447 q 722 174 760 258 q 607 38 683 90 q 414 -14 531 -14 m 417 107 q 528 141 486 107 q 591 231 571 175 q 611 357 611 288 q 515 636 611 532 l 469 636 q 285 573 347 636 q 222 360 222 510 q 267 177 222 247 q 417 107 313 107 z "},"τ":{"ha":703,"x_min":25,"x_max":654,"o":"m 464 -15 q 344 5 399 -15 q 256 76 289 25 q 222 222 222 128 l 222 636 l 25 636 l 25 749 l 654 749 l 654 636 l 371 636 l 371 231 q 404 132 371 161 q 492 103 438 103 q 555 108 522 103 q 613 121 588 114 l 613 11 q 549 -7 590 1 q 464 -15 508 -15 z "},"υ":{"ha":847,"x_min":108,"x_max":754,"o":"m 404 -14 q 251 11 310 -14 q 162 81 193 36 q 119 189 131 126 q 108 326 108 251 l 108 749 l 256 749 l 256 326 q 286 160 256 214 q 413 106 317 106 q 556 179 507 106 q 606 413 606 253 q 594 585 606 507 q 561 749 582 663 l 710 749 q 743 586 732 664 q 754 407 754 508 q 663 88 754 190 q 404 -14 572 -14 z "},"φ":{"ha":1043,"x_min":72,"x_max":972,"o":"m 453 -333 l 453 -10 q 251 49 336 0 q 119 181 165 99 q 72 374 72 264 q 169 643 72 542 q 453 757 267 744 l 453 1056 l 593 1056 l 593 757 q 870 641 768 742 q 972 374 972 540 q 873 107 972 208 q 593 -10 774 6 l 593 -333 l 453 -333 m 453 103 l 453 644 q 280 563 335 632 q 225 374 225 493 q 280 185 225 256 q 453 103 335 115 m 593 103 q 765 186 708 117 q 821 374 821 256 q 763 560 821 492 q 593 643 706 629 l 593 103 z "},"χ":{"ha":836,"x_min":22,"x_max":831,"o":"m 22 -333 l 350 190 l 189 524 q 142 606 163 578 q 86 633 121 633 q 58 631 72 633 q 31 624 44 629 l 31 740 q 66 750 49 746 q 117 754 83 754 q 221 722 183 754 q 299 607 258 689 l 442 315 l 678 749 l 831 749 l 504 188 l 644 -99 q 696 -183 672 -156 q 767 -211 719 -211 q 831 -206 799 -211 l 831 -319 q 788 -329 811 -325 q 731 -333 764 -333 q 640 -316 675 -333 q 578 -262 604 -299 q 522 -164 551 -225 l 413 63 l 175 -333 l 22 -333 z "},"ψ":{"ha":1074,"x_min":108,"x_max":981,"o":"m 467 -333 l 467 -12 q 278 27 358 -8 q 153 143 197 63 q 108 361 108 224 l 108 749 l 250 749 l 250 357 q 276 207 250 260 q 350 133 301 154 q 467 106 399 111 l 467 1056 l 607 1056 l 607 107 q 781 183 722 118 q 840 390 840 247 q 828 568 840 485 q 793 749 815 651 l 935 749 q 969 569 958 654 q 981 392 981 483 q 932 163 981 250 q 799 35 883 76 q 607 -12 714 -6 l 607 -333 l 467 -333 z "},"ω":{"ha":1138,"x_min":86,"x_max":1053,"o":"m 364 -14 q 210 34 272 -14 q 117 167 149 82 q 86 363 86 251 q 123 594 86 497 q 213 749 160 690 l 356 749 q 266 594 303 689 q 229 364 229 499 q 267 173 229 240 q 374 106 306 106 q 471 154 442 106 q 500 282 500 203 l 500 499 l 639 499 l 639 282 q 670 151 639 197 q 764 106 701 106 q 872 172 833 106 q 910 364 910 239 q 876 588 910 494 q 783 749 842 682 l 926 749 q 1018 589 983 683 q 1053 363 1053 494 q 1021 167 1053 251 q 927 34 989 82 q 775 -14 865 -14 q 645 23 694 -14 q 572 140 596 60 l 565 140 q 493 23 542 60 q 364 -14 444 -14 z "},"ϊ":{"ha":489,"x_min":-12,"x_max":454,"o":"m 339 -14 q 166 49 219 -14 q 113 217 113 113 l 113 749 l 260 749 l 260 224 q 289 131 260 156 q 361 107 318 107 q 411 110 389 107 q 454 121 433 114 l 454 3 q 405 -9 435 -4 q 339 -14 375 -14 m -12 947 q 9 1005 -12 988 q 61 1022 31 1022 q 114 1005 92 1022 q 136 947 136 988 q 114 891 136 910 q 61 872 92 872 q 9 891 31 872 q -12 947 -12 910 m 253 947 q 274 1005 253 988 q 326 1022 296 1022 q 378 1005 356 1022 q 400 947 400 988 q 378 891 400 910 q 326 872 356 872 q 274 891 296 872 q 253 947 253 910 z "},"ϋ":{"ha":847,"x_min":108,"x_max":754,"o":"m 404 -14 q 251 11 310 -14 q 162 81 193 36 q 119 189 131 126 q 108 326 108 251 l 108 749 l 256 749 l 256 326 q 286 160 256 214 q 413 106 317 106 q 556 179 507 106 q 606 413 606 253 q 594 585 606 507 q 561 749 582 663 l 710 749 q 743 586 732 664 q 754 407 754 508 q 663 88 754 190 q 404 -14 572 -14 m 197 947 q 219 1005 197 988 q 271 1022 240 1022 q 324 1005 301 1022 q 346 947 346 988 q 324 891 346 910 q 271 872 301 872 q 219 891 240 872 q 197 947 197 910 m 463 947 q 484 1005 463 988 q 536 1022 506 1022 q 588 1005 565 1022 q 610 947 610 988 q 588 891 610 910 q 536 872 565 872 q 484 891 506 872 q 463 947 463 910 z "},"ό":{"ha":846,"x_min":72,"x_max":775,"o":"m 775 375 q 679 88 775 189 q 421 -14 583 -14 q 241 32 319 -14 q 117 165 163 78 q 72 375 72 251 q 167 662 72 561 q 425 763 261 763 q 606 717 528 763 q 730 586 685 672 q 775 375 775 500 m 224 375 q 272 178 224 249 q 424 107 319 107 q 576 178 528 107 q 624 375 624 249 q 575 572 624 503 q 422 640 526 640 q 271 572 318 640 q 224 375 224 503 m 386 842 l 386 858 l 453 1078 l 625 1078 l 625 1064 l 485 842 l 386 842 z "},"ύ":{"ha":847,"x_min":108,"x_max":754,"o":"m 404 -14 q 251 11 310 -14 q 162 81 193 36 q 119 189 131 126 q 108 326 108 251 l 108 749 l 256 749 l 256 326 q 286 160 256 214 q 413 106 317 106 q 556 179 507 106 q 606 413 606 253 q 594 585 606 507 q 561 749 582 663 l 710 749 q 743 586 732 664 q 754 407 754 508 q 663 88 754 190 q 404 -14 572 -14 m 367 842 l 367 858 l 433 1078 l 606 1078 l 606 1064 l 465 842 l 367 842 z "},"ώ":{"ha":1138,"x_min":86,"x_max":1053,"o":"m 364 -14 q 210 34 272 -14 q 117 167 149 82 q 86 363 86 251 q 123 594 86 497 q 213 749 160 690 l 356 749 q 266 594 303 689 q 229 364 229 499 q 267 173 229 240 q 374 106 306 106 q 471 154 442 106 q 500 282 500 203 l 500 499 l 639 499 l 639 282 q 670 151 639 197 q 764 106 701 106 q 872 172 833 106 q 910 364 910 239 q 876 588 910 494 q 783 749 842 682 l 926 749 q 1018 589 983 683 q 1053 363 1053 494 q 1021 167 1053 251 q 927 34 989 82 q 775 -14 865 -14 q 645 23 694 -14 q 572 140 596 60 l 565 140 q 493 23 542 60 q 364 -14 444 -14 m 532 842 l 532 858 l 599 1078 l 771 1078 l 771 1064 l 631 842 l 532 842 z "},"Ё":{"ha":774,"x_min":132,"x_max":690,"o":"m 690 0 l 132 0 l 132 992 l 690 992 l 690 864 l 282 864 l 282 581 l 665 581 l 665 454 l 282 454 l 282 129 l 690 129 l 690 0 m 215 1190 q 237 1248 215 1231 q 289 1265 258 1265 q 342 1248 319 1265 q 364 1190 364 1231 q 342 1134 364 1153 q 289 1115 319 1115 q 237 1134 258 1115 q 215 1190 215 1153 m 481 1190 q 502 1248 481 1231 q 554 1265 524 1265 q 606 1248 583 1265 q 628 1190 628 1231 q 606 1134 628 1153 q 554 1115 583 1115 q 502 1134 524 1115 q 481 1190 481 1153 z "},"Ђ":{"ha":1056,"x_min":18,"x_max":960,"o":"m 700 -14 q 586 6 631 -14 l 586 133 q 690 115 633 115 q 747 126 718 115 q 793 166 775 136 q 811 254 811 196 l 811 343 q 774 451 811 417 q 650 486 738 486 l 403 486 l 403 0 l 254 0 l 254 863 l 18 863 l 18 992 l 703 992 l 703 863 l 403 863 l 403 615 l 660 615 q 882 549 804 615 q 960 358 960 482 l 960 265 q 889 56 960 125 q 700 -14 818 -14 z "},"Ѓ":{"ha":743,"x_min":132,"x_max":711,"o":"m 711 992 l 711 863 l 282 863 l 282 0 l 132 0 l 132 992 l 711 992 m 649 1293 q 590 1228 628 1268 q 510 1149 553 1188 q 433 1085 467 1110 l 336 1085 l 336 1101 q 383 1164 357 1128 q 435 1238 410 1200 q 476 1307 460 1276 l 649 1307 l 649 1293 z "},"Є":{"ha":907,"x_min":83,"x_max":864,"o":"m 567 876 q 344 800 431 876 q 244 575 258 724 l 711 575 l 711 449 l 242 449 q 330 202 249 289 q 568 115 411 115 q 698 127 635 115 q 826 158 761 139 l 826 29 q 553 -14 710 -14 q 286 50 390 -14 q 133 228 182 114 q 83 496 83 343 q 140 763 83 649 q 305 942 196 878 q 572 1007 414 1007 q 732 990 661 1007 q 864 943 803 972 l 806 817 q 695 859 753 842 q 567 876 638 876 z "},"Ѕ":{"ha":764,"x_min":69,"x_max":701,"o":"m 701 268 q 606 61 701 136 q 343 -14 510 -14 q 191 -1 263 -14 q 69 38 119 13 l 69 179 q 200 134 125 154 q 353 114 275 114 q 503 153 453 114 q 553 257 553 192 q 530 334 553 303 q 458 392 507 365 q 331 450 410 418 q 201 515 257 478 q 113 608 144 553 q 81 744 81 664 q 169 936 81 867 q 403 1006 258 1006 q 552 990 483 1006 q 683 946 621 974 l 636 822 q 520 861 579 846 q 399 876 461 876 q 274 840 317 876 q 231 746 231 804 q 251 669 231 700 q 318 613 272 638 q 439 557 364 588 q 581 487 522 524 q 671 398 640 450 q 701 268 701 346 z "},"І":{"ha":492,"x_min":53,"x_max":438,"o":"m 438 0 l 53 0 l 53 86 l 171 121 l 171 869 l 53 906 l 53 992 l 438 992 l 438 906 l 321 869 l 321 121 l 438 86 l 438 0 z "},"Ї":{"ha":492,"x_min":40,"x_max":453,"o":"m 438 0 l 53 0 l 53 86 l 171 121 l 171 869 l 53 906 l 53 992 l 438 992 l 438 906 l 321 869 l 321 121 l 438 86 l 438 0 m 40 1190 q 62 1248 40 1231 q 114 1265 83 1265 q 167 1248 144 1265 q 189 1190 189 1231 q 167 1134 189 1153 q 114 1115 144 1115 q 62 1134 83 1115 q 40 1190 40 1153 m 306 1190 q 327 1248 306 1231 q 379 1265 349 1265 q 431 1248 408 1265 q 453 1190 453 1231 q 431 1134 453 1153 q 379 1115 408 1115 q 327 1134 349 1115 q 306 1190 306 1153 z "},"Ј":{"ha":403,"x_min":-107,"x_max":276,"o":"m 3 -272 q -60 -267 -33 -272 q -107 -254 -87 -262 l -107 -129 q -60 -139 -85 -135 q -7 -143 -35 -143 q 58 -129 28 -143 q 108 -79 89 -115 q 126 22 126 -43 l 126 992 l 276 992 l 276 29 q 201 -200 276 -128 q 3 -272 125 -272 z "},"Љ":{"ha":1326,"x_min":4,"x_max":1271,"o":"m 97 -15 q 48 -10 72 -15 q 4 1 24 -6 l 4 125 q 40 114 21 118 q 79 110 58 110 q 139 138 117 110 q 175 215 161 167 q 201 325 189 264 q 227 477 211 378 q 262 708 243 576 q 300 992 281 840 l 804 992 l 804 583 l 885 583 q 1111 546 1026 583 q 1233 443 1196 508 q 1271 296 1271 378 q 1181 80 1271 160 q 896 0 1090 0 l 654 0 l 654 863 l 425 863 q 398 655 413 765 q 367 443 383 544 q 338 269 351 342 q 291 115 318 178 q 218 18 264 51 q 97 -15 172 -15 m 885 126 q 1059 167 1001 126 q 1117 296 1117 208 q 1053 422 1117 388 q 865 457 990 457 l 804 457 l 804 126 l 885 126 z "},"Њ":{"ha":1349,"x_min":132,"x_max":1293,"o":"m 132 0 l 132 992 l 282 992 l 282 581 l 676 581 l 676 992 l 828 992 l 828 583 l 908 583 q 1134 546 1050 583 q 1256 443 1218 508 q 1293 296 1293 378 q 1203 80 1293 160 q 919 0 1114 0 l 676 0 l 676 453 l 282 453 l 282 0 l 132 0 m 908 126 q 1081 167 1024 126 q 1139 296 1139 208 q 1076 422 1139 388 q 889 457 1014 457 l 828 457 l 828 126 l 908 126 z "},"Ћ":{"ha":1056,"x_min":18,"x_max":960,"o":"m 731 992 l 731 861 l 403 861 l 403 614 l 669 614 q 885 548 810 614 q 960 358 960 482 l 960 0 l 810 0 l 810 343 q 776 451 810 417 q 660 485 742 485 l 403 485 l 403 0 l 253 0 l 253 861 l 18 861 l 18 992 l 731 992 z "},"Ќ":{"ha":881,"x_min":132,"x_max":881,"o":"m 881 0 l 704 0 l 282 503 l 282 0 l 132 0 l 132 992 l 282 992 l 282 511 l 696 992 l 861 992 l 451 511 l 881 0 m 696 1293 q 638 1228 675 1268 q 557 1149 600 1188 q 481 1085 514 1110 l 383 1085 l 383 1101 q 431 1164 404 1128 q 482 1238 457 1200 q 524 1307 507 1276 l 696 1307 l 696 1293 z "},"Ў":{"ha":883,"x_min":15,"x_max":883,"o":"m 732 1306 q 658 1142 722 1200 q 447 1085 594 1085 q 289 1110 347 1085 q 204 1184 231 1135 q 172 1306 178 1233 l 307 1306 q 347 1204 314 1229 q 451 1179 379 1179 q 551 1206 514 1179 q 594 1306 588 1233 l 732 1306 m 569 285 q 480 120 525 186 q 370 20 435 54 q 204 -14 306 -14 q 63 7 126 -14 l 63 147 q 196 121 124 121 q 312 154 271 121 q 385 261 353 188 l 15 992 l 178 992 l 426 481 q 447 438 435 464 q 465 390 458 411 l 471 390 q 488 435 478 407 q 507 481 499 463 l 726 992 l 883 992 l 569 285 z "},"Џ":{"ha":1021,"x_min":132,"x_max":888,"o":"m 888 0 l 582 0 l 582 -269 l 432 -269 l 432 0 l 132 0 l 132 992 l 282 992 l 282 131 l 739 131 l 739 992 l 888 992 l 888 0 z "},"А":{"ha":908,"x_min":0,"x_max":907,"o":"m 750 0 l 644 286 l 261 286 l 156 0 l 0 0 l 376 996 l 532 996 l 907 0 l 750 0 m 503 696 q 488 742 499 711 q 468 806 478 772 q 453 860 458 839 q 428 768 442 817 q 406 696 414 719 l 306 417 l 603 417 l 503 696 z "},"Б":{"ha":864,"x_min":132,"x_max":796,"o":"m 132 0 l 132 992 l 732 992 l 732 863 l 282 863 l 282 583 l 410 583 q 640 547 556 583 q 760 444 725 510 q 796 296 796 379 q 708 78 796 157 q 422 0 621 0 l 132 0 m 411 126 q 588 167 533 126 q 642 296 642 208 q 582 422 642 388 q 390 457 522 457 l 282 457 l 282 126 l 411 126 z "},"В":{"ha":911,"x_min":132,"x_max":838,"o":"m 422 992 q 709 936 611 992 q 807 744 807 881 q 760 599 807 657 q 628 526 714 542 l 628 519 q 734 483 686 510 q 810 409 782 457 q 838 283 838 361 q 743 74 838 149 q 488 0 649 0 l 132 0 l 132 992 l 422 992 m 447 578 q 608 615 564 578 q 651 726 651 653 q 599 833 651 800 q 431 865 546 865 l 282 865 l 282 578 l 447 578 m 282 456 l 282 125 l 464 125 q 631 172 583 125 q 679 297 679 219 q 630 412 679 368 q 454 456 581 456 l 282 456 z "},"Г":{"ha":743,"x_min":132,"x_max":711,"o":"m 711 992 l 711 863 l 282 863 l 282 0 l 132 0 l 132 992 l 711 992 z "},"Д":{"ha":990,"x_min":8,"x_max":960,"o":"m 832 992 l 832 131 l 960 131 l 960 -269 l 815 -269 l 815 0 l 151 0 l 151 -269 l 8 -269 l 8 131 l 85 131 q 201 383 147 242 q 290 679 254 524 q 339 992 326 835 l 832 992 m 465 861 q 438 687 458 782 q 388 492 418 592 q 320 299 357 392 q 243 131 283 206 l 683 131 l 683 861 l 465 861 z "},"Е":{"ha":774,"x_min":132,"x_max":690,"o":"m 690 0 l 132 0 l 132 992 l 690 992 l 690 864 l 282 864 l 282 581 l 665 581 l 665 454 l 282 454 l 282 129 l 690 129 l 690 0 z "},"Ж":{"ha":1222,"x_min":1,"x_max":1221,"o":"m 386 511 l 17 992 l 178 992 l 540 511 l 540 992 l 682 992 l 682 511 l 1044 992 l 1206 992 l 836 513 l 1221 0 l 1053 0 l 682 503 l 682 0 l 540 0 l 540 503 l 168 0 l 1 0 l 386 511 z "},"З":{"ha":842,"x_min":58,"x_max":771,"o":"m 747 760 q 681 599 747 658 q 507 524 615 539 l 507 518 q 703 441 636 503 q 771 281 771 379 q 669 68 771 150 q 365 -14 567 -14 q 199 -1 276 -14 q 58 40 121 11 l 58 172 q 203 124 124 142 q 353 107 283 107 q 551 153 485 107 q 617 286 617 200 q 535 413 617 372 q 308 453 453 453 l 181 453 l 181 575 l 300 575 q 526 619 456 575 q 596 742 596 664 q 543 846 596 808 q 401 883 490 883 q 249 860 313 883 q 128 800 186 838 l 58 901 q 210 976 122 946 q 411 1006 297 1006 q 660 936 574 1006 q 747 760 747 867 z "},"И":{"ha":1089,"x_min":133,"x_max":958,"o":"m 133 992 l 271 992 l 271 467 q 269 363 271 419 q 265 258 268 306 q 261 190 263 210 l 267 190 l 786 992 l 958 992 l 958 0 l 821 0 l 821 521 q 823 631 821 571 q 828 739 825 690 q 832 806 831 788 l 826 806 l 306 0 l 133 0 l 133 992 z "},"Й":{"ha":1089,"x_min":133,"x_max":958,"o":"m 844 1306 q 771 1142 835 1200 q 561 1085 707 1085 q 401 1110 460 1085 q 317 1184 343 1135 q 285 1306 290 1233 l 419 1306 q 459 1204 426 1229 q 564 1179 492 1179 q 663 1206 626 1179 q 708 1306 700 1233 l 844 1306 m 133 992 l 271 992 l 271 467 q 269 363 271 419 q 265 258 268 306 q 261 190 263 210 l 267 190 l 786 992 l 958 992 l 958 0 l 821 0 l 821 521 q 823 631 821 571 q 828 739 825 690 q 832 806 831 788 l 826 806 l 306 0 l 133 0 l 133 992 z "},"К":{"ha":881,"x_min":132,"x_max":881,"o":"m 881 0 l 704 0 l 282 503 l 282 0 l 132 0 l 132 992 l 282 992 l 282 511 l 696 992 l 861 992 l 451 511 l 881 0 z "},"Л":{"ha":999,"x_min":4,"x_max":867,"o":"m 867 0 l 717 0 l 717 863 l 424 863 q 397 655 411 765 q 367 443 382 544 q 338 269 351 342 q 292 115 319 178 q 218 18 264 51 q 97 -15 172 -15 q 4 1 46 -15 l 4 125 q 40 114 21 118 q 79 110 58 110 q 140 139 117 110 q 176 217 163 168 q 201 324 189 265 q 227 474 211 374 q 262 707 243 574 q 299 992 281 840 l 867 992 l 867 0 z "},"М":{"ha":1275,"x_min":132,"x_max":1143,"o":"m 564 0 l 264 843 l 258 843 q 263 767 260 814 q 267 667 265 721 q 268 560 268 613 l 268 0 l 132 0 l 132 992 l 346 992 l 631 196 l 636 196 l 929 992 l 1143 992 l 1143 0 l 997 0 l 997 568 q 999 667 997 615 q 1003 765 1001 719 q 1007 842 1006 811 l 1001 842 l 693 0 l 564 0 z "},"Н":{"ha":1039,"x_min":132,"x_max":906,"o":"m 906 0 l 756 0 l 756 453 l 282 453 l 282 0 l 132 0 l 132 992 l 282 992 l 282 581 l 756 581 l 756 992 l 906 992 l 906 0 z "},"О":{"ha":1090,"x_min":83,"x_max":1007,"o":"m 1007 497 q 956 228 1007 343 q 801 50 904 114 q 546 -14 699 -14 q 286 50 389 -14 q 133 229 183 114 q 83 499 83 344 q 134 765 83 651 q 288 943 185 879 q 547 1007 390 1007 q 802 944 700 1007 q 956 766 904 881 q 1007 497 1007 651 m 242 497 q 315 217 242 319 q 546 114 389 114 q 776 217 704 114 q 849 497 849 319 q 777 776 849 675 q 547 878 706 878 q 315 776 389 878 q 242 497 242 675 z "},"П":{"ha":1021,"x_min":132,"x_max":888,"o":"m 132 0 l 132 992 l 888 992 l 888 0 l 739 0 l 739 863 l 282 863 l 282 0 l 132 0 z "},"Р":{"ha":850,"x_min":132,"x_max":782,"o":"m 410 992 q 693 913 604 992 q 782 694 782 835 q 745 539 782 611 q 622 422 708 467 q 389 376 536 376 l 282 376 l 282 0 l 132 0 l 132 992 l 410 992 m 399 865 l 282 865 l 282 503 l 372 503 q 563 546 499 503 q 628 689 628 589 q 572 822 628 778 q 399 865 517 865 z "},"С":{"ha":879,"x_min":83,"x_max":835,"o":"m 556 876 q 324 774 407 876 q 240 494 240 672 q 318 217 240 318 q 554 115 396 115 q 677 127 618 115 q 797 158 736 139 l 797 29 q 678 -3 739 7 q 536 -14 618 -14 q 283 49 383 -14 q 133 227 183 113 q 83 496 83 342 q 138 761 83 646 q 299 941 193 876 q 557 1006 404 1006 q 703 990 632 1006 q 835 944 775 974 l 779 819 q 674 859 731 842 q 556 876 618 876 z "},"Т":{"ha":782,"x_min":18,"x_max":763,"o":"m 465 0 l 315 0 l 315 863 l 18 863 l 18 992 l 763 992 l 763 863 l 465 863 l 465 0 z "},"У":{"ha":883,"x_min":15,"x_max":883,"o":"m 569 285 q 480 120 525 186 q 370 20 435 54 q 204 -14 306 -14 q 63 7 126 -14 l 63 147 q 196 121 124 121 q 312 154 271 121 q 385 261 353 188 l 15 992 l 178 992 l 426 481 q 447 438 435 464 q 465 390 458 411 l 471 390 q 488 435 478 407 q 507 481 499 463 l 726 992 l 883 992 l 569 285 z "},"Ф":{"ha":1140,"x_min":68,"x_max":1071,"o":"m 640 1006 l 640 883 q 896 830 801 881 q 1031 697 990 779 q 1071 514 1071 614 q 1050 383 1071 449 q 980 263 1029 317 q 848 175 931 208 q 640 139 765 142 l 640 -14 l 497 -14 l 497 139 q 288 176 371 142 q 156 266 204 211 q 88 385 108 321 q 68 514 68 450 q 109 694 68 611 q 244 829 150 778 q 497 883 338 881 l 497 1006 l 640 1006 m 497 761 q 331 726 393 757 q 242 640 269 694 q 215 515 215 586 q 283 333 215 401 q 497 260 350 264 l 497 761 m 640 260 q 858 333 792 264 q 924 515 924 403 q 897 642 924 588 q 808 726 869 696 q 640 761 746 757 l 640 260 z "},"Х":{"ha":847,"x_min":4,"x_max":843,"o":"m 843 0 l 672 0 l 419 414 l 164 0 l 4 0 l 333 515 l 25 992 l 192 992 l 425 613 l 660 992 l 819 992 l 511 514 l 843 0 z "},"Ц":{"ha":1046,"x_min":132,"x_max":1017,"o":"m 1017 126 l 1017 -269 l 872 -269 l 872 0 l 132 0 l 132 992 l 282 992 l 282 131 l 739 131 l 739 992 l 888 992 l 888 126 l 1017 126 z "},"Ч":{"ha":982,"x_min":100,"x_max":850,"o":"m 850 0 l 700 0 l 700 400 q 547 354 618 371 q 393 338 475 338 q 176 403 253 338 q 100 592 100 469 l 100 992 l 250 992 l 250 622 q 290 506 250 544 q 419 467 329 467 q 558 481 494 467 q 700 522 621 496 l 700 992 l 850 992 l 850 0 z "},"Ш":{"ha":1457,"x_min":132,"x_max":1324,"o":"m 1324 0 l 132 0 l 132 992 l 282 992 l 282 131 l 651 131 l 651 992 l 803 992 l 803 131 l 1174 131 l 1174 992 l 1324 992 l 1324 0 z "},"Щ":{"ha":1476,"x_min":132,"x_max":1438,"o":"m 1438 126 l 1438 -269 l 1294 -269 l 1294 0 l 132 0 l 132 992 l 282 992 l 282 131 l 644 131 l 644 992 l 796 992 l 796 131 l 1161 131 l 1161 992 l 1311 992 l 1311 126 l 1438 126 z "},"Ъ":{"ha":975,"x_min":8,"x_max":907,"o":"m 243 0 l 243 863 l 8 863 l 8 992 l 393 992 l 393 583 l 528 583 q 750 545 667 583 q 870 442 833 507 q 907 296 907 378 q 819 80 907 160 q 539 0 731 0 l 243 0 m 528 126 q 697 167 640 126 q 753 296 753 208 q 692 422 753 388 q 508 457 631 457 l 393 457 l 393 126 l 528 126 z "},"Ы":{"ha":1211,"x_min":132,"x_max":1079,"o":"m 132 0 l 132 992 l 282 992 l 282 583 l 410 583 q 630 545 547 583 q 749 442 713 507 q 786 296 786 378 q 698 80 786 160 q 418 0 610 0 l 132 0 m 929 0 l 929 992 l 1079 992 l 1079 0 l 929 0 m 408 125 q 576 167 521 125 q 632 296 632 208 q 572 422 632 388 q 393 456 513 456 l 282 456 l 282 125 l 408 125 z "},"Ь":{"ha":890,"x_min":132,"x_max":822,"o":"m 132 0 l 132 992 l 282 992 l 282 583 l 438 583 q 661 545 576 583 q 784 442 746 507 q 822 296 822 378 q 731 80 822 160 q 447 0 639 0 l 132 0 m 436 126 q 609 167 550 126 q 668 296 668 208 q 603 422 668 388 q 418 457 539 457 l 282 457 l 282 126 l 436 126 z "},"Э":{"ha":892,"x_min":43,"x_max":807,"o":"m 338 876 q 210 860 269 876 q 100 821 150 843 l 43 944 q 181 990 106 974 q 340 1006 257 1006 q 599 942 496 1006 q 755 767 703 879 q 807 507 807 654 q 755 231 807 349 q 597 50 703 114 q 328 -14 490 -14 q 179 -3 242 -14 q 56 29 117 7 l 56 158 q 181 128 119 140 q 310 115 243 115 q 558 201 474 115 q 649 449 643 286 l 182 449 l 182 578 l 647 578 q 553 797 636 718 q 338 876 471 876 z "},"Ю":{"ha":1468,"x_min":132,"x_max":1383,"o":"m 1383 497 q 1335 228 1383 343 q 1189 50 1286 114 q 946 -14 1092 -14 q 708 44 804 -14 q 562 206 613 101 q 503 453 511 310 l 282 453 l 282 0 l 132 0 l 132 992 l 282 992 l 282 581 l 507 581 q 632 891 524 775 q 943 1007 740 1007 q 1187 944 1089 1007 q 1334 766 1285 881 q 1383 497 1383 651 m 658 497 q 727 217 658 319 q 942 114 796 114 q 1160 217 1092 114 q 1228 497 1228 319 q 1160 776 1228 675 q 944 878 1093 878 q 728 776 797 878 q 658 497 658 675 z "},"Я":{"ha":899,"x_min":19,"x_max":767,"o":"m 440 403 l 192 0 l 19 0 l 299 435 q 205 483 250 451 q 131 571 160 515 q 103 713 103 626 q 197 919 103 847 q 475 992 292 992 l 767 992 l 767 0 l 617 0 l 617 403 l 440 403 m 479 865 q 315 828 372 865 q 257 704 257 790 q 313 573 257 619 q 485 526 368 526 l 617 526 l 617 865 l 479 865 z "},"а":{"ha":797,"x_min":63,"x_max":686,"o":"m 406 763 q 616 701 546 763 q 686 507 686 639 l 686 0 l 582 0 l 553 104 l 547 104 q 445 15 499 43 q 297 -14 392 -14 q 129 41 196 -14 q 63 213 63 96 q 149 386 63 326 q 414 451 235 446 l 542 456 l 542 497 q 504 613 542 579 q 399 647 467 647 q 289 631 342 647 q 188 590 236 614 l 140 697 q 262 744 193 725 q 406 763 331 763 m 440 357 q 263 315 313 351 q 214 211 214 278 q 249 126 214 153 q 339 100 283 100 q 483 149 425 100 q 540 294 540 197 l 540 360 l 440 357 z "},"б":{"ha":842,"x_min":74,"x_max":769,"o":"m 74 449 q 154 833 74 696 q 414 1007 235 971 q 582 1037 499 1024 q 743 1063 665 1050 l 764 933 q 656 917 717 926 q 538 899 596 908 q 438 881 479 889 q 329 835 374 868 q 260 741 285 803 q 231 578 235 679 l 239 578 q 291 632 258 604 q 370 678 324 660 q 478 697 417 697 q 694 607 619 697 q 769 364 769 517 q 726 153 769 238 q 603 28 682 69 q 421 -14 524 -14 q 168 105 263 -14 q 74 449 74 224 m 432 107 q 565 161 514 107 q 617 349 617 215 q 578 518 617 456 q 449 581 539 581 q 347 556 393 581 q 269 497 300 531 q 225 443 238 464 q 234 319 225 379 q 266 212 243 260 q 329 135 289 164 q 432 107 369 107 z "},"в":{"ha":822,"x_min":115,"x_max":760,"o":"m 736 558 q 695 450 736 490 q 586 397 654 410 l 586 392 q 709 341 658 382 q 760 221 760 300 q 687 63 760 125 q 447 0 614 0 l 115 0 l 115 749 l 447 749 q 594 731 529 749 q 698 671 660 713 q 736 558 736 629 m 586 542 q 551 612 586 589 q 439 635 515 635 l 263 635 l 263 446 l 417 446 q 586 542 586 446 m 607 224 q 562 308 607 282 q 431 333 517 333 l 263 333 l 263 111 l 433 111 q 561 137 515 111 q 607 224 607 163 z "},"г":{"ha":619,"x_min":115,"x_max":590,"o":"m 590 749 l 590 631 l 263 631 l 263 0 l 115 0 l 115 749 l 590 749 z "},"д":{"ha":840,"x_min":25,"x_max":815,"o":"m 706 749 l 706 117 l 815 117 l 815 -262 l 678 -262 l 678 0 l 161 0 l 161 -262 l 25 -262 l 25 117 l 85 117 q 221 411 175 244 q 272 749 267 578 l 706 749 m 400 635 q 371 449 392 543 q 317 269 350 356 q 239 117 283 183 l 561 117 l 561 635 l 400 635 z "},"е":{"ha":794,"x_min":72,"x_max":726,"o":"m 410 763 q 642 672 557 763 q 726 424 726 581 l 726 343 l 224 343 q 284 167 226 228 q 446 106 342 106 q 574 119 518 106 q 690 158 631 132 l 690 36 q 576 -1 633 11 q 440 -14 519 -14 q 248 29 331 -14 q 119 158 165 72 q 72 368 72 243 q 115 582 72 494 q 233 716 157 669 q 410 763 308 763 m 410 649 q 283 597 331 649 q 226 451 235 546 l 579 451 q 537 594 578 539 q 410 649 496 649 z "},"ж":{"ha":1092,"x_min":1,"x_max":1089,"o":"m 1063 749 l 764 386 l 1089 0 l 926 0 l 614 379 l 614 0 l 476 0 l 476 379 l 164 0 l 1 0 l 326 386 l 28 749 l 185 749 l 476 385 l 476 749 l 614 749 l 614 385 l 907 749 l 1063 749 z "},"з":{"ha":707,"x_min":47,"x_max":647,"o":"m 335 763 q 542 712 461 763 q 624 565 624 661 q 585 457 624 497 q 481 399 546 417 l 481 393 q 564 360 526 381 q 624 303 601 339 q 647 210 647 267 q 612 97 647 149 q 502 16 576 46 q 313 -14 428 -14 q 47 35 142 -14 l 47 163 q 160 122 94 140 q 304 104 226 104 q 445 130 388 104 q 503 218 503 156 q 290 333 503 333 l 196 333 l 196 446 l 275 446 q 430 469 372 446 q 488 550 488 492 q 322 646 488 646 q 211 633 263 646 q 104 599 160 621 l 56 710 q 185 749 117 735 q 335 763 254 763 z "},"и":{"ha":925,"x_min":115,"x_max":808,"o":"m 256 340 q 253 281 256 318 q 249 206 251 243 q 244 151 247 169 l 629 749 l 808 749 l 808 0 l 669 0 l 669 399 q 671 464 669 425 q 674 540 672 503 q 678 596 676 576 l 296 0 l 115 0 l 115 749 l 256 749 l 256 340 z "},"й":{"ha":925,"x_min":115,"x_max":808,"o":"m 754 1063 q 681 899 744 957 q 471 842 617 842 q 312 867 371 842 q 226 941 253 892 q 194 1063 200 990 l 329 1063 q 369 961 336 986 q 474 936 401 936 q 574 963 536 936 q 618 1063 611 990 l 754 1063 m 256 340 q 253 281 256 318 q 249 206 251 243 q 244 151 247 169 l 629 749 l 808 749 l 808 0 l 669 0 l 669 399 q 671 464 669 425 q 674 540 672 503 q 678 596 676 576 l 296 0 l 115 0 l 115 749 l 256 749 l 256 340 z "},"к":{"ha":772,"x_min":115,"x_max":760,"o":"m 572 749 l 733 749 l 421 389 l 760 0 l 590 0 l 263 379 l 263 0 l 115 0 l 115 749 l 263 749 l 263 385 l 572 749 z "},"л":{"ha":831,"x_min":7,"x_max":715,"o":"m 715 0 l 567 0 l 567 631 l 356 631 q 306 259 338 400 q 222 53 275 118 q 86 -11 169 -11 q 7 3 36 -11 l 7 115 q 53 108 26 108 q 131 172 97 108 q 190 376 165 235 q 229 749 214 517 l 715 749 l 715 0 z "},"м":{"ha":1076,"x_min":115,"x_max":960,"o":"m 960 749 l 960 0 l 826 0 l 826 444 q 828 519 826 482 q 833 593 829 557 l 829 593 l 596 0 l 478 0 l 249 593 l 243 593 q 250 440 250 524 l 250 0 l 115 0 l 115 749 l 317 749 l 538 175 l 763 749 l 960 749 z "},"н":{"ha":894,"x_min":115,"x_max":779,"o":"m 263 749 l 263 444 l 632 444 l 632 749 l 779 749 l 779 0 l 632 0 l 632 326 l 263 326 l 263 0 l 115 0 l 115 749 l 263 749 z "},"о":{"ha":846,"x_min":72,"x_max":775,"o":"m 775 375 q 679 88 775 189 q 421 -14 583 -14 q 241 32 319 -14 q 117 165 163 78 q 72 375 72 251 q 167 662 72 561 q 425 763 261 763 q 606 717 528 763 q 730 586 685 672 q 775 375 775 500 m 224 375 q 272 178 224 249 q 424 107 319 107 q 576 178 528 107 q 624 375 624 249 q 575 572 624 503 q 422 640 526 640 q 271 572 318 640 q 224 375 224 503 z "},"п":{"ha":878,"x_min":115,"x_max":763,"o":"m 763 749 l 763 0 l 615 0 l 615 629 l 263 629 l 263 0 l 115 0 l 115 749 l 763 749 z "},"р":{"ha":861,"x_min":115,"x_max":789,"o":"m 489 763 q 706 665 624 763 q 789 375 789 568 q 706 85 789 185 q 488 -14 622 -14 q 348 17 401 -14 q 263 92 294 49 l 253 92 q 260 33 257 67 q 263 -28 263 -1 l 263 -333 l 115 -333 l 115 749 l 235 749 l 256 649 l 263 649 q 348 729 294 696 q 489 763 401 763 m 454 642 q 307 581 350 642 q 263 399 264 521 l 263 376 q 304 177 263 247 q 457 107 346 107 q 593 182 549 107 q 638 378 638 257 q 593 571 638 500 q 454 642 549 642 z "},"с":{"ha":681,"x_min":72,"x_max":636,"o":"m 417 -14 q 167 78 261 -14 q 72 369 72 171 q 118 594 72 508 q 244 722 164 681 q 428 763 325 763 q 545 749 490 763 q 636 719 600 736 l 592 600 q 509 626 553 615 q 426 638 465 638 q 224 371 224 638 q 274 176 224 243 q 421 110 324 110 q 531 124 483 110 q 619 160 579 138 l 619 32 q 532 -3 579 8 q 417 -14 485 -14 z "},"т":{"ha":693,"x_min":29,"x_max":663,"o":"m 663 631 l 418 631 l 418 0 l 272 0 l 272 631 l 29 631 l 29 749 l 663 749 l 663 631 z "},"у":{"ha":732,"x_min":1,"x_max":732,"o":"m 1 749 l 160 749 l 315 324 q 347 230 333 275 q 367 142 360 185 l 372 142 q 394 226 379 178 q 426 325 408 275 l 574 749 l 732 749 l 411 -101 q 303 -272 371 -210 q 128 -333 236 -333 q 68 -330 93 -333 q 25 -322 43 -326 l 25 -206 q 61 -211 39 -208 q 107 -214 83 -214 q 210 -177 171 -214 q 271 -81 249 -140 l 301 0 l 1 749 z "},"ф":{"ha":1043,"x_min":71,"x_max":971,"o":"m 592 757 q 869 641 767 742 q 971 374 971 540 q 872 107 971 208 q 592 -10 774 6 l 592 -333 l 451 -333 l 451 -10 q 249 49 335 0 q 117 181 164 99 q 71 374 71 264 q 169 643 71 542 q 454 757 268 744 l 454 1056 l 592 1056 l 592 757 m 454 640 q 281 559 338 628 q 224 374 224 490 q 281 189 224 258 q 454 107 338 119 l 454 640 m 592 107 q 763 190 707 121 q 819 374 819 258 q 763 557 819 489 q 592 639 706 625 l 592 107 z "},"х":{"ha":754,"x_min":19,"x_max":735,"o":"m 286 382 l 32 749 l 200 749 l 378 479 l 556 749 l 722 749 l 468 382 l 735 0 l 568 0 l 378 286 l 186 0 l 19 0 l 286 382 z "},"ц":{"ha":901,"x_min":115,"x_max":878,"o":"m 878 -262 l 739 -262 l 739 0 l 115 0 l 115 749 l 263 749 l 263 118 l 624 118 l 624 749 l 771 749 l 771 117 l 878 117 l 878 -262 z "},"ч":{"ha":869,"x_min":97,"x_max":754,"o":"m 244 475 q 372 357 244 357 q 494 376 439 357 q 607 426 550 394 l 607 749 l 754 749 l 754 0 l 607 0 l 607 324 q 488 264 549 286 q 343 242 426 242 q 163 301 228 242 q 97 468 97 361 l 97 749 l 244 749 l 244 475 z "},"ш":{"ha":1276,"x_min":115,"x_max":1160,"o":"m 1160 749 l 1160 0 l 115 0 l 115 749 l 263 749 l 263 118 l 564 118 l 564 749 l 711 749 l 711 118 l 1013 118 l 1013 749 l 1160 749 z "},"щ":{"ha":1290,"x_min":115,"x_max":1268,"o":"m 1160 749 l 1160 117 l 1268 117 l 1268 -261 l 1128 -261 l 1128 0 l 115 0 l 115 749 l 263 749 l 263 118 l 564 118 l 564 749 l 711 749 l 711 118 l 1013 118 l 1013 749 l 1160 749 z "},"ъ":{"ha":972,"x_min":18,"x_max":906,"o":"m 404 749 l 404 447 l 592 447 q 828 393 751 447 q 906 232 906 339 q 833 63 906 126 q 593 0 760 0 l 257 0 l 257 631 l 18 631 l 18 749 l 404 749 m 588 332 l 404 332 l 404 111 l 592 111 q 713 138 667 111 q 758 226 758 164 q 716 309 758 286 q 588 332 674 332 z "},"ы":{"ha":1110,"x_min":115,"x_max":994,"o":"m 115 0 l 115 749 l 263 749 l 263 447 l 428 447 q 655 393 582 447 q 728 232 728 339 q 657 63 728 126 q 426 0 586 0 l 115 0 m 847 0 l 847 749 l 994 749 l 994 0 l 847 0 m 415 111 q 535 137 489 111 q 582 226 582 163 q 539 310 582 286 q 415 333 496 333 l 263 333 l 263 111 l 415 111 z "},"ь":{"ha":833,"x_min":115,"x_max":767,"o":"m 461 447 q 767 232 767 447 q 694 63 767 126 q 460 0 621 0 l 115 0 l 115 749 l 263 749 l 263 447 l 461 447 m 619 226 q 575 310 619 286 q 450 333 531 333 l 263 333 l 263 111 l 453 111 q 572 138 525 111 q 619 226 619 164 z "},"э":{"ha":693,"x_min":43,"x_max":621,"o":"m 251 -14 q 135 -3 185 -14 q 43 28 86 7 l 43 150 q 138 119 88 132 q 250 106 189 106 q 405 158 347 106 q 469 328 463 211 l 126 328 l 126 439 l 468 439 q 410 593 460 543 q 267 643 361 643 q 176 631 224 643 q 92 604 129 619 l 50 717 q 149 749 92 735 q 268 763 207 763 q 451 725 371 763 q 576 603 531 688 q 621 376 621 518 q 574 156 621 243 q 444 28 528 69 q 251 -14 361 -14 z "},"ю":{"ha":1178,"x_min":115,"x_max":1106,"o":"m 1106 375 q 1015 88 1106 189 q 768 -14 924 -14 q 538 72 628 -14 q 436 326 449 158 l 263 326 l 263 0 l 115 0 l 115 749 l 263 749 l 263 444 l 438 444 q 542 681 454 599 q 772 763 631 763 q 945 717 869 763 q 1063 586 1021 672 q 1106 375 1106 500 m 585 375 q 629 175 585 243 q 771 107 674 107 q 911 175 868 107 q 954 375 954 243 q 910 574 954 507 q 769 640 867 640 q 629 574 674 640 q 585 375 585 507 z "},"я":{"ha":790,"x_min":15,"x_max":675,"o":"m 182 0 l 15 0 l 226 308 q 145 347 183 321 q 83 416 107 372 q 60 525 60 460 q 135 691 60 633 q 336 749 211 749 l 675 749 l 675 0 l 528 0 l 528 292 l 367 292 l 182 0 m 203 524 q 247 434 203 464 q 371 404 292 404 l 528 404 l 528 635 l 346 635 q 236 603 269 635 q 203 524 203 571 z "},"ё":{"ha":794,"x_min":72,"x_max":726,"o":"m 410 763 q 642 672 557 763 q 726 424 726 581 l 726 343 l 224 343 q 284 167 226 228 q 446 106 342 106 q 574 119 518 106 q 690 158 631 132 l 690 36 q 576 -1 633 11 q 440 -14 519 -14 q 248 29 331 -14 q 119 158 165 72 q 72 368 72 243 q 115 582 72 494 q 233 716 157 669 q 410 763 308 763 m 410 649 q 283 597 331 649 q 226 451 235 546 l 579 451 q 537 594 578 539 q 410 649 496 649 m 193 947 q 215 1005 193 988 q 267 1022 236 1022 q 319 1005 297 1022 q 342 947 342 988 q 319 891 342 910 q 267 872 297 872 q 215 891 236 872 q 193 947 193 910 m 458 947 q 480 1005 458 988 q 532 1022 501 1022 q 583 1005 561 1022 q 606 947 606 988 q 583 891 606 910 q 532 872 561 872 q 480 891 501 872 q 458 947 458 910 z "}}}
